<?xml version="1.0" encoding="UTF-8" standalone="no"?>
<!-- Created with Inkscape (http://www.inkscape.org/) -->

<svg
   width="40.0mm"
   height="40.0mm"
   viewBox="0 0 40.0 40.0"
   version="1.1"
   id="svg5"
   sodipodi:docname="UROS_SCD41_edge.svg"
   inkscape:version="1.1 (c4e8f9e, 2021-05-24)"
   xmlns:inkscape="http://www.inkscape.org/namespaces/inkscape"
   xmlns:sodipodi="http://sodipodi.sourceforge.net/DTD/sodipodi-0.dtd"
   xmlns="http://www.w3.org/2000/svg"
   xmlns:svg="http://www.w3.org/2000/svg">
  <sodipodi:namedview
     id="namedview7"
     pagecolor="#ffffff"
     bordercolor="#666666"
     borderopacity="1.0"
     inkscape:pageshadow="2"
     inkscape:pageopacity="0.0"
     inkscape:pagecheckerboard="0"
     inkscape:document-units="mm"
     showgrid="true"
     inkscape:zoom="4.2532751"
     inkscape:cx="64.420945"
     inkscape:cy="80.526181"
     inkscape:window-width="1864"
     inkscape:window-height="1016"
     inkscape:window-x="56"
     inkscape:window-y="27"
     inkscape:window-maximized="1"
     inkscape:current-layer="g1916"
     borderlayer="true"
     showborder="true"
     inkscape:showpageshadow="true"
     inkscape:snap-global="false">
    <inkscape:grid
       type="xygrid"
       id="grid1964" />
  </sodipodi:namedview>
  <defs
     id="defs2" />
  <g
     inkscape:label="[fixed] BG"
     inkscape:groupmode="layer"
     sodipodi:insensitive="true"
     id="g1914">
    <rect
       x="0"
       y="0"
       width="40.0"
       height="40.0"
       style="fill:#FFFFFF;fill-opacity:1;stroke:none"
       id="rect1912" />
  </g>
  <g
     inkscape:groupmode="layer"
     id="layer1"
     inkscape:label="stuffs">
    <path
       sodipodi:nodetypes="cccccccccccccccccccccccccccccccc"
       inkscape:connector-curvature="0"
       id="path16660"
       d="m -62.423401,34.260656 -0.784371,1.549445 a 0.82956241,0.82956241 0 0 1 -1.08412,0.380205 L -65.4879,35.645291 a 0.82956241,0.82956241 0 0 0 -0.796969,0.05992 l -3.708865,2.417449 a 0.82956241,0.82956241 0 0 1 -1.03428,-0.103135 l -3.300924,-3.242206 a 0.82956241,0.82956241 0 0 1 -0.106445,-1.055714 l 2.503695,-3.711907 a 0.82956241,0.82956241 0 0 0 0.08074,-0.776267 l -1.567897,-3.857186 a 0.82956241,0.82956241 0 0 0 -0.596508,-0.499158 l -4.598337,-0.974538 a 0.82956241,0.82956241 0 0 1 -0.657561,-0.811537 v -4.42348 a 0.82956241,0.82956241 0 0 1 0.643929,-0.808522 l 4.932652,-1.132558 a 0.82956241,0.82956241 0 0 0 0.581956,-0.493914 l 1.42321,-3.472406 a 0.82956241,0.82956241 0 0 0 -0.0802,-0.778999 l -2.658595,-3.9352809 a 0.82956241,0.82956241 0 0 1 0.105996,-1.056124 l 3.3056,-3.247887 a 0.82956241,0.82956241 0 0 1 1.022683,-0.110722 l 4.356097,2.736502 a 0.82956241,0.82956241 0 0 0 0.751142,0.06706 l 3.201998,-1.289367 a 0.82956241,0.82956241 0 0 0 0.501001,-0.594493 l 1.051814,-4.87315895 a 0.82956241,0.82956241 0 0 1 0.799199,-0.654458 l 4.758427,-0.0671601 a 0.82956241,0.82956241 0 0 1 0.821297,0.64850505 l 1.104673,4.94169195 a 0.82956241,0.82956241 0 0 0 0.50005,0.588673 l 3.216173,1.293479 a 0.82956241,0.82956241 0 0 0 0.743009,-0.06234 l 4.444615,-2.723854 a 0.82956241,0.82956241 0 0 1 1.027541,0.128305 l 3.231488,3.315669 a 0.82956241,0.82956241 0 0 1 0.09776,1.036725 l -2.68176,4.0535219 a 0.82956241,0.82956241 0 0 0 -0.06135,0.805368 l 1.571742,3.405322 a 0.82956241,0.82956241 0 0 0 0.581464,0.463948 l 4.751461,1.005499 a 0.82956241,0.82956241 0 0 1 0.657793,0.819228 l -0.04139,4.490575 a 0.82956241,0.82956241 0 0 1 -0.668095,0.806055 l -4.530654,0.898866 a 0.82956241,0.82956241 0 0 0 -0.607053,0.501289 l -1.565883,3.85183 a 0.82956241,0.82956241 0 0 0 0.08087,0.776488 l 2.504751,3.71126 a 0.82956241,0.82956241 0 0 1 -0.106101,1.055709 l -3.309163,3.252496 a 0.82956241,0.82956241 0 0 1 -1.020492,0.112243 l -3.933489,-2.453313 a 0.82956241,0.82956241 0 0 0 -0.798862,-0.0436 l -1.014163,0.488253 a 0.82956241,0.82956241 0 0 1 -1.120763,-0.416997 l -0.809391,-1.863733"
       style="fill:none;fill-rule:evenodd;stroke:#666666;stroke-width:1.63755;stroke-linecap:round;stroke-linejoin:miter;stroke-miterlimit:4;stroke-dasharray:none;stroke-opacity:1"
       inkscape:export-filename="/home/dusjagr/Documents/3dPrinting/KONS/UROS_Batch.png"
       inkscape:export-xdpi="299.965"
       inkscape:export-ydpi="299.965" />
    <g
       aria-label="UROs"
       id="g16672"
       style="font-size:39.3283px;line-height:1.25;font-family:'Ubuntu Condensed';-inkscape-font-specification:'Ubuntu Condensed, ';letter-spacing:0px;word-spacing:0px;fill:#ff7f2a;stroke:none;stroke-width:2.45802"
       transform="matrix(0.21444611,0,0,0.19847161,-76.31255,-25.92616)">
      <path
         d="m 29.382991,255.18941 h 12.703041 l -0.589924,19.86079 4.916038,-3.53955 -1.455148,-14.19751 h 12.073789 v 19.11355 l -7.039766,7.94432 H 35.164252 l -5.781261,-7.0791 z"
         style="font-family:'Super Mario 256';-inkscape-font-specification:'Super Mario 256, ';fill:#ff7f2a;stroke:none;stroke-width:0.519733;stroke-miterlimit:4;stroke-dasharray:none"
         id="path16662" />
      <path
         d="m 74.72845,255.18941 7.275736,5.30932 0.668581,9.16349 -4.090143,4.56208 7.275735,6.41052 -8.534241,3.69686 -8.927524,-7.62969 1.337162,7.59036 h -9.045509 l -2.281041,-27.84444 z m -6.331856,8.14096 -0.23597,5.58461 2.399026,0.31463 2.399027,-3.46089 z"
         style="font-family:'Super Mario 256';-inkscape-font-specification:'Super Mario 256, ';fill:#ff7f2a;stroke:none;stroke-width:0.519733;stroke-miterlimit:4;stroke-dasharray:none"
         id="path16664" />
      <path
         d="m 105.56177,255.42538 8.57357,10.65797 -2.43836,14.0402 -15.534677,4.05081 -12.388414,-10.93326 1.84843,-12.30976 9.242151,-5.85992 z m -8.376931,9.91073 -2.005743,4.48342 3.46089,2.32037 3.657534,-1.33716 -0.19664,-4.36544 z"
         style="font-family:'Super Mario 256';-inkscape-font-specification:'Super Mario 256, ';fill:#ff7f2a;stroke:none;stroke-width:0.519733;stroke-miterlimit:4;stroke-dasharray:none"
         id="path16666" />
      <path
         d="m 143.39555,262.38649 -5.07335,6.2532 -5.93858,-3.81485 -1.49447,1.88776 10.61864,7.787 -5.15201,9.71409 H 123.7314 l -8.80954,-7.00043 3.81484,-6.41052 7.59037,4.28679 1.14052,-1.76978 -11.12991,-6.60715 10.53998,-11.79849 h 9.47812 z"
         style="font-family:'Super Mario 256';-inkscape-font-specification:'Super Mario 256, ';fill:#ff7f2a;stroke:none;stroke-width:0.519733;stroke-miterlimit:4;stroke-dasharray:none"
         id="path16668" />
      <path
         style="fill:#ff7f2a;stroke:none;stroke-width:0.582216;stroke-linecap:butt;stroke-linejoin:miter;stroke-miterlimit:4;stroke-dasharray:none;stroke-opacity:1"
         d="m 124.23115,246.25415 3.05951,-4.0471 4.45203,5.95064 4.86624,-5.4056 2.95635,5.24031 -7.79256,5.45207 z"
         id="path16670" />
    </g>
  </g>
  <g
     inkscape:label="Edge.Cuts"
     inkscape:groupmode="layer"
     id="g1916">
    <path
       sodipodi:nodetypes="ccccccccccccccccccccccccccccccccsccccscccccsccccccccccccccccscc"
       inkscape:connector-curvature="0"
       id="path16660-7"
       d="M 14.8911 32.9864 L 14.2498 34.0416 L 14.1781 34.1544 L 14.0885 34.2484 L 13.9844 34.3224 L 13.8691 34.3754 L 13.746 34.406 L 13.6184 34.4132 L 13.4897 34.3958 L 13.3634 34.3525 L 12.3855 33.9069 L 12.2219 33.8561 L 12.0534 33.8477 L 11.888 33.8812 L 11.7338 33.9559 L 8.70137 35.9325 L 8.59777 35.9879 L 8.48865 36.024 L 8.37647 36.041 L 8.2637 36.0392 L 8.15278 36.0187 L 8.04617 35.9799 L 7.94633 35.9229 L 7.85571 35.8481 L 5.15679 33.1972 L 5.07857 33.1055 L 5.01906 33.0038 L 4.97852 32.8949 L 4.95722 32.7814 L 4.95543 32.6659 L 4.97341 32.5511 L 5.01143 32.4396 L 5.06975 32.334 L 7.11684 29.2991 L 7.19244 29.1503 L 7.22915 28.99 L 7.22622 28.8255 L 7.18286 28.6644 L 5.9009 25.5106 L 5.8199 25.3654 L 5.70784 25.2459 L 5.57038 25.1566 L 5.41318 25.1025 L 1.65346 24.3057 L 1.54036 24.2713 L 1.43722 24.2191 L 1.3456 24.151 L 1.2671 24.0692 L 1.20328 23.9754 L 1.15574 23.8717 L 1.12606 23.7599 L 1.11581 23.6422 L 1.11581 20.0254 L 1.1258 19.9091 L 1.15475 19.7987 L 1.20116 19.696 L 1.26352 19.6029 L 1.34032 19.5212 L 1.43006 19.453 L 1.53122 19.4001 L 1.64231 19.3643 L 5.67538 18.4383 L 5.82859 18.3831 L 5.9625 18.2944 L 6.0718 18.1767 L 6.1512 18.0345 L 7.31486 15.1954 L 7.35877 15.0337 L 7.36196 14.8687 L 7.32521 14.7077 L 7.24929 14.5584 L 5.07555 11.3408 L 5.01713 11.2353 L 4.97902 11.1238 L 4.96097 11.0089 L 4.96271 10.8934 L 4.98397 10.7798 L 5.02448 10.6708 L 5.08399 10.5691 L 5.16223 10.4773 L 7.86497 7.82175 L 7.95434 7.74778 L 8.05276 7.69121 L 8.15788 7.65227 L 8.26733 7.63124 L 8.37875 7.62836 L 8.48977 7.64389 L 8.59802 7.6781 L 8.70115 7.73122 L 12.2628 9.96866 L 12.4081 10.0374 L 12.5633 10.0699 L 12.7218 10.0654 L 12.877 10.0235 L 15.495 8.96927 L 15.6404 8.88879 L 15.7603 8.77719 L 15.85 8.64011 L 15.9046 8.4832 L 16.7646 4.49877 L 16.7989 4.38731 L 16.8504 4.28552 L 16.9174 4.19494 L 16.9979 4.1171 L 17.0901 4.05352 L 17.1921 4.00573 L 17.3021 3.97527 L 17.4181 3.96366 L 21.3087 3.90875 L 21.4269 3.91738 L 21.5393 3.94561 L 21.6438 3.99188 L 21.7386 4.05463 L 21.8216 4.13228 L 21.8909 4.22327 L 21.9444 4.32603 L 21.9802 4.43899 L 22.8834 8.47945 L 22.9387 8.63489 L 23.0284 8.7706 L 23.1478 8.88106 L 23.2923 8.96077 L 25.9219 10.0184 L 26.0751 10.06 L 26.2317 10.065 L 26.3853 10.0339 L 26.5294 9.96737 L 30.1635 7.74027 L 30.2681 7.68794 L 30.3776 7.6549 L 30.4897 7.64087 L 30.6019 7.64554 L 30.7118 7.66861 L 30.817 7.70977 L 30.9151 7.76873 L 31.0036 7.84518 L 33.6458 10.5562 L 33.7204 10.6473 L 33.777 10.7476 L 33.8154 10.8546 L 33.8353 10.9659 L 33.8365 11.0789 L 33.8188 11.1912 L 33.7819 11.3003 L 33.7257 11.4038 L 31.533 14.7181 L 31.4566 14.8736 L 31.4224 15.0408 L 31.4309 15.2112 L 31.4828 15.3766 L 32.7679 18.1609 L 32.8506 18.2959 L 32.9607 18.4068 L 33.0933 18.4896 L 33.2433 18.5402 L 37.1283 19.3623 L 37.2422 19.397 L 37.346 19.4498 L 37.438 19.5185 L 37.5167 19.6012 L 37.5805 19.696 L 37.6277 19.8007 L 37.6568 19.9134 L 37.6661 20.0321 L 37.6323 23.7038 L 37.6209 23.8218 L 37.59 23.9335 L 37.5412 24.037 L 37.4762 24.1303 L 37.3966 24.2115 L 37.3039 24.2786 L 37.1999 24.3297 L 37.086 24.3628 L 33.3816 25.0978 L 33.2217 25.1508 L 33.0817 25.2401 L 32.9676 25.3606 L 32.8853 25.5076 L 31.605 28.657 L 31.5616 28.8182 L 31.5587 28.9827 L 31.5954 29.1431 L 31.6711 29.2919 L 33.7191 32.3263 L 33.7774 32.4318 L 33.8155 32.5433 L 33.8335 32.6581 L 33.8317 32.7736 L 33.8105 32.8871 L 33.77 32.996 L 33.7105 33.0977 L 33.6323 33.1895 L 30.9266 35.8488 L 30.8375 35.9226 L 30.7394 35.9791 L 30.6345 36.0181 L 30.5254 36.0393 L 30.4142 36.0423 L 30.3034 36.0271 L 30.1953 35.9933 L 30.0923 35.9406 L 26.8761 33.9347 L 26.7203 33.863 L 26.5541 33.8329 L 26.3856 33.8448 L 26.223 33.899 L 25.3938 34.2982 L 25.2611 34.346 L 25.1258 34.3651 L 24.9918 34.3569 L 24.863 34.3228 L 24.7433 34.2644 L 24.6365 34.183 L 24.5466 34.0802 L 24.4774 33.9573 L 23.7905 32.9233 L 23.2648 33.0803 L 22.7352 33.2177 L 22.2017 33.3353 L 21.6641 33.4328 L 21.1225 33.5102 L 20.5769 33.5673 L 20.0272 33.6039 L 19.4734 33.6199 L 18.9154 33.615 L 18.3533 33.5893 L 17.7869 33.5424 L 17.2164 33.4744 L 16.6415 33.3849 L 16.0624 33.2738 L 15.4789 33.141 L 14.8911 32.9864 L 14.8911 32.9864"
       style="fill:none;fill-rule:evenodd;stroke:#ff0000;stroke-width:0.05;stroke-linecap:round;stroke-linejoin:miter;stroke-miterlimit:4;stroke-dasharray:none;stroke-opacity:1"
       inkscape:export-filename="/home/dusjagr/Documents/3dPrinting/KONS/UROS_Batch.png"
       inkscape:export-xdpi="299.965"
       inkscape:export-ydpi="299.965" />
    <path
       id="path2421"
       style="fill:#ffffff;stroke:#ff0000;stroke-width:0.05;stop-color:#000000"
       d="M 20.5696 7.07431 L 20.5463 7.3097 L 20.4782 7.53389 L 20.3678 7.74059 L 20.2178 7.92351 L 20.0349 8.07348 L 19.8282 8.18384 L 19.604 8.25196 L 19.3686 8.27525 L 19.1266 8.25085 L 18.9012 8.18088 L 18.6972 8.07015 L 18.5194 7.92351 L 18.3728 7.74577 L 18.2621 7.54177 L 18.1921 7.31634 L 18.1677 7.07431 L 18.1921 6.83228 L 18.2621 6.60685 L 18.3728 6.40285 L 18.5194 6.22512 L 18.6972 6.07847 L 18.9012 5.96775 L 19.1266 5.89777 L 19.3686 5.87337 L 19.6107 5.89777 L 19.8361 5.96775 L 20.0401 6.07847 L 20.2178 6.22512 L 20.3645 6.40285 L 20.4752 6.60685 L 20.5452 6.83228 L 20.5696 7.07431 L 20.5696 7.07431" />
  </g>
  <g
     inkscape:label="B.Cu"
     inkscape:groupmode="layer"
     id="g1918" />
  <g
     inkscape:label="B.Mask"
     inkscape:groupmode="layer"
     id="g1920" />
  <g
     inkscape:label="B.SilkS"
     inkscape:groupmode="layer"
     id="g1922" />
  <g
     inkscape:label="F.Cu"
     inkscape:groupmode="layer"
     id="g1924"
     style="display:inline" />
  <g
     inkscape:label="F.Mask-auto"
     inkscape:groupmode="layer"
     id="g1926"
     style="display:inline" />
  <g
     inkscape:label="F.SilkS"
     inkscape:groupmode="layer"
     id="g1928" />
  <g
     inkscape:label="Dwgs.User"
     inkscape:groupmode="layer"
     id="g1930" />
  <g
     inkscape:label="Drill"
     inkscape:groupmode="layer"
     id="g1932" />
</svg>
