%TF.GenerationSoftware,KiCad,Pcbnew,5.1.10-88a1d61d58~90~ubuntu20.04.1*%
%TF.CreationDate,2021-10-08T11:48:54+02:00*%
%TF.ProjectId,UROS_CO2-brkout,55524f53-5f43-44f3-922d-62726b6f7574,rev?*%
%TF.SameCoordinates,Original*%
%TF.FileFunction,Profile,NP*%
%FSLAX46Y46*%
G04 Gerber Fmt 4.6, Leading zero omitted, Abs format (unit mm)*
G04 Created by KiCad (PCBNEW 5.1.10-88a1d61d58~90~ubuntu20.04.1) date 2021-10-08 11:48:54*
%MOMM*%
%LPD*%
G01*
G04 APERTURE LIST*
%TA.AperFunction,Profile*%
%ADD10C,0.100000*%
%TD*%
G04 APERTURE END LIST*
D10*
%TO.C,Board1*%
X76679100Y-85122400D02*
X76037800Y-86177600D01*
X76037800Y-86177600D02*
X75966100Y-86290400D01*
X75966100Y-86290400D02*
X75876500Y-86384400D01*
X75876500Y-86384400D02*
X75772400Y-86458400D01*
X75772400Y-86458400D02*
X75657100Y-86511400D01*
X75657100Y-86511400D02*
X75534000Y-86542000D01*
X75534000Y-86542000D02*
X75406400Y-86549200D01*
X75406400Y-86549200D02*
X75277700Y-86531800D01*
X75277700Y-86531800D02*
X75151400Y-86488500D01*
X75151400Y-86488500D02*
X74173500Y-86042900D01*
X74173500Y-86042900D02*
X74009900Y-85992100D01*
X74009900Y-85992100D02*
X73841400Y-85983700D01*
X73841400Y-85983700D02*
X73676000Y-86017200D01*
X73676000Y-86017200D02*
X73521800Y-86091900D01*
X73521800Y-86091900D02*
X70489370Y-88068500D01*
X70489370Y-88068500D02*
X70385770Y-88123900D01*
X70385770Y-88123900D02*
X70276650Y-88160000D01*
X70276650Y-88160000D02*
X70164470Y-88177000D01*
X70164470Y-88177000D02*
X70051700Y-88175200D01*
X70051700Y-88175200D02*
X69940780Y-88154700D01*
X69940780Y-88154700D02*
X69834170Y-88115900D01*
X69834170Y-88115900D02*
X69734330Y-88058900D01*
X69734330Y-88058900D02*
X69643710Y-87984100D01*
X69643710Y-87984100D02*
X66944790Y-85333200D01*
X66944790Y-85333200D02*
X66866570Y-85241500D01*
X66866570Y-85241500D02*
X66807060Y-85139800D01*
X66807060Y-85139800D02*
X66766520Y-85030900D01*
X66766520Y-85030900D02*
X66745220Y-84917400D01*
X66745220Y-84917400D02*
X66743430Y-84801900D01*
X66743430Y-84801900D02*
X66761410Y-84687100D01*
X66761410Y-84687100D02*
X66799430Y-84575600D01*
X66799430Y-84575600D02*
X66857750Y-84470000D01*
X66857750Y-84470000D02*
X68904840Y-81435100D01*
X68904840Y-81435100D02*
X68980440Y-81286300D01*
X68980440Y-81286300D02*
X69017150Y-81126000D01*
X69017150Y-81126000D02*
X69014220Y-80961500D01*
X69014220Y-80961500D02*
X68970860Y-80800400D01*
X68970860Y-80800400D02*
X67688900Y-77646600D01*
X67688900Y-77646600D02*
X67607900Y-77501400D01*
X67607900Y-77501400D02*
X67495840Y-77381900D01*
X67495840Y-77381900D02*
X67358380Y-77292600D01*
X67358380Y-77292600D02*
X67201180Y-77238500D01*
X67201180Y-77238500D02*
X63441460Y-76441700D01*
X63441460Y-76441700D02*
X63328360Y-76407300D01*
X63328360Y-76407300D02*
X63225220Y-76355100D01*
X63225220Y-76355100D02*
X63133600Y-76287000D01*
X63133600Y-76287000D02*
X63055100Y-76205200D01*
X63055100Y-76205200D02*
X62991280Y-76111400D01*
X62991280Y-76111400D02*
X62943740Y-76007700D01*
X62943740Y-76007700D02*
X62914060Y-75895900D01*
X62914060Y-75895900D02*
X62903810Y-75778200D01*
X62903810Y-75778200D02*
X62903810Y-72161400D01*
X62903810Y-72161400D02*
X62913800Y-72045100D01*
X62913800Y-72045100D02*
X62942750Y-71934700D01*
X62942750Y-71934700D02*
X62989160Y-71832000D01*
X62989160Y-71832000D02*
X63051520Y-71738900D01*
X63051520Y-71738900D02*
X63128320Y-71657200D01*
X63128320Y-71657200D02*
X63218060Y-71589000D01*
X63218060Y-71589000D02*
X63319220Y-71536100D01*
X63319220Y-71536100D02*
X63430310Y-71500300D01*
X63430310Y-71500300D02*
X67463380Y-70574300D01*
X67463380Y-70574300D02*
X67616590Y-70519100D01*
X67616590Y-70519100D02*
X67750500Y-70430400D01*
X67750500Y-70430400D02*
X67859800Y-70312700D01*
X67859800Y-70312700D02*
X67939200Y-70170500D01*
X67939200Y-70170500D02*
X69102860Y-67331400D01*
X69102860Y-67331400D02*
X69146770Y-67169700D01*
X69146770Y-67169700D02*
X69149960Y-67004700D01*
X69149960Y-67004700D02*
X69113210Y-66843700D01*
X69113210Y-66843700D02*
X69037290Y-66694400D01*
X69037290Y-66694400D02*
X66863550Y-63476800D01*
X66863550Y-63476800D02*
X66805130Y-63371300D01*
X66805130Y-63371300D02*
X66767020Y-63259800D01*
X66767020Y-63259800D02*
X66748970Y-63144900D01*
X66748970Y-63144900D02*
X66750710Y-63029400D01*
X66750710Y-63029400D02*
X66771970Y-62915800D01*
X66771970Y-62915800D02*
X66812480Y-62806800D01*
X66812480Y-62806800D02*
X66871990Y-62705100D01*
X66871990Y-62705100D02*
X66950230Y-62613300D01*
X66950230Y-62613300D02*
X69652970Y-59957750D01*
X69652970Y-59957750D02*
X69742340Y-59883780D01*
X69742340Y-59883780D02*
X69840760Y-59827210D01*
X69840760Y-59827210D02*
X69945880Y-59788270D01*
X69945880Y-59788270D02*
X70055330Y-59767240D01*
X70055330Y-59767240D02*
X70166750Y-59764360D01*
X70166750Y-59764360D02*
X70277770Y-59779890D01*
X70277770Y-59779890D02*
X70386020Y-59814100D01*
X70386020Y-59814100D02*
X70489150Y-59867220D01*
X70489150Y-59867220D02*
X74050800Y-62104660D01*
X74050800Y-62104660D02*
X74196100Y-62173400D01*
X74196100Y-62173400D02*
X74351300Y-62205900D01*
X74351300Y-62205900D02*
X74509800Y-62201400D01*
X74509800Y-62201400D02*
X74665000Y-62159500D01*
X74665000Y-62159500D02*
X77283000Y-61105270D01*
X77283000Y-61105270D02*
X77428400Y-61024790D01*
X77428400Y-61024790D02*
X77548300Y-60913190D01*
X77548300Y-60913190D02*
X77638000Y-60776110D01*
X77638000Y-60776110D02*
X77692600Y-60619200D01*
X77692600Y-60619200D02*
X78552600Y-56634770D01*
X78552600Y-56634770D02*
X78586900Y-56523310D01*
X78586900Y-56523310D02*
X78638400Y-56421520D01*
X78638400Y-56421520D02*
X78705400Y-56330940D01*
X78705400Y-56330940D02*
X78785900Y-56253100D01*
X78785900Y-56253100D02*
X78878100Y-56189520D01*
X78878100Y-56189520D02*
X78980100Y-56141730D01*
X78980100Y-56141730D02*
X79090100Y-56111270D01*
X79090100Y-56111270D02*
X79206100Y-56099660D01*
X79206100Y-56099660D02*
X83096700Y-56044750D01*
X83096700Y-56044750D02*
X83214900Y-56053380D01*
X83214900Y-56053380D02*
X83327300Y-56081610D01*
X83327300Y-56081610D02*
X83431800Y-56127880D01*
X83431800Y-56127880D02*
X83526600Y-56190630D01*
X83526600Y-56190630D02*
X83609600Y-56268280D01*
X83609600Y-56268280D02*
X83678900Y-56359270D01*
X83678900Y-56359270D02*
X83732400Y-56462030D01*
X83732400Y-56462030D02*
X83768200Y-56574990D01*
X83768200Y-56574990D02*
X84671400Y-60615450D01*
X84671400Y-60615450D02*
X84726700Y-60770890D01*
X84726700Y-60770890D02*
X84816400Y-60906600D01*
X84816400Y-60906600D02*
X84935800Y-61017060D01*
X84935800Y-61017060D02*
X85080300Y-61096770D01*
X85080300Y-61096770D02*
X87709900Y-62154400D01*
X87709900Y-62154400D02*
X87863100Y-62196000D01*
X87863100Y-62196000D02*
X88019700Y-62201000D01*
X88019700Y-62201000D02*
X88173300Y-62169900D01*
X88173300Y-62169900D02*
X88317400Y-62103370D01*
X88317400Y-62103370D02*
X91951500Y-59876270D01*
X91951500Y-59876270D02*
X92056100Y-59823940D01*
X92056100Y-59823940D02*
X92165600Y-59790900D01*
X92165600Y-59790900D02*
X92277700Y-59776870D01*
X92277700Y-59776870D02*
X92389900Y-59781540D01*
X92389900Y-59781540D02*
X92499800Y-59804610D01*
X92499800Y-59804610D02*
X92605000Y-59845770D01*
X92605000Y-59845770D02*
X92703100Y-59904730D01*
X92703100Y-59904730D02*
X92791600Y-59981180D01*
X92791600Y-59981180D02*
X95433800Y-62692200D01*
X95433800Y-62692200D02*
X95508400Y-62783300D01*
X95508400Y-62783300D02*
X95565000Y-62883600D01*
X95565000Y-62883600D02*
X95603400Y-62990600D01*
X95603400Y-62990600D02*
X95623300Y-63101900D01*
X95623300Y-63101900D02*
X95624500Y-63214900D01*
X95624500Y-63214900D02*
X95606800Y-63327200D01*
X95606800Y-63327200D02*
X95569900Y-63436300D01*
X95569900Y-63436300D02*
X95513700Y-63539800D01*
X95513700Y-63539800D02*
X93321000Y-66854100D01*
X93321000Y-66854100D02*
X93244600Y-67009600D01*
X93244600Y-67009600D02*
X93210400Y-67176800D01*
X93210400Y-67176800D02*
X93218900Y-67347200D01*
X93218900Y-67347200D02*
X93270800Y-67512600D01*
X93270800Y-67512600D02*
X94555900Y-70296900D01*
X94555900Y-70296900D02*
X94638600Y-70431900D01*
X94638600Y-70431900D02*
X94748700Y-70542800D01*
X94748700Y-70542800D02*
X94881300Y-70625600D01*
X94881300Y-70625600D02*
X95031300Y-70676200D01*
X95031300Y-70676200D02*
X98916300Y-71498300D01*
X98916300Y-71498300D02*
X99030200Y-71533000D01*
X99030200Y-71533000D02*
X99134000Y-71585800D01*
X99134000Y-71585800D02*
X99226000Y-71654500D01*
X99226000Y-71654500D02*
X99304700Y-71737200D01*
X99304700Y-71737200D02*
X99368500Y-71832000D01*
X99368500Y-71832000D02*
X99415700Y-71936700D01*
X99415700Y-71936700D02*
X99444800Y-72049400D01*
X99444800Y-72049400D02*
X99454100Y-72168100D01*
X99454100Y-72168100D02*
X99420300Y-75839800D01*
X99420300Y-75839800D02*
X99408900Y-75957800D01*
X99408900Y-75957800D02*
X99378000Y-76069500D01*
X99378000Y-76069500D02*
X99329200Y-76173000D01*
X99329200Y-76173000D02*
X99264200Y-76266300D01*
X99264200Y-76266300D02*
X99184600Y-76347500D01*
X99184600Y-76347500D02*
X99091900Y-76414600D01*
X99091900Y-76414600D02*
X98987900Y-76465700D01*
X98987900Y-76465700D02*
X98874000Y-76498800D01*
X98874000Y-76498800D02*
X95169600Y-77233800D01*
X95169600Y-77233800D02*
X95009700Y-77286800D01*
X95009700Y-77286800D02*
X94869700Y-77376100D01*
X94869700Y-77376100D02*
X94755600Y-77496600D01*
X94755600Y-77496600D02*
X94673300Y-77643600D01*
X94673300Y-77643600D02*
X93393000Y-80793000D01*
X93393000Y-80793000D02*
X93349600Y-80954200D01*
X93349600Y-80954200D02*
X93346700Y-81118700D01*
X93346700Y-81118700D02*
X93383400Y-81279100D01*
X93383400Y-81279100D02*
X93459100Y-81427900D01*
X93459100Y-81427900D02*
X95507100Y-84462300D01*
X95507100Y-84462300D02*
X95565400Y-84567800D01*
X95565400Y-84567800D02*
X95603500Y-84679300D01*
X95603500Y-84679300D02*
X95621500Y-84794100D01*
X95621500Y-84794100D02*
X95619700Y-84909600D01*
X95619700Y-84909600D02*
X95598500Y-85023100D01*
X95598500Y-85023100D02*
X95558000Y-85132000D01*
X95558000Y-85132000D02*
X95498500Y-85233700D01*
X95498500Y-85233700D02*
X95420300Y-85325500D01*
X95420300Y-85325500D02*
X92714600Y-87984800D01*
X92714600Y-87984800D02*
X92625500Y-88058600D01*
X92625500Y-88058600D02*
X92527400Y-88115100D01*
X92527400Y-88115100D02*
X92422500Y-88154100D01*
X92422500Y-88154100D02*
X92313400Y-88175300D01*
X92313400Y-88175300D02*
X92202200Y-88178300D01*
X92202200Y-88178300D02*
X92091400Y-88163100D01*
X92091400Y-88163100D02*
X91983300Y-88129300D01*
X91983300Y-88129300D02*
X91880300Y-88076600D01*
X91880300Y-88076600D02*
X88664100Y-86070700D01*
X88664100Y-86070700D02*
X88508300Y-85999000D01*
X88508300Y-85999000D02*
X88342100Y-85968900D01*
X88342100Y-85968900D02*
X88173600Y-85980800D01*
X88173600Y-85980800D02*
X88011000Y-86035000D01*
X88011000Y-86035000D02*
X87181800Y-86434200D01*
X87181800Y-86434200D02*
X87049100Y-86482000D01*
X87049100Y-86482000D02*
X86913800Y-86501100D01*
X86913800Y-86501100D02*
X86779800Y-86492900D01*
X86779800Y-86492900D02*
X86651000Y-86458800D01*
X86651000Y-86458800D02*
X86531300Y-86400400D01*
X86531300Y-86400400D02*
X86424500Y-86319000D01*
X86424500Y-86319000D02*
X86334600Y-86216200D01*
X86334600Y-86216200D02*
X86265400Y-86093300D01*
X86265400Y-86093300D02*
X85578500Y-85059300D01*
X85578500Y-85059300D02*
X85052800Y-85216300D01*
X85052800Y-85216300D02*
X84523200Y-85353700D01*
X84523200Y-85353700D02*
X83989700Y-85471300D01*
X83989700Y-85471300D02*
X83452100Y-85568800D01*
X83452100Y-85568800D02*
X82910500Y-85646200D01*
X82910500Y-85646200D02*
X82364900Y-85703300D01*
X82364900Y-85703300D02*
X81815200Y-85739900D01*
X81815200Y-85739900D02*
X81261400Y-85755900D01*
X81261400Y-85755900D02*
X80703400Y-85751000D01*
X80703400Y-85751000D02*
X80141300Y-85725300D01*
X80141300Y-85725300D02*
X79574900Y-85678400D01*
X79574900Y-85678400D02*
X79004400Y-85610400D01*
X79004400Y-85610400D02*
X78429500Y-85520900D01*
X78429500Y-85520900D02*
X77850400Y-85409800D01*
X77850400Y-85409800D02*
X77266900Y-85277000D01*
X77266900Y-85277000D02*
X76679100Y-85122400D01*
X76679100Y-85122400D02*
X76679100Y-85122400D01*
X76679100Y-85122400D02*
X76679100Y-85122400D01*
X82357600Y-59210310D02*
X82334300Y-59445700D01*
X82334300Y-59445700D02*
X82266200Y-59669890D01*
X82266200Y-59669890D02*
X82155800Y-59876590D01*
X82155800Y-59876590D02*
X82005800Y-60059510D01*
X82005800Y-60059510D02*
X81822900Y-60209480D01*
X81822900Y-60209480D02*
X81616200Y-60319840D01*
X81616200Y-60319840D02*
X81392000Y-60387960D01*
X81392000Y-60387960D02*
X81156600Y-60411250D01*
X81156600Y-60411250D02*
X80914600Y-60386850D01*
X80914600Y-60386850D02*
X80689200Y-60316880D01*
X80689200Y-60316880D02*
X80485200Y-60206150D01*
X80485200Y-60206150D02*
X80307400Y-60059510D01*
X80307400Y-60059510D02*
X80160800Y-59881770D01*
X80160800Y-59881770D02*
X80050100Y-59677770D01*
X80050100Y-59677770D02*
X79980100Y-59452340D01*
X79980100Y-59452340D02*
X79955700Y-59210310D01*
X79955700Y-59210310D02*
X79980100Y-58968280D01*
X79980100Y-58968280D02*
X80050100Y-58742850D01*
X80050100Y-58742850D02*
X80160800Y-58538850D01*
X80160800Y-58538850D02*
X80307400Y-58361120D01*
X80307400Y-58361120D02*
X80485200Y-58214470D01*
X80485200Y-58214470D02*
X80689200Y-58103750D01*
X80689200Y-58103750D02*
X80914600Y-58033770D01*
X80914600Y-58033770D02*
X81156600Y-58009370D01*
X81156600Y-58009370D02*
X81398700Y-58033770D01*
X81398700Y-58033770D02*
X81624100Y-58103750D01*
X81624100Y-58103750D02*
X81828100Y-58214470D01*
X81828100Y-58214470D02*
X82005800Y-58361120D01*
X82005800Y-58361120D02*
X82152500Y-58538850D01*
X82152500Y-58538850D02*
X82263200Y-58742850D01*
X82263200Y-58742850D02*
X82333200Y-58968280D01*
X82333200Y-58968280D02*
X82357600Y-59210310D01*
X82357600Y-59210310D02*
X82357600Y-59210310D01*
X82357600Y-59210310D02*
X82357600Y-59210310D01*
%TD*%
M02*
