%TF.GenerationSoftware,KiCad,Pcbnew,5.1.10-88a1d61d58~90~ubuntu20.04.1*%
%TF.CreationDate,2021-10-08T11:48:54+02:00*%
%TF.ProjectId,UROS_CO2-brkout,55524f53-5f43-44f3-922d-62726b6f7574,rev?*%
%TF.SameCoordinates,Original*%
%TF.FileFunction,Soldermask,Bot*%
%TF.FilePolarity,Negative*%
%FSLAX46Y46*%
G04 Gerber Fmt 4.6, Leading zero omitted, Abs format (unit mm)*
G04 Created by KiCad (PCBNEW 5.1.10-88a1d61d58~90~ubuntu20.04.1) date 2021-10-08 11:48:54*
%MOMM*%
%LPD*%
G01*
G04 APERTURE LIST*
%ADD10C,0.010000*%
%ADD11C,0.883477*%
%ADD12C,1.803400*%
%ADD13R,1.700000X1.700000*%
%ADD14R,1.800000X1.000000*%
G04 APERTURE END LIST*
D10*
%TO.C,Board3*%
G36*
X83740414Y-55377722D02*
G01*
X83904704Y-55467594D01*
X84066597Y-55576382D01*
X84145202Y-55640038D01*
X84218646Y-55709034D01*
X84283361Y-55778832D01*
X84341713Y-55856668D01*
X84396068Y-55949778D01*
X84448792Y-56065401D01*
X84502251Y-56210773D01*
X84558810Y-56393131D01*
X84620837Y-56619712D01*
X84690697Y-56897753D01*
X84770756Y-57234490D01*
X84863379Y-57637162D01*
X84970934Y-58113004D01*
X85008825Y-58281613D01*
X85100288Y-58686792D01*
X85186990Y-59066762D01*
X85267043Y-59413535D01*
X85338560Y-59719122D01*
X85399652Y-59975536D01*
X85448431Y-60174788D01*
X85483009Y-60308891D01*
X85501498Y-60369856D01*
X85503046Y-60372522D01*
X85548760Y-60395266D01*
X85663282Y-60445420D01*
X85836830Y-60518898D01*
X86059622Y-60611612D01*
X86321875Y-60719475D01*
X86613809Y-60838401D01*
X86751414Y-60894098D01*
X87968329Y-61385680D01*
X89772438Y-60279348D01*
X90133438Y-60058589D01*
X90478224Y-59848925D01*
X90798957Y-59655042D01*
X91087798Y-59481624D01*
X91336906Y-59333357D01*
X91538443Y-59214927D01*
X91684568Y-59131019D01*
X91767441Y-59086318D01*
X91772857Y-59083769D01*
X91914156Y-59032565D01*
X92075474Y-59004031D01*
X92286140Y-58993389D01*
X92329890Y-58993011D01*
X92520601Y-58995836D01*
X92660771Y-59011022D01*
X92784370Y-59045777D01*
X92925365Y-59107307D01*
X92969266Y-59128680D01*
X93038847Y-59165555D01*
X93110842Y-59210601D01*
X93191109Y-59269311D01*
X93285505Y-59347179D01*
X93399887Y-59449700D01*
X93540113Y-59582366D01*
X93712039Y-59750673D01*
X93921525Y-59960115D01*
X94174426Y-60216185D01*
X94476600Y-60524377D01*
X94689030Y-60741755D01*
X94980045Y-61041061D01*
X95255977Y-61327282D01*
X95510508Y-61593696D01*
X95737319Y-61833578D01*
X95930094Y-62040203D01*
X96082515Y-62206848D01*
X96188263Y-62326789D01*
X96241021Y-62393302D01*
X96241516Y-62394078D01*
X96386108Y-62700763D01*
X96455014Y-63036870D01*
X96447011Y-63391520D01*
X96385817Y-63676613D01*
X96351546Y-63748492D01*
X96274649Y-63883103D01*
X96159826Y-64072974D01*
X96011778Y-64310633D01*
X95835204Y-64588606D01*
X95634806Y-64899422D01*
X95415283Y-65235609D01*
X95202675Y-65557565D01*
X94073424Y-67258645D01*
X94665195Y-68543739D01*
X94808071Y-68852293D01*
X94941474Y-69137121D01*
X95060892Y-69388841D01*
X95161813Y-69598070D01*
X95239726Y-69755427D01*
X95290119Y-69851529D01*
X95306400Y-69877137D01*
X95356746Y-69895367D01*
X95481652Y-69928703D01*
X95672739Y-69975230D01*
X95921629Y-70033033D01*
X96219944Y-70100196D01*
X96559305Y-70174805D01*
X96931335Y-70254944D01*
X97303167Y-70333568D01*
X97849260Y-70449266D01*
X98313886Y-70550418D01*
X98698910Y-70637464D01*
X99006193Y-70710848D01*
X99237599Y-70771009D01*
X99394991Y-70818392D01*
X99467439Y-70846696D01*
X99676899Y-70980732D01*
X99883783Y-71169339D01*
X100062132Y-71385715D01*
X100174244Y-71576471D01*
X100196863Y-71628039D01*
X100215529Y-71681240D01*
X100230687Y-71744509D01*
X100242786Y-71826283D01*
X100252273Y-71934998D01*
X100259594Y-72079088D01*
X100265197Y-72266991D01*
X100269530Y-72507142D01*
X100273039Y-72807977D01*
X100276172Y-73177931D01*
X100278850Y-73549613D01*
X100281693Y-74112001D01*
X100281554Y-74596511D01*
X100278041Y-75009888D01*
X100270762Y-75358882D01*
X100259325Y-75650239D01*
X100243340Y-75890706D01*
X100222413Y-76087033D01*
X100196152Y-76245966D01*
X100164167Y-76374253D01*
X100126065Y-76478641D01*
X100106314Y-76520616D01*
X99941161Y-76775482D01*
X99728169Y-76997737D01*
X99490421Y-77164440D01*
X99426411Y-77196302D01*
X99321109Y-77232374D01*
X99135614Y-77281962D01*
X98873191Y-77344334D01*
X98537106Y-77418757D01*
X98130624Y-77504497D01*
X97657011Y-77600823D01*
X97366667Y-77658527D01*
X96981986Y-77734852D01*
X96622058Y-77807111D01*
X96295578Y-77873496D01*
X96011245Y-77932200D01*
X95777756Y-77981416D01*
X95603811Y-78019335D01*
X95498107Y-78044151D01*
X95469266Y-78052817D01*
X95445646Y-78094905D01*
X95394436Y-78204907D01*
X95320031Y-78372343D01*
X95226826Y-78586734D01*
X95119216Y-78837601D01*
X95001595Y-79114465D01*
X94878360Y-79406846D01*
X94753903Y-79704266D01*
X94632622Y-79996246D01*
X94518910Y-80272306D01*
X94417163Y-80521967D01*
X94331775Y-80734750D01*
X94267141Y-80900176D01*
X94227657Y-81007765D01*
X94220326Y-81030734D01*
X94241678Y-81070189D01*
X94305766Y-81172250D01*
X94407711Y-81329515D01*
X94542629Y-81534586D01*
X94705638Y-81780062D01*
X94891856Y-82058542D01*
X95096401Y-82362627D01*
X95207667Y-82527347D01*
X95425747Y-82851294D01*
X95632755Y-83161743D01*
X95822961Y-83449886D01*
X95990635Y-83706914D01*
X96130045Y-83924020D01*
X96235463Y-84092394D01*
X96301157Y-84203230D01*
X96315125Y-84229678D01*
X96424791Y-84546332D01*
X96459943Y-84878588D01*
X96421820Y-85208887D01*
X96311663Y-85519674D01*
X96212134Y-85688576D01*
X96154648Y-85757569D01*
X96043076Y-85878856D01*
X95884021Y-86045693D01*
X95684086Y-86251337D01*
X95449874Y-86489045D01*
X95187987Y-86752072D01*
X94905028Y-87033676D01*
X94612902Y-87321904D01*
X94248072Y-87679955D01*
X93937219Y-87983135D01*
X93674023Y-88236007D01*
X93452163Y-88443138D01*
X93265321Y-88609091D01*
X93107175Y-88738431D01*
X92971407Y-88835723D01*
X92851695Y-88905533D01*
X92741719Y-88952424D01*
X92635161Y-88980962D01*
X92525700Y-88995711D01*
X92407015Y-89001237D01*
X92286667Y-89002096D01*
X92050391Y-88992287D01*
X91852827Y-88964717D01*
X91754111Y-88937425D01*
X91708236Y-88917180D01*
X91639832Y-88881766D01*
X91544513Y-88828500D01*
X91417893Y-88754702D01*
X91255586Y-88657688D01*
X91053206Y-88534777D01*
X90806366Y-88383288D01*
X90510680Y-88200539D01*
X90161763Y-87983848D01*
X89755228Y-87730532D01*
X89286689Y-87437911D01*
X88751759Y-87103303D01*
X88642690Y-87035031D01*
X88321879Y-86834202D01*
X87817190Y-87073351D01*
X87610873Y-87170304D01*
X87459118Y-87236712D01*
X87340008Y-87278354D01*
X87231628Y-87301009D01*
X87112060Y-87310457D01*
X86959389Y-87312478D01*
X86910333Y-87312500D01*
X86615251Y-87296012D01*
X86363551Y-87241020D01*
X86142031Y-87139236D01*
X85937485Y-86982368D01*
X85736709Y-86762127D01*
X85526499Y-86470222D01*
X85496765Y-86425006D01*
X85393818Y-86273709D01*
X85303822Y-86153550D01*
X85238631Y-86079697D01*
X85214419Y-86063667D01*
X85153365Y-86073527D01*
X85033806Y-86099651D01*
X84879145Y-86136856D01*
X84843053Y-86145932D01*
X83795437Y-86368828D01*
X82717790Y-86514999D01*
X81616026Y-86584377D01*
X80496056Y-86576896D01*
X79363793Y-86492488D01*
X78225151Y-86331086D01*
X77682676Y-86227202D01*
X77466993Y-86184798D01*
X77282840Y-86153123D01*
X77144981Y-86134360D01*
X77068179Y-86130691D01*
X77057400Y-86134722D01*
X77031009Y-86183563D01*
X76970030Y-86286925D01*
X76884760Y-86427540D01*
X76823558Y-86526907D01*
X76595232Y-86846133D01*
X76351732Y-87085590D01*
X76085090Y-87249866D01*
X75787337Y-87343551D01*
X75450508Y-87371234D01*
X75362410Y-87368539D01*
X75219756Y-87358071D01*
X75094195Y-87338275D01*
X74964989Y-87302908D01*
X74811402Y-87245727D01*
X74612697Y-87160488D01*
X74493001Y-87106779D01*
X74293446Y-87019532D01*
X74119114Y-86948918D01*
X73985454Y-86900776D01*
X73907909Y-86880944D01*
X73897337Y-86881580D01*
X73851529Y-86908401D01*
X73742559Y-86976616D01*
X73578123Y-87081280D01*
X73365919Y-87217447D01*
X73113642Y-87380172D01*
X72828989Y-87564507D01*
X72519658Y-87765509D01*
X72366044Y-87865563D01*
X72041830Y-88075995D01*
X71733421Y-88274450D01*
X71449390Y-88455538D01*
X71198306Y-88613868D01*
X70988742Y-88744050D01*
X70829268Y-88840693D01*
X70728457Y-88898407D01*
X70706114Y-88909545D01*
X70486888Y-88975532D01*
X70225645Y-89007486D01*
X69958761Y-89003351D01*
X69734480Y-88964501D01*
X69567795Y-88905734D01*
X69403230Y-88829479D01*
X69344889Y-88795990D01*
X69281618Y-88745420D01*
X69165011Y-88641332D01*
X69001666Y-88490009D01*
X68798183Y-88297736D01*
X68561160Y-88070793D01*
X68297197Y-87815466D01*
X68012893Y-87538036D01*
X67714848Y-87244787D01*
X67693932Y-87224118D01*
X67331310Y-86865330D01*
X67024254Y-86559762D01*
X66768040Y-86301186D01*
X66557944Y-86083379D01*
X66389243Y-85900114D01*
X66257213Y-85745165D01*
X66157130Y-85612308D01*
X66084272Y-85495317D01*
X66033913Y-85387966D01*
X66001331Y-85284030D01*
X65981801Y-85177282D01*
X65970601Y-85061499D01*
X65963704Y-84943777D01*
X65958134Y-84749579D01*
X65968898Y-84604097D01*
X66000945Y-84472152D01*
X66047735Y-84346528D01*
X66093157Y-84257886D01*
X66180853Y-84108135D01*
X66305255Y-83906023D01*
X66460797Y-83660295D01*
X66641910Y-83379697D01*
X66843027Y-83072977D01*
X67058582Y-82748880D01*
X67173909Y-82577302D01*
X68197897Y-81059438D01*
X67602867Y-79592802D01*
X67466910Y-79259647D01*
X67339220Y-78950473D01*
X67223625Y-78674272D01*
X67123953Y-78440035D01*
X67044034Y-78256753D01*
X66987696Y-78133417D01*
X66958767Y-78079017D01*
X66957834Y-78077992D01*
X66907167Y-78059580D01*
X66782142Y-78026134D01*
X66591342Y-77979620D01*
X66343350Y-77922006D01*
X66046751Y-77855261D01*
X65710129Y-77781350D01*
X65342065Y-77702244D01*
X65045167Y-77639559D01*
X64614007Y-77548050D01*
X64215470Y-77461161D01*
X63857533Y-77380762D01*
X63548174Y-77308724D01*
X63295370Y-77246916D01*
X63107099Y-77197210D01*
X62991340Y-77161474D01*
X62970833Y-77153258D01*
X62673137Y-76975547D01*
X62434315Y-76737885D01*
X62263528Y-76463696D01*
X62124167Y-76180613D01*
X62124167Y-75008960D01*
X63760304Y-75008960D01*
X63760611Y-75269114D01*
X63761678Y-75474696D01*
X63763490Y-75616768D01*
X63766029Y-75686391D01*
X63767139Y-75692000D01*
X63810131Y-75700500D01*
X63927673Y-75724839D01*
X64111490Y-75763278D01*
X64353310Y-75814076D01*
X64644861Y-75875493D01*
X64977870Y-75945790D01*
X65344063Y-76023225D01*
X65678204Y-76093986D01*
X66177493Y-76201072D01*
X66616822Y-76297945D01*
X66992202Y-76383655D01*
X67299643Y-76457252D01*
X67535156Y-76517785D01*
X67694751Y-76564304D01*
X67766327Y-76591403D01*
X67948000Y-76709282D01*
X68135506Y-76875488D01*
X68298861Y-77061630D01*
X68365454Y-77158756D01*
X68396861Y-77222948D01*
X68456448Y-77356799D01*
X68540506Y-77551537D01*
X68645321Y-77798389D01*
X68767184Y-78088584D01*
X68902382Y-78413351D01*
X69047203Y-78763916D01*
X69133135Y-78973138D01*
X69827016Y-80666167D01*
X69826654Y-81089500D01*
X69823609Y-81297737D01*
X69812235Y-81445816D01*
X69788542Y-81558136D01*
X69748539Y-81659094D01*
X69726252Y-81703333D01*
X69680901Y-81779712D01*
X69593618Y-81917438D01*
X69470099Y-82107858D01*
X69316040Y-82342320D01*
X69137136Y-82612169D01*
X68939082Y-82908753D01*
X68727575Y-83223419D01*
X68653489Y-83333167D01*
X68442889Y-83645252D01*
X68247101Y-83936282D01*
X68071215Y-84198619D01*
X67920327Y-84424628D01*
X67799527Y-84606671D01*
X67713909Y-84737112D01*
X67668566Y-84808314D01*
X67662758Y-84818717D01*
X67687109Y-84859457D01*
X67765230Y-84950524D01*
X67889439Y-85084401D01*
X68052056Y-85253571D01*
X68245401Y-85450517D01*
X68461793Y-85667723D01*
X68693551Y-85897672D01*
X68932996Y-86132848D01*
X69172447Y-86365733D01*
X69404222Y-86588811D01*
X69620643Y-86794565D01*
X69814028Y-86975479D01*
X69976697Y-87124036D01*
X70100969Y-87232719D01*
X70179164Y-87294011D01*
X70202718Y-87304522D01*
X70247947Y-87275575D01*
X70356313Y-87205466D01*
X70520021Y-87099262D01*
X70731274Y-86962026D01*
X70982276Y-86798826D01*
X71265232Y-86614726D01*
X71572345Y-86414792D01*
X71692476Y-86336556D01*
X72010204Y-86130022D01*
X72309887Y-85936003D01*
X72583189Y-85759839D01*
X72821773Y-85606869D01*
X73017304Y-85482431D01*
X73161446Y-85391864D01*
X73245862Y-85340509D01*
X73259350Y-85332994D01*
X73370207Y-85289249D01*
X73525794Y-85243915D01*
X73650804Y-85215432D01*
X73838228Y-85190234D01*
X74022892Y-85193507D01*
X74221691Y-85228791D01*
X74451521Y-85299625D01*
X74729278Y-85409549D01*
X74870397Y-85470931D01*
X75056116Y-85552047D01*
X75213949Y-85618593D01*
X75327756Y-85663933D01*
X75381398Y-85681429D01*
X75382261Y-85681453D01*
X75415524Y-85646673D01*
X75482607Y-85552181D01*
X75574573Y-85411341D01*
X75682482Y-85237515D01*
X75712729Y-85187430D01*
X75858376Y-84946820D01*
X75970864Y-84768034D01*
X76059475Y-84639634D01*
X76133488Y-84550181D01*
X76202182Y-84488237D01*
X76274839Y-84442362D01*
X76344839Y-84408278D01*
X76487341Y-84356545D01*
X76634903Y-84334801D01*
X76807145Y-84343598D01*
X77023688Y-84383491D01*
X77222810Y-84433043D01*
X77980580Y-84611845D01*
X78767916Y-84755505D01*
X79565987Y-84862123D01*
X80355961Y-84929798D01*
X81119007Y-84956628D01*
X81836294Y-84940714D01*
X82084333Y-84923775D01*
X82645773Y-84870458D01*
X83160585Y-84804738D01*
X83654206Y-84721880D01*
X84152071Y-84617149D01*
X84679616Y-84485809D01*
X85174546Y-84348509D01*
X85417214Y-84279091D01*
X85629779Y-84219089D01*
X85799740Y-84171966D01*
X85914592Y-84141185D01*
X85961833Y-84130209D01*
X85962351Y-84130324D01*
X85986065Y-84166103D01*
X86049527Y-84261856D01*
X86145711Y-84406982D01*
X86267591Y-84590880D01*
X86408141Y-84802949D01*
X86444074Y-84857167D01*
X86589857Y-85076578D01*
X86720556Y-85272243D01*
X86828687Y-85433041D01*
X86906764Y-85547849D01*
X86947302Y-85605548D01*
X86950419Y-85609450D01*
X86997751Y-85605100D01*
X87105823Y-85569707D01*
X87259125Y-85509029D01*
X87442144Y-85428822D01*
X87463650Y-85418950D01*
X87666056Y-85326568D01*
X87814795Y-85264120D01*
X87932984Y-85225868D01*
X88043741Y-85206074D01*
X88170183Y-85198999D01*
X88335429Y-85198905D01*
X88349667Y-85199017D01*
X88559779Y-85204550D01*
X88710810Y-85220051D01*
X88828151Y-85249760D01*
X88935051Y-85296811D01*
X89009421Y-85339039D01*
X89147084Y-85421057D01*
X89339591Y-85537688D01*
X89578493Y-85683757D01*
X89855344Y-85854089D01*
X90161695Y-86043508D01*
X90489098Y-86246839D01*
X90683601Y-86368040D01*
X92248935Y-87344658D01*
X93504315Y-86100912D01*
X93772576Y-85834082D01*
X94020755Y-85585190D01*
X94242649Y-85360608D01*
X94432055Y-85166707D01*
X94582772Y-85009859D01*
X94688596Y-84896434D01*
X94743327Y-84832805D01*
X94749597Y-84821666D01*
X94724500Y-84780052D01*
X94656947Y-84675763D01*
X94551904Y-84516269D01*
X94414335Y-84309035D01*
X94249205Y-84061529D01*
X94061478Y-83781219D01*
X93856119Y-83475573D01*
X93743724Y-83308673D01*
X93527187Y-82985850D01*
X93322849Y-82678279D01*
X93136214Y-82394458D01*
X92972784Y-82142885D01*
X92838063Y-81932057D01*
X92737553Y-81770473D01*
X92676758Y-81666629D01*
X92663985Y-81641370D01*
X92585563Y-81389557D01*
X92551709Y-81110011D01*
X92565213Y-80839884D01*
X92593926Y-80708500D01*
X92628124Y-80608711D01*
X92689830Y-80443757D01*
X92774769Y-80224125D01*
X92878666Y-79960300D01*
X92997248Y-79662769D01*
X93126239Y-79342019D01*
X93261364Y-79008536D01*
X93398350Y-78672805D01*
X93532922Y-78345314D01*
X93660804Y-78036548D01*
X93777724Y-77756995D01*
X93879405Y-77517139D01*
X93961574Y-77327469D01*
X94019955Y-77198469D01*
X94044910Y-77148959D01*
X94196619Y-76944796D01*
X94400203Y-76751683D01*
X94624730Y-76598310D01*
X94657162Y-76581087D01*
X94745483Y-76549607D01*
X94912803Y-76504158D01*
X95154785Y-76445722D01*
X95467092Y-76375281D01*
X95845387Y-76293816D01*
X96285332Y-76202308D01*
X96722820Y-76113695D01*
X97110732Y-76036032D01*
X97472366Y-75963717D01*
X97799427Y-75898402D01*
X98083621Y-75841738D01*
X98316657Y-75795379D01*
X98490239Y-75760977D01*
X98596075Y-75740183D01*
X98626558Y-75734441D01*
X98628688Y-75693566D01*
X98630153Y-75576914D01*
X98630954Y-75393371D01*
X98631091Y-75151823D01*
X98630563Y-74861158D01*
X98629370Y-74530262D01*
X98627513Y-74168022D01*
X98626558Y-74012293D01*
X98615500Y-72290253D01*
X96668167Y-71878991D01*
X96178033Y-71774767D01*
X95764493Y-71685158D01*
X95421036Y-71608582D01*
X95141152Y-71543458D01*
X94918332Y-71488202D01*
X94746065Y-71441234D01*
X94617842Y-71400972D01*
X94527154Y-71365833D01*
X94497179Y-71351440D01*
X94386554Y-71290194D01*
X94287842Y-71224330D01*
X94196269Y-71146318D01*
X94107058Y-71048629D01*
X94015433Y-70923735D01*
X93916618Y-70764107D01*
X93805838Y-70562217D01*
X93678315Y-70310536D01*
X93529275Y-70001535D01*
X93353940Y-69627686D01*
X93219382Y-69337187D01*
X93063284Y-68997927D01*
X92916240Y-68675942D01*
X92782590Y-68380919D01*
X92666677Y-68122544D01*
X92572844Y-67910503D01*
X92505432Y-67754482D01*
X92468783Y-67664170D01*
X92466334Y-67657261D01*
X92428002Y-67461831D01*
X92422247Y-67222963D01*
X92446862Y-66974413D01*
X92499639Y-66749934D01*
X92531022Y-66667917D01*
X92570950Y-66595409D01*
X92652765Y-66460440D01*
X92771366Y-66270978D01*
X92921651Y-66034992D01*
X93098519Y-65760453D01*
X93296866Y-65455327D01*
X93511593Y-65127585D01*
X93700006Y-64841968D01*
X94786908Y-63199435D01*
X93548270Y-61931551D01*
X93283783Y-61660986D01*
X93038272Y-61410160D01*
X92817902Y-61185343D01*
X92628832Y-60992806D01*
X92477225Y-60838820D01*
X92369242Y-60729658D01*
X92311046Y-60671589D01*
X92302511Y-60663667D01*
X92266155Y-60685124D01*
X92164685Y-60746638D01*
X92005111Y-60843919D01*
X91794442Y-60972679D01*
X91539689Y-61128630D01*
X91247862Y-61307483D01*
X90925971Y-61504950D01*
X90581026Y-61716742D01*
X90565944Y-61726006D01*
X90211590Y-61943268D01*
X89872775Y-62150228D01*
X89557644Y-62341963D01*
X89274342Y-62513555D01*
X89031013Y-62660082D01*
X88835802Y-62776623D01*
X88696852Y-62858258D01*
X88624833Y-62898763D01*
X88510067Y-62952758D01*
X88400777Y-62986095D01*
X88270131Y-63003687D01*
X88091296Y-63010449D01*
X88011000Y-63011173D01*
X87608833Y-63013167D01*
X86159151Y-62431762D01*
X85821879Y-62295480D01*
X85503694Y-62164976D01*
X85214598Y-62044497D01*
X84964596Y-61938292D01*
X84763690Y-61850608D01*
X84621882Y-61785693D01*
X84550484Y-61748644D01*
X84319827Y-61562105D01*
X84121803Y-61327505D01*
X83978675Y-61072598D01*
X83951798Y-61002333D01*
X83932281Y-60931072D01*
X83896561Y-60786226D01*
X83846745Y-60576873D01*
X83784940Y-60312090D01*
X83713254Y-60000957D01*
X83633795Y-59652550D01*
X83548669Y-59275947D01*
X83480110Y-58970333D01*
X83392933Y-58580543D01*
X83310876Y-58213850D01*
X83235899Y-57879008D01*
X83169966Y-57584769D01*
X83115038Y-57339885D01*
X83073078Y-57153109D01*
X83046046Y-57033193D01*
X83036480Y-56991250D01*
X83026151Y-56957263D01*
X83005620Y-56932507D01*
X82962958Y-56915521D01*
X82886238Y-56904840D01*
X82763532Y-56899002D01*
X82582913Y-56896545D01*
X82332452Y-56896006D01*
X82259727Y-56896000D01*
X81990673Y-56897227D01*
X81661550Y-56900660D01*
X81296916Y-56905928D01*
X80921329Y-56912658D01*
X80559346Y-56920479D01*
X80426521Y-56923761D01*
X79347641Y-56951522D01*
X78916569Y-58956757D01*
X78828204Y-59363338D01*
X78742341Y-59749929D01*
X78661106Y-60107547D01*
X78586622Y-60427211D01*
X78521014Y-60699938D01*
X78466406Y-60916746D01*
X78424921Y-61068653D01*
X78398686Y-61146675D01*
X78216548Y-61437523D01*
X77972109Y-61672745D01*
X77780134Y-61793899D01*
X77681736Y-61840715D01*
X77515936Y-61914021D01*
X77294026Y-62009065D01*
X77027295Y-62121090D01*
X76727033Y-62245342D01*
X76404529Y-62377068D01*
X76178833Y-62468263D01*
X74824167Y-63013167D01*
X74400833Y-63011605D01*
X74179532Y-63006723D01*
X74021624Y-62992025D01*
X73906115Y-62964549D01*
X73829535Y-62931066D01*
X73764621Y-62893087D01*
X73635729Y-62814743D01*
X73450520Y-62700788D01*
X73216657Y-62555979D01*
X72941803Y-62385072D01*
X72633619Y-62192821D01*
X72299768Y-61983984D01*
X71947914Y-61763315D01*
X71933955Y-61754549D01*
X70186340Y-60657010D01*
X69901753Y-60911524D01*
X69801099Y-61004866D01*
X69650738Y-61148757D01*
X69460513Y-61333561D01*
X69240269Y-61549643D01*
X68999848Y-61787366D01*
X68749095Y-62037096D01*
X68629190Y-62157163D01*
X67641213Y-63148286D01*
X68697594Y-64710560D01*
X68921165Y-65042223D01*
X69133026Y-65358473D01*
X69327778Y-65651114D01*
X69500026Y-65911946D01*
X69644370Y-66132772D01*
X69755413Y-66305394D01*
X69827758Y-66421614D01*
X69851629Y-66463333D01*
X69915832Y-66644129D01*
X69957919Y-66874214D01*
X69975282Y-67120488D01*
X69965315Y-67349852D01*
X69933735Y-67505788D01*
X69901618Y-67593949D01*
X69841689Y-67748347D01*
X69758557Y-67957754D01*
X69656826Y-68210947D01*
X69541105Y-68496698D01*
X69415998Y-68803784D01*
X69286114Y-69120979D01*
X69156058Y-69437057D01*
X69030436Y-69740794D01*
X68913857Y-70020963D01*
X68810925Y-70266339D01*
X68726248Y-70465698D01*
X68664432Y-70607814D01*
X68632200Y-70677403D01*
X68514258Y-70851108D01*
X68345510Y-71028965D01*
X68154172Y-71184731D01*
X67973603Y-71289929D01*
X67893260Y-71316643D01*
X67740499Y-71359271D01*
X67525527Y-71415265D01*
X67258557Y-71482076D01*
X66949797Y-71557156D01*
X66609458Y-71637957D01*
X66247750Y-71721929D01*
X66188167Y-71735583D01*
X65812455Y-71821534D01*
X65446369Y-71905320D01*
X65101959Y-71984178D01*
X64791277Y-72055348D01*
X64526376Y-72116069D01*
X64319308Y-72163580D01*
X64182125Y-72195120D01*
X64177333Y-72196225D01*
X63775167Y-72288931D01*
X63764103Y-73990466D01*
X63762034Y-74360697D01*
X63760773Y-74703175D01*
X63760304Y-75008960D01*
X62124167Y-75008960D01*
X62124167Y-71818500D01*
X62235722Y-71580586D01*
X62401662Y-71301562D01*
X62613670Y-71060419D01*
X62847358Y-70882862D01*
X62918607Y-70850486D01*
X63038413Y-70809458D01*
X63211597Y-70758531D01*
X63442979Y-70696457D01*
X63737380Y-70621989D01*
X64099620Y-70533879D01*
X64534518Y-70430879D01*
X65046895Y-70311742D01*
X65108665Y-70297489D01*
X65515788Y-70203055D01*
X65897872Y-70113348D01*
X66246969Y-70030309D01*
X66555129Y-69955881D01*
X66814404Y-69892006D01*
X67016843Y-69840626D01*
X67154497Y-69803683D01*
X67219418Y-69783119D01*
X67223265Y-69780867D01*
X67246690Y-69734179D01*
X67297968Y-69618443D01*
X67373125Y-69443066D01*
X67468191Y-69217457D01*
X67579192Y-68951025D01*
X67702155Y-68653179D01*
X67794314Y-68428358D01*
X68332129Y-67112549D01*
X67218681Y-65465024D01*
X66968351Y-65092396D01*
X66738539Y-64745922D01*
X66533505Y-64432277D01*
X66357512Y-64158136D01*
X66214822Y-63930174D01*
X66109695Y-63755066D01*
X66046394Y-63639487D01*
X66031665Y-63605833D01*
X65963857Y-63293646D01*
X65964788Y-62966469D01*
X66031249Y-62647202D01*
X66160030Y-62358746D01*
X66218933Y-62269713D01*
X66276924Y-62201849D01*
X66388851Y-62081611D01*
X66548068Y-61915768D01*
X66747924Y-61711090D01*
X66981771Y-61474345D01*
X67242962Y-61212303D01*
X67524848Y-60931732D01*
X67801827Y-60658059D01*
X68162444Y-60303581D01*
X68469354Y-60004075D01*
X68728847Y-59754775D01*
X68947215Y-59550916D01*
X69130749Y-59387731D01*
X69285738Y-59260455D01*
X69418475Y-59164321D01*
X69535249Y-59094564D01*
X69642352Y-59046417D01*
X69746074Y-59015114D01*
X69852707Y-58995890D01*
X69968541Y-58983978D01*
X70016265Y-58980379D01*
X70135240Y-58973168D01*
X70243244Y-58972000D01*
X70347561Y-58980339D01*
X70455478Y-59001648D01*
X70574277Y-59039389D01*
X70711244Y-59097026D01*
X70873664Y-59178022D01*
X71068821Y-59285839D01*
X71303999Y-59423940D01*
X71586483Y-59595788D01*
X71923559Y-59804847D01*
X72322509Y-60054578D01*
X72467929Y-60145844D01*
X72817223Y-60365050D01*
X73148326Y-60572697D01*
X73453572Y-60763990D01*
X73725299Y-60934134D01*
X73955844Y-61078330D01*
X74137544Y-61191785D01*
X74262734Y-61269701D01*
X74323247Y-61306980D01*
X74457327Y-61387562D01*
X75677913Y-60893935D01*
X75979351Y-60771791D01*
X76254664Y-60659777D01*
X76494272Y-60561827D01*
X76688593Y-60481876D01*
X76828045Y-60423858D01*
X76903047Y-60391707D01*
X76913306Y-60386654D01*
X76926359Y-60343039D01*
X76954221Y-60229211D01*
X76993987Y-60057750D01*
X77042750Y-59841237D01*
X77097604Y-59592250D01*
X77110262Y-59534083D01*
X77170515Y-59256513D01*
X77243851Y-58918565D01*
X77325417Y-58542608D01*
X77410362Y-58151009D01*
X77493832Y-57766136D01*
X77553997Y-57488667D01*
X77641004Y-57093231D01*
X77715743Y-56770886D01*
X77781949Y-56511580D01*
X77843358Y-56305262D01*
X77903704Y-56141883D01*
X77966722Y-56011392D01*
X78036148Y-55903737D01*
X78115717Y-55808869D01*
X78209163Y-55716736D01*
X78214237Y-55712048D01*
X78471073Y-55515556D01*
X78748685Y-55388442D01*
X78951667Y-55336450D01*
X79049084Y-55325793D01*
X79225037Y-55315777D01*
X79473398Y-55306549D01*
X79788036Y-55298258D01*
X80162824Y-55291052D01*
X80591631Y-55285079D01*
X81068329Y-55280487D01*
X81343500Y-55278634D01*
X83502500Y-55266167D01*
X83740414Y-55377722D01*
G37*
X83740414Y-55377722D02*
X83904704Y-55467594D01*
X84066597Y-55576382D01*
X84145202Y-55640038D01*
X84218646Y-55709034D01*
X84283361Y-55778832D01*
X84341713Y-55856668D01*
X84396068Y-55949778D01*
X84448792Y-56065401D01*
X84502251Y-56210773D01*
X84558810Y-56393131D01*
X84620837Y-56619712D01*
X84690697Y-56897753D01*
X84770756Y-57234490D01*
X84863379Y-57637162D01*
X84970934Y-58113004D01*
X85008825Y-58281613D01*
X85100288Y-58686792D01*
X85186990Y-59066762D01*
X85267043Y-59413535D01*
X85338560Y-59719122D01*
X85399652Y-59975536D01*
X85448431Y-60174788D01*
X85483009Y-60308891D01*
X85501498Y-60369856D01*
X85503046Y-60372522D01*
X85548760Y-60395266D01*
X85663282Y-60445420D01*
X85836830Y-60518898D01*
X86059622Y-60611612D01*
X86321875Y-60719475D01*
X86613809Y-60838401D01*
X86751414Y-60894098D01*
X87968329Y-61385680D01*
X89772438Y-60279348D01*
X90133438Y-60058589D01*
X90478224Y-59848925D01*
X90798957Y-59655042D01*
X91087798Y-59481624D01*
X91336906Y-59333357D01*
X91538443Y-59214927D01*
X91684568Y-59131019D01*
X91767441Y-59086318D01*
X91772857Y-59083769D01*
X91914156Y-59032565D01*
X92075474Y-59004031D01*
X92286140Y-58993389D01*
X92329890Y-58993011D01*
X92520601Y-58995836D01*
X92660771Y-59011022D01*
X92784370Y-59045777D01*
X92925365Y-59107307D01*
X92969266Y-59128680D01*
X93038847Y-59165555D01*
X93110842Y-59210601D01*
X93191109Y-59269311D01*
X93285505Y-59347179D01*
X93399887Y-59449700D01*
X93540113Y-59582366D01*
X93712039Y-59750673D01*
X93921525Y-59960115D01*
X94174426Y-60216185D01*
X94476600Y-60524377D01*
X94689030Y-60741755D01*
X94980045Y-61041061D01*
X95255977Y-61327282D01*
X95510508Y-61593696D01*
X95737319Y-61833578D01*
X95930094Y-62040203D01*
X96082515Y-62206848D01*
X96188263Y-62326789D01*
X96241021Y-62393302D01*
X96241516Y-62394078D01*
X96386108Y-62700763D01*
X96455014Y-63036870D01*
X96447011Y-63391520D01*
X96385817Y-63676613D01*
X96351546Y-63748492D01*
X96274649Y-63883103D01*
X96159826Y-64072974D01*
X96011778Y-64310633D01*
X95835204Y-64588606D01*
X95634806Y-64899422D01*
X95415283Y-65235609D01*
X95202675Y-65557565D01*
X94073424Y-67258645D01*
X94665195Y-68543739D01*
X94808071Y-68852293D01*
X94941474Y-69137121D01*
X95060892Y-69388841D01*
X95161813Y-69598070D01*
X95239726Y-69755427D01*
X95290119Y-69851529D01*
X95306400Y-69877137D01*
X95356746Y-69895367D01*
X95481652Y-69928703D01*
X95672739Y-69975230D01*
X95921629Y-70033033D01*
X96219944Y-70100196D01*
X96559305Y-70174805D01*
X96931335Y-70254944D01*
X97303167Y-70333568D01*
X97849260Y-70449266D01*
X98313886Y-70550418D01*
X98698910Y-70637464D01*
X99006193Y-70710848D01*
X99237599Y-70771009D01*
X99394991Y-70818392D01*
X99467439Y-70846696D01*
X99676899Y-70980732D01*
X99883783Y-71169339D01*
X100062132Y-71385715D01*
X100174244Y-71576471D01*
X100196863Y-71628039D01*
X100215529Y-71681240D01*
X100230687Y-71744509D01*
X100242786Y-71826283D01*
X100252273Y-71934998D01*
X100259594Y-72079088D01*
X100265197Y-72266991D01*
X100269530Y-72507142D01*
X100273039Y-72807977D01*
X100276172Y-73177931D01*
X100278850Y-73549613D01*
X100281693Y-74112001D01*
X100281554Y-74596511D01*
X100278041Y-75009888D01*
X100270762Y-75358882D01*
X100259325Y-75650239D01*
X100243340Y-75890706D01*
X100222413Y-76087033D01*
X100196152Y-76245966D01*
X100164167Y-76374253D01*
X100126065Y-76478641D01*
X100106314Y-76520616D01*
X99941161Y-76775482D01*
X99728169Y-76997737D01*
X99490421Y-77164440D01*
X99426411Y-77196302D01*
X99321109Y-77232374D01*
X99135614Y-77281962D01*
X98873191Y-77344334D01*
X98537106Y-77418757D01*
X98130624Y-77504497D01*
X97657011Y-77600823D01*
X97366667Y-77658527D01*
X96981986Y-77734852D01*
X96622058Y-77807111D01*
X96295578Y-77873496D01*
X96011245Y-77932200D01*
X95777756Y-77981416D01*
X95603811Y-78019335D01*
X95498107Y-78044151D01*
X95469266Y-78052817D01*
X95445646Y-78094905D01*
X95394436Y-78204907D01*
X95320031Y-78372343D01*
X95226826Y-78586734D01*
X95119216Y-78837601D01*
X95001595Y-79114465D01*
X94878360Y-79406846D01*
X94753903Y-79704266D01*
X94632622Y-79996246D01*
X94518910Y-80272306D01*
X94417163Y-80521967D01*
X94331775Y-80734750D01*
X94267141Y-80900176D01*
X94227657Y-81007765D01*
X94220326Y-81030734D01*
X94241678Y-81070189D01*
X94305766Y-81172250D01*
X94407711Y-81329515D01*
X94542629Y-81534586D01*
X94705638Y-81780062D01*
X94891856Y-82058542D01*
X95096401Y-82362627D01*
X95207667Y-82527347D01*
X95425747Y-82851294D01*
X95632755Y-83161743D01*
X95822961Y-83449886D01*
X95990635Y-83706914D01*
X96130045Y-83924020D01*
X96235463Y-84092394D01*
X96301157Y-84203230D01*
X96315125Y-84229678D01*
X96424791Y-84546332D01*
X96459943Y-84878588D01*
X96421820Y-85208887D01*
X96311663Y-85519674D01*
X96212134Y-85688576D01*
X96154648Y-85757569D01*
X96043076Y-85878856D01*
X95884021Y-86045693D01*
X95684086Y-86251337D01*
X95449874Y-86489045D01*
X95187987Y-86752072D01*
X94905028Y-87033676D01*
X94612902Y-87321904D01*
X94248072Y-87679955D01*
X93937219Y-87983135D01*
X93674023Y-88236007D01*
X93452163Y-88443138D01*
X93265321Y-88609091D01*
X93107175Y-88738431D01*
X92971407Y-88835723D01*
X92851695Y-88905533D01*
X92741719Y-88952424D01*
X92635161Y-88980962D01*
X92525700Y-88995711D01*
X92407015Y-89001237D01*
X92286667Y-89002096D01*
X92050391Y-88992287D01*
X91852827Y-88964717D01*
X91754111Y-88937425D01*
X91708236Y-88917180D01*
X91639832Y-88881766D01*
X91544513Y-88828500D01*
X91417893Y-88754702D01*
X91255586Y-88657688D01*
X91053206Y-88534777D01*
X90806366Y-88383288D01*
X90510680Y-88200539D01*
X90161763Y-87983848D01*
X89755228Y-87730532D01*
X89286689Y-87437911D01*
X88751759Y-87103303D01*
X88642690Y-87035031D01*
X88321879Y-86834202D01*
X87817190Y-87073351D01*
X87610873Y-87170304D01*
X87459118Y-87236712D01*
X87340008Y-87278354D01*
X87231628Y-87301009D01*
X87112060Y-87310457D01*
X86959389Y-87312478D01*
X86910333Y-87312500D01*
X86615251Y-87296012D01*
X86363551Y-87241020D01*
X86142031Y-87139236D01*
X85937485Y-86982368D01*
X85736709Y-86762127D01*
X85526499Y-86470222D01*
X85496765Y-86425006D01*
X85393818Y-86273709D01*
X85303822Y-86153550D01*
X85238631Y-86079697D01*
X85214419Y-86063667D01*
X85153365Y-86073527D01*
X85033806Y-86099651D01*
X84879145Y-86136856D01*
X84843053Y-86145932D01*
X83795437Y-86368828D01*
X82717790Y-86514999D01*
X81616026Y-86584377D01*
X80496056Y-86576896D01*
X79363793Y-86492488D01*
X78225151Y-86331086D01*
X77682676Y-86227202D01*
X77466993Y-86184798D01*
X77282840Y-86153123D01*
X77144981Y-86134360D01*
X77068179Y-86130691D01*
X77057400Y-86134722D01*
X77031009Y-86183563D01*
X76970030Y-86286925D01*
X76884760Y-86427540D01*
X76823558Y-86526907D01*
X76595232Y-86846133D01*
X76351732Y-87085590D01*
X76085090Y-87249866D01*
X75787337Y-87343551D01*
X75450508Y-87371234D01*
X75362410Y-87368539D01*
X75219756Y-87358071D01*
X75094195Y-87338275D01*
X74964989Y-87302908D01*
X74811402Y-87245727D01*
X74612697Y-87160488D01*
X74493001Y-87106779D01*
X74293446Y-87019532D01*
X74119114Y-86948918D01*
X73985454Y-86900776D01*
X73907909Y-86880944D01*
X73897337Y-86881580D01*
X73851529Y-86908401D01*
X73742559Y-86976616D01*
X73578123Y-87081280D01*
X73365919Y-87217447D01*
X73113642Y-87380172D01*
X72828989Y-87564507D01*
X72519658Y-87765509D01*
X72366044Y-87865563D01*
X72041830Y-88075995D01*
X71733421Y-88274450D01*
X71449390Y-88455538D01*
X71198306Y-88613868D01*
X70988742Y-88744050D01*
X70829268Y-88840693D01*
X70728457Y-88898407D01*
X70706114Y-88909545D01*
X70486888Y-88975532D01*
X70225645Y-89007486D01*
X69958761Y-89003351D01*
X69734480Y-88964501D01*
X69567795Y-88905734D01*
X69403230Y-88829479D01*
X69344889Y-88795990D01*
X69281618Y-88745420D01*
X69165011Y-88641332D01*
X69001666Y-88490009D01*
X68798183Y-88297736D01*
X68561160Y-88070793D01*
X68297197Y-87815466D01*
X68012893Y-87538036D01*
X67714848Y-87244787D01*
X67693932Y-87224118D01*
X67331310Y-86865330D01*
X67024254Y-86559762D01*
X66768040Y-86301186D01*
X66557944Y-86083379D01*
X66389243Y-85900114D01*
X66257213Y-85745165D01*
X66157130Y-85612308D01*
X66084272Y-85495317D01*
X66033913Y-85387966D01*
X66001331Y-85284030D01*
X65981801Y-85177282D01*
X65970601Y-85061499D01*
X65963704Y-84943777D01*
X65958134Y-84749579D01*
X65968898Y-84604097D01*
X66000945Y-84472152D01*
X66047735Y-84346528D01*
X66093157Y-84257886D01*
X66180853Y-84108135D01*
X66305255Y-83906023D01*
X66460797Y-83660295D01*
X66641910Y-83379697D01*
X66843027Y-83072977D01*
X67058582Y-82748880D01*
X67173909Y-82577302D01*
X68197897Y-81059438D01*
X67602867Y-79592802D01*
X67466910Y-79259647D01*
X67339220Y-78950473D01*
X67223625Y-78674272D01*
X67123953Y-78440035D01*
X67044034Y-78256753D01*
X66987696Y-78133417D01*
X66958767Y-78079017D01*
X66957834Y-78077992D01*
X66907167Y-78059580D01*
X66782142Y-78026134D01*
X66591342Y-77979620D01*
X66343350Y-77922006D01*
X66046751Y-77855261D01*
X65710129Y-77781350D01*
X65342065Y-77702244D01*
X65045167Y-77639559D01*
X64614007Y-77548050D01*
X64215470Y-77461161D01*
X63857533Y-77380762D01*
X63548174Y-77308724D01*
X63295370Y-77246916D01*
X63107099Y-77197210D01*
X62991340Y-77161474D01*
X62970833Y-77153258D01*
X62673137Y-76975547D01*
X62434315Y-76737885D01*
X62263528Y-76463696D01*
X62124167Y-76180613D01*
X62124167Y-75008960D01*
X63760304Y-75008960D01*
X63760611Y-75269114D01*
X63761678Y-75474696D01*
X63763490Y-75616768D01*
X63766029Y-75686391D01*
X63767139Y-75692000D01*
X63810131Y-75700500D01*
X63927673Y-75724839D01*
X64111490Y-75763278D01*
X64353310Y-75814076D01*
X64644861Y-75875493D01*
X64977870Y-75945790D01*
X65344063Y-76023225D01*
X65678204Y-76093986D01*
X66177493Y-76201072D01*
X66616822Y-76297945D01*
X66992202Y-76383655D01*
X67299643Y-76457252D01*
X67535156Y-76517785D01*
X67694751Y-76564304D01*
X67766327Y-76591403D01*
X67948000Y-76709282D01*
X68135506Y-76875488D01*
X68298861Y-77061630D01*
X68365454Y-77158756D01*
X68396861Y-77222948D01*
X68456448Y-77356799D01*
X68540506Y-77551537D01*
X68645321Y-77798389D01*
X68767184Y-78088584D01*
X68902382Y-78413351D01*
X69047203Y-78763916D01*
X69133135Y-78973138D01*
X69827016Y-80666167D01*
X69826654Y-81089500D01*
X69823609Y-81297737D01*
X69812235Y-81445816D01*
X69788542Y-81558136D01*
X69748539Y-81659094D01*
X69726252Y-81703333D01*
X69680901Y-81779712D01*
X69593618Y-81917438D01*
X69470099Y-82107858D01*
X69316040Y-82342320D01*
X69137136Y-82612169D01*
X68939082Y-82908753D01*
X68727575Y-83223419D01*
X68653489Y-83333167D01*
X68442889Y-83645252D01*
X68247101Y-83936282D01*
X68071215Y-84198619D01*
X67920327Y-84424628D01*
X67799527Y-84606671D01*
X67713909Y-84737112D01*
X67668566Y-84808314D01*
X67662758Y-84818717D01*
X67687109Y-84859457D01*
X67765230Y-84950524D01*
X67889439Y-85084401D01*
X68052056Y-85253571D01*
X68245401Y-85450517D01*
X68461793Y-85667723D01*
X68693551Y-85897672D01*
X68932996Y-86132848D01*
X69172447Y-86365733D01*
X69404222Y-86588811D01*
X69620643Y-86794565D01*
X69814028Y-86975479D01*
X69976697Y-87124036D01*
X70100969Y-87232719D01*
X70179164Y-87294011D01*
X70202718Y-87304522D01*
X70247947Y-87275575D01*
X70356313Y-87205466D01*
X70520021Y-87099262D01*
X70731274Y-86962026D01*
X70982276Y-86798826D01*
X71265232Y-86614726D01*
X71572345Y-86414792D01*
X71692476Y-86336556D01*
X72010204Y-86130022D01*
X72309887Y-85936003D01*
X72583189Y-85759839D01*
X72821773Y-85606869D01*
X73017304Y-85482431D01*
X73161446Y-85391864D01*
X73245862Y-85340509D01*
X73259350Y-85332994D01*
X73370207Y-85289249D01*
X73525794Y-85243915D01*
X73650804Y-85215432D01*
X73838228Y-85190234D01*
X74022892Y-85193507D01*
X74221691Y-85228791D01*
X74451521Y-85299625D01*
X74729278Y-85409549D01*
X74870397Y-85470931D01*
X75056116Y-85552047D01*
X75213949Y-85618593D01*
X75327756Y-85663933D01*
X75381398Y-85681429D01*
X75382261Y-85681453D01*
X75415524Y-85646673D01*
X75482607Y-85552181D01*
X75574573Y-85411341D01*
X75682482Y-85237515D01*
X75712729Y-85187430D01*
X75858376Y-84946820D01*
X75970864Y-84768034D01*
X76059475Y-84639634D01*
X76133488Y-84550181D01*
X76202182Y-84488237D01*
X76274839Y-84442362D01*
X76344839Y-84408278D01*
X76487341Y-84356545D01*
X76634903Y-84334801D01*
X76807145Y-84343598D01*
X77023688Y-84383491D01*
X77222810Y-84433043D01*
X77980580Y-84611845D01*
X78767916Y-84755505D01*
X79565987Y-84862123D01*
X80355961Y-84929798D01*
X81119007Y-84956628D01*
X81836294Y-84940714D01*
X82084333Y-84923775D01*
X82645773Y-84870458D01*
X83160585Y-84804738D01*
X83654206Y-84721880D01*
X84152071Y-84617149D01*
X84679616Y-84485809D01*
X85174546Y-84348509D01*
X85417214Y-84279091D01*
X85629779Y-84219089D01*
X85799740Y-84171966D01*
X85914592Y-84141185D01*
X85961833Y-84130209D01*
X85962351Y-84130324D01*
X85986065Y-84166103D01*
X86049527Y-84261856D01*
X86145711Y-84406982D01*
X86267591Y-84590880D01*
X86408141Y-84802949D01*
X86444074Y-84857167D01*
X86589857Y-85076578D01*
X86720556Y-85272243D01*
X86828687Y-85433041D01*
X86906764Y-85547849D01*
X86947302Y-85605548D01*
X86950419Y-85609450D01*
X86997751Y-85605100D01*
X87105823Y-85569707D01*
X87259125Y-85509029D01*
X87442144Y-85428822D01*
X87463650Y-85418950D01*
X87666056Y-85326568D01*
X87814795Y-85264120D01*
X87932984Y-85225868D01*
X88043741Y-85206074D01*
X88170183Y-85198999D01*
X88335429Y-85198905D01*
X88349667Y-85199017D01*
X88559779Y-85204550D01*
X88710810Y-85220051D01*
X88828151Y-85249760D01*
X88935051Y-85296811D01*
X89009421Y-85339039D01*
X89147084Y-85421057D01*
X89339591Y-85537688D01*
X89578493Y-85683757D01*
X89855344Y-85854089D01*
X90161695Y-86043508D01*
X90489098Y-86246839D01*
X90683601Y-86368040D01*
X92248935Y-87344658D01*
X93504315Y-86100912D01*
X93772576Y-85834082D01*
X94020755Y-85585190D01*
X94242649Y-85360608D01*
X94432055Y-85166707D01*
X94582772Y-85009859D01*
X94688596Y-84896434D01*
X94743327Y-84832805D01*
X94749597Y-84821666D01*
X94724500Y-84780052D01*
X94656947Y-84675763D01*
X94551904Y-84516269D01*
X94414335Y-84309035D01*
X94249205Y-84061529D01*
X94061478Y-83781219D01*
X93856119Y-83475573D01*
X93743724Y-83308673D01*
X93527187Y-82985850D01*
X93322849Y-82678279D01*
X93136214Y-82394458D01*
X92972784Y-82142885D01*
X92838063Y-81932057D01*
X92737553Y-81770473D01*
X92676758Y-81666629D01*
X92663985Y-81641370D01*
X92585563Y-81389557D01*
X92551709Y-81110011D01*
X92565213Y-80839884D01*
X92593926Y-80708500D01*
X92628124Y-80608711D01*
X92689830Y-80443757D01*
X92774769Y-80224125D01*
X92878666Y-79960300D01*
X92997248Y-79662769D01*
X93126239Y-79342019D01*
X93261364Y-79008536D01*
X93398350Y-78672805D01*
X93532922Y-78345314D01*
X93660804Y-78036548D01*
X93777724Y-77756995D01*
X93879405Y-77517139D01*
X93961574Y-77327469D01*
X94019955Y-77198469D01*
X94044910Y-77148959D01*
X94196619Y-76944796D01*
X94400203Y-76751683D01*
X94624730Y-76598310D01*
X94657162Y-76581087D01*
X94745483Y-76549607D01*
X94912803Y-76504158D01*
X95154785Y-76445722D01*
X95467092Y-76375281D01*
X95845387Y-76293816D01*
X96285332Y-76202308D01*
X96722820Y-76113695D01*
X97110732Y-76036032D01*
X97472366Y-75963717D01*
X97799427Y-75898402D01*
X98083621Y-75841738D01*
X98316657Y-75795379D01*
X98490239Y-75760977D01*
X98596075Y-75740183D01*
X98626558Y-75734441D01*
X98628688Y-75693566D01*
X98630153Y-75576914D01*
X98630954Y-75393371D01*
X98631091Y-75151823D01*
X98630563Y-74861158D01*
X98629370Y-74530262D01*
X98627513Y-74168022D01*
X98626558Y-74012293D01*
X98615500Y-72290253D01*
X96668167Y-71878991D01*
X96178033Y-71774767D01*
X95764493Y-71685158D01*
X95421036Y-71608582D01*
X95141152Y-71543458D01*
X94918332Y-71488202D01*
X94746065Y-71441234D01*
X94617842Y-71400972D01*
X94527154Y-71365833D01*
X94497179Y-71351440D01*
X94386554Y-71290194D01*
X94287842Y-71224330D01*
X94196269Y-71146318D01*
X94107058Y-71048629D01*
X94015433Y-70923735D01*
X93916618Y-70764107D01*
X93805838Y-70562217D01*
X93678315Y-70310536D01*
X93529275Y-70001535D01*
X93353940Y-69627686D01*
X93219382Y-69337187D01*
X93063284Y-68997927D01*
X92916240Y-68675942D01*
X92782590Y-68380919D01*
X92666677Y-68122544D01*
X92572844Y-67910503D01*
X92505432Y-67754482D01*
X92468783Y-67664170D01*
X92466334Y-67657261D01*
X92428002Y-67461831D01*
X92422247Y-67222963D01*
X92446862Y-66974413D01*
X92499639Y-66749934D01*
X92531022Y-66667917D01*
X92570950Y-66595409D01*
X92652765Y-66460440D01*
X92771366Y-66270978D01*
X92921651Y-66034992D01*
X93098519Y-65760453D01*
X93296866Y-65455327D01*
X93511593Y-65127585D01*
X93700006Y-64841968D01*
X94786908Y-63199435D01*
X93548270Y-61931551D01*
X93283783Y-61660986D01*
X93038272Y-61410160D01*
X92817902Y-61185343D01*
X92628832Y-60992806D01*
X92477225Y-60838820D01*
X92369242Y-60729658D01*
X92311046Y-60671589D01*
X92302511Y-60663667D01*
X92266155Y-60685124D01*
X92164685Y-60746638D01*
X92005111Y-60843919D01*
X91794442Y-60972679D01*
X91539689Y-61128630D01*
X91247862Y-61307483D01*
X90925971Y-61504950D01*
X90581026Y-61716742D01*
X90565944Y-61726006D01*
X90211590Y-61943268D01*
X89872775Y-62150228D01*
X89557644Y-62341963D01*
X89274342Y-62513555D01*
X89031013Y-62660082D01*
X88835802Y-62776623D01*
X88696852Y-62858258D01*
X88624833Y-62898763D01*
X88510067Y-62952758D01*
X88400777Y-62986095D01*
X88270131Y-63003687D01*
X88091296Y-63010449D01*
X88011000Y-63011173D01*
X87608833Y-63013167D01*
X86159151Y-62431762D01*
X85821879Y-62295480D01*
X85503694Y-62164976D01*
X85214598Y-62044497D01*
X84964596Y-61938292D01*
X84763690Y-61850608D01*
X84621882Y-61785693D01*
X84550484Y-61748644D01*
X84319827Y-61562105D01*
X84121803Y-61327505D01*
X83978675Y-61072598D01*
X83951798Y-61002333D01*
X83932281Y-60931072D01*
X83896561Y-60786226D01*
X83846745Y-60576873D01*
X83784940Y-60312090D01*
X83713254Y-60000957D01*
X83633795Y-59652550D01*
X83548669Y-59275947D01*
X83480110Y-58970333D01*
X83392933Y-58580543D01*
X83310876Y-58213850D01*
X83235899Y-57879008D01*
X83169966Y-57584769D01*
X83115038Y-57339885D01*
X83073078Y-57153109D01*
X83046046Y-57033193D01*
X83036480Y-56991250D01*
X83026151Y-56957263D01*
X83005620Y-56932507D01*
X82962958Y-56915521D01*
X82886238Y-56904840D01*
X82763532Y-56899002D01*
X82582913Y-56896545D01*
X82332452Y-56896006D01*
X82259727Y-56896000D01*
X81990673Y-56897227D01*
X81661550Y-56900660D01*
X81296916Y-56905928D01*
X80921329Y-56912658D01*
X80559346Y-56920479D01*
X80426521Y-56923761D01*
X79347641Y-56951522D01*
X78916569Y-58956757D01*
X78828204Y-59363338D01*
X78742341Y-59749929D01*
X78661106Y-60107547D01*
X78586622Y-60427211D01*
X78521014Y-60699938D01*
X78466406Y-60916746D01*
X78424921Y-61068653D01*
X78398686Y-61146675D01*
X78216548Y-61437523D01*
X77972109Y-61672745D01*
X77780134Y-61793899D01*
X77681736Y-61840715D01*
X77515936Y-61914021D01*
X77294026Y-62009065D01*
X77027295Y-62121090D01*
X76727033Y-62245342D01*
X76404529Y-62377068D01*
X76178833Y-62468263D01*
X74824167Y-63013167D01*
X74400833Y-63011605D01*
X74179532Y-63006723D01*
X74021624Y-62992025D01*
X73906115Y-62964549D01*
X73829535Y-62931066D01*
X73764621Y-62893087D01*
X73635729Y-62814743D01*
X73450520Y-62700788D01*
X73216657Y-62555979D01*
X72941803Y-62385072D01*
X72633619Y-62192821D01*
X72299768Y-61983984D01*
X71947914Y-61763315D01*
X71933955Y-61754549D01*
X70186340Y-60657010D01*
X69901753Y-60911524D01*
X69801099Y-61004866D01*
X69650738Y-61148757D01*
X69460513Y-61333561D01*
X69240269Y-61549643D01*
X68999848Y-61787366D01*
X68749095Y-62037096D01*
X68629190Y-62157163D01*
X67641213Y-63148286D01*
X68697594Y-64710560D01*
X68921165Y-65042223D01*
X69133026Y-65358473D01*
X69327778Y-65651114D01*
X69500026Y-65911946D01*
X69644370Y-66132772D01*
X69755413Y-66305394D01*
X69827758Y-66421614D01*
X69851629Y-66463333D01*
X69915832Y-66644129D01*
X69957919Y-66874214D01*
X69975282Y-67120488D01*
X69965315Y-67349852D01*
X69933735Y-67505788D01*
X69901618Y-67593949D01*
X69841689Y-67748347D01*
X69758557Y-67957754D01*
X69656826Y-68210947D01*
X69541105Y-68496698D01*
X69415998Y-68803784D01*
X69286114Y-69120979D01*
X69156058Y-69437057D01*
X69030436Y-69740794D01*
X68913857Y-70020963D01*
X68810925Y-70266339D01*
X68726248Y-70465698D01*
X68664432Y-70607814D01*
X68632200Y-70677403D01*
X68514258Y-70851108D01*
X68345510Y-71028965D01*
X68154172Y-71184731D01*
X67973603Y-71289929D01*
X67893260Y-71316643D01*
X67740499Y-71359271D01*
X67525527Y-71415265D01*
X67258557Y-71482076D01*
X66949797Y-71557156D01*
X66609458Y-71637957D01*
X66247750Y-71721929D01*
X66188167Y-71735583D01*
X65812455Y-71821534D01*
X65446369Y-71905320D01*
X65101959Y-71984178D01*
X64791277Y-72055348D01*
X64526376Y-72116069D01*
X64319308Y-72163580D01*
X64182125Y-72195120D01*
X64177333Y-72196225D01*
X63775167Y-72288931D01*
X63764103Y-73990466D01*
X63762034Y-74360697D01*
X63760773Y-74703175D01*
X63760304Y-75008960D01*
X62124167Y-75008960D01*
X62124167Y-71818500D01*
X62235722Y-71580586D01*
X62401662Y-71301562D01*
X62613670Y-71060419D01*
X62847358Y-70882862D01*
X62918607Y-70850486D01*
X63038413Y-70809458D01*
X63211597Y-70758531D01*
X63442979Y-70696457D01*
X63737380Y-70621989D01*
X64099620Y-70533879D01*
X64534518Y-70430879D01*
X65046895Y-70311742D01*
X65108665Y-70297489D01*
X65515788Y-70203055D01*
X65897872Y-70113348D01*
X66246969Y-70030309D01*
X66555129Y-69955881D01*
X66814404Y-69892006D01*
X67016843Y-69840626D01*
X67154497Y-69803683D01*
X67219418Y-69783119D01*
X67223265Y-69780867D01*
X67246690Y-69734179D01*
X67297968Y-69618443D01*
X67373125Y-69443066D01*
X67468191Y-69217457D01*
X67579192Y-68951025D01*
X67702155Y-68653179D01*
X67794314Y-68428358D01*
X68332129Y-67112549D01*
X67218681Y-65465024D01*
X66968351Y-65092396D01*
X66738539Y-64745922D01*
X66533505Y-64432277D01*
X66357512Y-64158136D01*
X66214822Y-63930174D01*
X66109695Y-63755066D01*
X66046394Y-63639487D01*
X66031665Y-63605833D01*
X65963857Y-63293646D01*
X65964788Y-62966469D01*
X66031249Y-62647202D01*
X66160030Y-62358746D01*
X66218933Y-62269713D01*
X66276924Y-62201849D01*
X66388851Y-62081611D01*
X66548068Y-61915768D01*
X66747924Y-61711090D01*
X66981771Y-61474345D01*
X67242962Y-61212303D01*
X67524848Y-60931732D01*
X67801827Y-60658059D01*
X68162444Y-60303581D01*
X68469354Y-60004075D01*
X68728847Y-59754775D01*
X68947215Y-59550916D01*
X69130749Y-59387731D01*
X69285738Y-59260455D01*
X69418475Y-59164321D01*
X69535249Y-59094564D01*
X69642352Y-59046417D01*
X69746074Y-59015114D01*
X69852707Y-58995890D01*
X69968541Y-58983978D01*
X70016265Y-58980379D01*
X70135240Y-58973168D01*
X70243244Y-58972000D01*
X70347561Y-58980339D01*
X70455478Y-59001648D01*
X70574277Y-59039389D01*
X70711244Y-59097026D01*
X70873664Y-59178022D01*
X71068821Y-59285839D01*
X71303999Y-59423940D01*
X71586483Y-59595788D01*
X71923559Y-59804847D01*
X72322509Y-60054578D01*
X72467929Y-60145844D01*
X72817223Y-60365050D01*
X73148326Y-60572697D01*
X73453572Y-60763990D01*
X73725299Y-60934134D01*
X73955844Y-61078330D01*
X74137544Y-61191785D01*
X74262734Y-61269701D01*
X74323247Y-61306980D01*
X74457327Y-61387562D01*
X75677913Y-60893935D01*
X75979351Y-60771791D01*
X76254664Y-60659777D01*
X76494272Y-60561827D01*
X76688593Y-60481876D01*
X76828045Y-60423858D01*
X76903047Y-60391707D01*
X76913306Y-60386654D01*
X76926359Y-60343039D01*
X76954221Y-60229211D01*
X76993987Y-60057750D01*
X77042750Y-59841237D01*
X77097604Y-59592250D01*
X77110262Y-59534083D01*
X77170515Y-59256513D01*
X77243851Y-58918565D01*
X77325417Y-58542608D01*
X77410362Y-58151009D01*
X77493832Y-57766136D01*
X77553997Y-57488667D01*
X77641004Y-57093231D01*
X77715743Y-56770886D01*
X77781949Y-56511580D01*
X77843358Y-56305262D01*
X77903704Y-56141883D01*
X77966722Y-56011392D01*
X78036148Y-55903737D01*
X78115717Y-55808869D01*
X78209163Y-55716736D01*
X78214237Y-55712048D01*
X78471073Y-55515556D01*
X78748685Y-55388442D01*
X78951667Y-55336450D01*
X79049084Y-55325793D01*
X79225037Y-55315777D01*
X79473398Y-55306549D01*
X79788036Y-55298258D01*
X80162824Y-55291052D01*
X80591631Y-55285079D01*
X81068329Y-55280487D01*
X81343500Y-55278634D01*
X83502500Y-55266167D01*
X83740414Y-55377722D01*
G36*
X84501991Y-79782526D02*
G01*
X85555667Y-79856307D01*
X85556376Y-79986070D01*
X85552894Y-80057329D01*
X85542672Y-80202474D01*
X85526554Y-80411063D01*
X85505385Y-80672656D01*
X85480008Y-80976813D01*
X85451268Y-81313091D01*
X85421829Y-81650417D01*
X85286572Y-83185000D01*
X84083836Y-83185000D01*
X84141850Y-82878083D01*
X84174553Y-82707429D01*
X84204785Y-82553660D01*
X84226065Y-82449745D01*
X84226246Y-82448906D01*
X84232649Y-82402241D01*
X84219823Y-82384274D01*
X84178063Y-82400312D01*
X84097669Y-82455662D01*
X83968936Y-82555630D01*
X83835230Y-82662755D01*
X83660344Y-82802670D01*
X83494908Y-82933406D01*
X83357848Y-83040104D01*
X83269667Y-83106762D01*
X83121500Y-83214659D01*
X82582087Y-82998746D01*
X82385988Y-82918127D01*
X82221693Y-82846533D01*
X82103509Y-82790510D01*
X82045746Y-82756605D01*
X82042337Y-82751786D01*
X82073138Y-82714987D01*
X82157831Y-82635656D01*
X82284459Y-82524483D01*
X82441065Y-82392158D01*
X82488569Y-82352846D01*
X82935138Y-81984953D01*
X82676712Y-81724209D01*
X82418286Y-81463466D01*
X82460124Y-80986510D01*
X83732114Y-80986510D01*
X83869364Y-81177626D01*
X83957158Y-81289735D01*
X84026685Y-81344573D01*
X84101946Y-81358233D01*
X84135556Y-81356121D01*
X84219892Y-81339061D01*
X84260085Y-81292541D01*
X84276958Y-81190266D01*
X84278159Y-81176029D01*
X84280435Y-81024633D01*
X84267659Y-80880477D01*
X84265718Y-80869441D01*
X84239620Y-80730322D01*
X83732114Y-80986510D01*
X82460124Y-80986510D01*
X82462539Y-80958983D01*
X82479859Y-80757958D01*
X82494077Y-80586109D01*
X82503700Y-80461977D01*
X82507230Y-80404604D01*
X82540519Y-80363506D01*
X82631415Y-80285867D01*
X82766963Y-80181947D01*
X82934215Y-80062003D01*
X82977991Y-80031726D01*
X83448315Y-79708744D01*
X84501991Y-79782526D01*
G37*
X84501991Y-79782526D02*
X85555667Y-79856307D01*
X85556376Y-79986070D01*
X85552894Y-80057329D01*
X85542672Y-80202474D01*
X85526554Y-80411063D01*
X85505385Y-80672656D01*
X85480008Y-80976813D01*
X85451268Y-81313091D01*
X85421829Y-81650417D01*
X85286572Y-83185000D01*
X84083836Y-83185000D01*
X84141850Y-82878083D01*
X84174553Y-82707429D01*
X84204785Y-82553660D01*
X84226065Y-82449745D01*
X84226246Y-82448906D01*
X84232649Y-82402241D01*
X84219823Y-82384274D01*
X84178063Y-82400312D01*
X84097669Y-82455662D01*
X83968936Y-82555630D01*
X83835230Y-82662755D01*
X83660344Y-82802670D01*
X83494908Y-82933406D01*
X83357848Y-83040104D01*
X83269667Y-83106762D01*
X83121500Y-83214659D01*
X82582087Y-82998746D01*
X82385988Y-82918127D01*
X82221693Y-82846533D01*
X82103509Y-82790510D01*
X82045746Y-82756605D01*
X82042337Y-82751786D01*
X82073138Y-82714987D01*
X82157831Y-82635656D01*
X82284459Y-82524483D01*
X82441065Y-82392158D01*
X82488569Y-82352846D01*
X82935138Y-81984953D01*
X82676712Y-81724209D01*
X82418286Y-81463466D01*
X82460124Y-80986510D01*
X83732114Y-80986510D01*
X83869364Y-81177626D01*
X83957158Y-81289735D01*
X84026685Y-81344573D01*
X84101946Y-81358233D01*
X84135556Y-81356121D01*
X84219892Y-81339061D01*
X84260085Y-81292541D01*
X84276958Y-81190266D01*
X84278159Y-81176029D01*
X84280435Y-81024633D01*
X84267659Y-80880477D01*
X84265718Y-80869441D01*
X84239620Y-80730322D01*
X83732114Y-80986510D01*
X82460124Y-80986510D01*
X82462539Y-80958983D01*
X82479859Y-80757958D01*
X82494077Y-80586109D01*
X82503700Y-80461977D01*
X82507230Y-80404604D01*
X82540519Y-80363506D01*
X82631415Y-80285867D01*
X82766963Y-80181947D01*
X82934215Y-80062003D01*
X82977991Y-80031726D01*
X83448315Y-79708744D01*
X84501991Y-79782526D01*
G36*
X89281000Y-82386770D02*
G01*
X88914332Y-82807052D01*
X88547664Y-83227333D01*
X86624456Y-83227333D01*
X85725000Y-82262929D01*
X85725000Y-79967667D01*
X87291333Y-79967667D01*
X87290741Y-80062917D01*
X87285795Y-80135449D01*
X87272480Y-80275946D01*
X87252456Y-80468300D01*
X87227385Y-80696405D01*
X87206667Y-80877833D01*
X87179204Y-81115974D01*
X87155472Y-81324432D01*
X87137083Y-81488831D01*
X87125648Y-81594792D01*
X87122592Y-81627672D01*
X87154732Y-81662365D01*
X87239119Y-81729421D01*
X87356882Y-81815259D01*
X87489151Y-81906302D01*
X87617055Y-81988969D01*
X87664878Y-82017893D01*
X87689691Y-82018564D01*
X87703596Y-81976591D01*
X87707551Y-81879978D01*
X87702516Y-81716727D01*
X87697259Y-81612515D01*
X87687424Y-81413749D01*
X87676052Y-81157407D01*
X87664274Y-80870537D01*
X87653222Y-80580188D01*
X87648382Y-80443917D01*
X87623168Y-79713667D01*
X89281000Y-79713667D01*
X89281000Y-82386770D01*
G37*
X89281000Y-82386770D02*
X88914332Y-82807052D01*
X88547664Y-83227333D01*
X86624456Y-83227333D01*
X85725000Y-82262929D01*
X85725000Y-79967667D01*
X87291333Y-79967667D01*
X87290741Y-80062917D01*
X87285795Y-80135449D01*
X87272480Y-80275946D01*
X87252456Y-80468300D01*
X87227385Y-80696405D01*
X87206667Y-80877833D01*
X87179204Y-81115974D01*
X87155472Y-81324432D01*
X87137083Y-81488831D01*
X87125648Y-81594792D01*
X87122592Y-81627672D01*
X87154732Y-81662365D01*
X87239119Y-81729421D01*
X87356882Y-81815259D01*
X87489151Y-81906302D01*
X87617055Y-81988969D01*
X87664878Y-82017893D01*
X87689691Y-82018564D01*
X87703596Y-81976591D01*
X87707551Y-81879978D01*
X87702516Y-81716727D01*
X87697259Y-81612515D01*
X87687424Y-81413749D01*
X87676052Y-81157407D01*
X87664274Y-80870537D01*
X87653222Y-80580188D01*
X87648382Y-80443917D01*
X87623168Y-79713667D01*
X89281000Y-79713667D01*
X89281000Y-82386770D01*
G36*
X77467456Y-80380271D02*
G01*
X77685577Y-80608087D01*
X77850286Y-80783252D01*
X77967665Y-80913353D01*
X78043798Y-81005978D01*
X78084768Y-81068715D01*
X78096658Y-81109150D01*
X78085550Y-81134872D01*
X78077759Y-81141510D01*
X78017811Y-81178645D01*
X77897444Y-81248124D01*
X77730709Y-81342011D01*
X77531659Y-81452372D01*
X77378284Y-81536454D01*
X77171138Y-81651393D01*
X76992786Y-81753997D01*
X76855422Y-81836955D01*
X76771241Y-81892953D01*
X76750333Y-81913032D01*
X76779123Y-81965556D01*
X76812268Y-81998368D01*
X76852651Y-82013841D01*
X76918385Y-82004058D01*
X77022353Y-81964386D01*
X77177432Y-81890193D01*
X77327482Y-81813051D01*
X77505315Y-81721440D01*
X77655714Y-81646327D01*
X77762965Y-81595398D01*
X77811352Y-81576337D01*
X77811540Y-81576333D01*
X77844922Y-81609411D01*
X77910614Y-81696594D01*
X77996672Y-81819808D01*
X78091155Y-81960976D01*
X78182117Y-82102025D01*
X78257615Y-82224879D01*
X78305706Y-82311462D01*
X78316667Y-82340783D01*
X78284179Y-82375325D01*
X78194351Y-82450193D01*
X78058639Y-82556359D01*
X77888495Y-82684794D01*
X77760700Y-82778986D01*
X77204733Y-83185000D01*
X75532406Y-83185000D01*
X75210036Y-82617991D01*
X75098885Y-82421048D01*
X75004309Y-82250725D01*
X74933520Y-82120229D01*
X74893727Y-82042765D01*
X74887667Y-82027593D01*
X74920970Y-81997621D01*
X75013748Y-81927955D01*
X75155299Y-81826269D01*
X75334922Y-81700239D01*
X75541916Y-81557543D01*
X75563843Y-81542561D01*
X76240019Y-81080917D01*
X76145926Y-80992699D01*
X76051833Y-80904482D01*
X75713167Y-81112196D01*
X75560166Y-81203071D01*
X75431490Y-81274042D01*
X75345898Y-81315019D01*
X75324726Y-81321122D01*
X75278372Y-81291632D01*
X75189922Y-81210602D01*
X75072440Y-81090726D01*
X74949919Y-80957011D01*
X74624887Y-80591689D01*
X75542389Y-79671333D01*
X76785628Y-79671333D01*
X77467456Y-80380271D01*
G37*
X77467456Y-80380271D02*
X77685577Y-80608087D01*
X77850286Y-80783252D01*
X77967665Y-80913353D01*
X78043798Y-81005978D01*
X78084768Y-81068715D01*
X78096658Y-81109150D01*
X78085550Y-81134872D01*
X78077759Y-81141510D01*
X78017811Y-81178645D01*
X77897444Y-81248124D01*
X77730709Y-81342011D01*
X77531659Y-81452372D01*
X77378284Y-81536454D01*
X77171138Y-81651393D01*
X76992786Y-81753997D01*
X76855422Y-81836955D01*
X76771241Y-81892953D01*
X76750333Y-81913032D01*
X76779123Y-81965556D01*
X76812268Y-81998368D01*
X76852651Y-82013841D01*
X76918385Y-82004058D01*
X77022353Y-81964386D01*
X77177432Y-81890193D01*
X77327482Y-81813051D01*
X77505315Y-81721440D01*
X77655714Y-81646327D01*
X77762965Y-81595398D01*
X77811352Y-81576337D01*
X77811540Y-81576333D01*
X77844922Y-81609411D01*
X77910614Y-81696594D01*
X77996672Y-81819808D01*
X78091155Y-81960976D01*
X78182117Y-82102025D01*
X78257615Y-82224879D01*
X78305706Y-82311462D01*
X78316667Y-82340783D01*
X78284179Y-82375325D01*
X78194351Y-82450193D01*
X78058639Y-82556359D01*
X77888495Y-82684794D01*
X77760700Y-82778986D01*
X77204733Y-83185000D01*
X75532406Y-83185000D01*
X75210036Y-82617991D01*
X75098885Y-82421048D01*
X75004309Y-82250725D01*
X74933520Y-82120229D01*
X74893727Y-82042765D01*
X74887667Y-82027593D01*
X74920970Y-81997621D01*
X75013748Y-81927955D01*
X75155299Y-81826269D01*
X75334922Y-81700239D01*
X75541916Y-81557543D01*
X75563843Y-81542561D01*
X76240019Y-81080917D01*
X76145926Y-80992699D01*
X76051833Y-80904482D01*
X75713167Y-81112196D01*
X75560166Y-81203071D01*
X75431490Y-81274042D01*
X75345898Y-81315019D01*
X75324726Y-81321122D01*
X75278372Y-81291632D01*
X75189922Y-81210602D01*
X75072440Y-81090726D01*
X74949919Y-80957011D01*
X74624887Y-80591689D01*
X75542389Y-79671333D01*
X76785628Y-79671333D01*
X77467456Y-80380271D01*
G36*
X81471541Y-80033848D02*
G01*
X81666319Y-80148278D01*
X81835522Y-80249367D01*
X81965367Y-80328752D01*
X82042076Y-80378070D01*
X82055793Y-80388424D01*
X82070192Y-80434911D01*
X82094976Y-80547402D01*
X82127291Y-80709810D01*
X82164282Y-80906045D01*
X82203093Y-81120020D01*
X82240870Y-81335647D01*
X82274759Y-81536836D01*
X82301904Y-81707499D01*
X82319450Y-81831549D01*
X82324543Y-81892896D01*
X82323416Y-81896621D01*
X82290281Y-81922928D01*
X82200532Y-81995342D01*
X82063223Y-82106526D01*
X81887408Y-82249145D01*
X81682140Y-82415861D01*
X81526720Y-82542205D01*
X81303505Y-82721741D01*
X81100036Y-82881634D01*
X80926044Y-83014538D01*
X80791261Y-83113111D01*
X80705417Y-83170008D01*
X80680054Y-83181153D01*
X80608632Y-83168704D01*
X80488843Y-83141221D01*
X80412167Y-83121784D01*
X80301176Y-83093572D01*
X80126137Y-83050159D01*
X79905347Y-82996035D01*
X79657102Y-82935688D01*
X79452847Y-82886384D01*
X78705193Y-82706507D01*
X78575936Y-82025003D01*
X78530003Y-81780980D01*
X78487783Y-81553286D01*
X78452697Y-81360629D01*
X78428168Y-81221717D01*
X78420203Y-81173636D01*
X78412416Y-81112192D01*
X78413999Y-81080022D01*
X79967667Y-81080022D01*
X79967667Y-81569278D01*
X80147583Y-81632963D01*
X80282932Y-81678307D01*
X80374638Y-81692245D01*
X80457031Y-81670691D01*
X80564440Y-81609560D01*
X80615543Y-81577267D01*
X80814329Y-81451200D01*
X80699679Y-81217433D01*
X80635766Y-81094276D01*
X80577953Y-81022075D01*
X80504390Y-80992592D01*
X80393231Y-80997587D01*
X80222625Y-81028821D01*
X80207560Y-81031844D01*
X79967667Y-81080022D01*
X78413999Y-81080022D01*
X78415112Y-81057422D01*
X78435353Y-80998235D01*
X78480202Y-80923540D01*
X78556722Y-80822246D01*
X78671978Y-80683261D01*
X78833031Y-80495496D01*
X78905471Y-80411636D01*
X79074177Y-80219488D01*
X79230148Y-80047513D01*
X79362701Y-79907055D01*
X79461152Y-79809454D01*
X79512524Y-79767207D01*
X79604604Y-79742658D01*
X79778072Y-79725743D01*
X80034020Y-79716386D01*
X80265041Y-79714291D01*
X80922249Y-79713667D01*
X81471541Y-80033848D01*
G37*
X81471541Y-80033848D02*
X81666319Y-80148278D01*
X81835522Y-80249367D01*
X81965367Y-80328752D01*
X82042076Y-80378070D01*
X82055793Y-80388424D01*
X82070192Y-80434911D01*
X82094976Y-80547402D01*
X82127291Y-80709810D01*
X82164282Y-80906045D01*
X82203093Y-81120020D01*
X82240870Y-81335647D01*
X82274759Y-81536836D01*
X82301904Y-81707499D01*
X82319450Y-81831549D01*
X82324543Y-81892896D01*
X82323416Y-81896621D01*
X82290281Y-81922928D01*
X82200532Y-81995342D01*
X82063223Y-82106526D01*
X81887408Y-82249145D01*
X81682140Y-82415861D01*
X81526720Y-82542205D01*
X81303505Y-82721741D01*
X81100036Y-82881634D01*
X80926044Y-83014538D01*
X80791261Y-83113111D01*
X80705417Y-83170008D01*
X80680054Y-83181153D01*
X80608632Y-83168704D01*
X80488843Y-83141221D01*
X80412167Y-83121784D01*
X80301176Y-83093572D01*
X80126137Y-83050159D01*
X79905347Y-82996035D01*
X79657102Y-82935688D01*
X79452847Y-82886384D01*
X78705193Y-82706507D01*
X78575936Y-82025003D01*
X78530003Y-81780980D01*
X78487783Y-81553286D01*
X78452697Y-81360629D01*
X78428168Y-81221717D01*
X78420203Y-81173636D01*
X78412416Y-81112192D01*
X78413999Y-81080022D01*
X79967667Y-81080022D01*
X79967667Y-81569278D01*
X80147583Y-81632963D01*
X80282932Y-81678307D01*
X80374638Y-81692245D01*
X80457031Y-81670691D01*
X80564440Y-81609560D01*
X80615543Y-81577267D01*
X80814329Y-81451200D01*
X80699679Y-81217433D01*
X80635766Y-81094276D01*
X80577953Y-81022075D01*
X80504390Y-80992592D01*
X80393231Y-80997587D01*
X80222625Y-81028821D01*
X80207560Y-81031844D01*
X79967667Y-81080022D01*
X78413999Y-81080022D01*
X78415112Y-81057422D01*
X78435353Y-80998235D01*
X78480202Y-80923540D01*
X78556722Y-80822246D01*
X78671978Y-80683261D01*
X78833031Y-80495496D01*
X78905471Y-80411636D01*
X79074177Y-80219488D01*
X79230148Y-80047513D01*
X79362701Y-79907055D01*
X79461152Y-79809454D01*
X79512524Y-79767207D01*
X79604604Y-79742658D01*
X79778072Y-79725743D01*
X80034020Y-79716386D01*
X80265041Y-79714291D01*
X80922249Y-79713667D01*
X81471541Y-80033848D01*
G36*
X76769015Y-78223255D02*
G01*
X76844441Y-78301066D01*
X76935932Y-78404709D01*
X77025859Y-78513433D01*
X77096591Y-78606484D01*
X77130499Y-78663109D01*
X77131333Y-78667661D01*
X77101655Y-78699655D01*
X77021472Y-78775474D01*
X76904059Y-78883259D01*
X76762689Y-79011152D01*
X76610640Y-79147296D01*
X76461184Y-79279832D01*
X76327599Y-79396902D01*
X76223157Y-79486648D01*
X76161135Y-79537213D01*
X76150163Y-79544097D01*
X76111543Y-79522398D01*
X76015536Y-79463186D01*
X75875794Y-79375015D01*
X75705970Y-79266436D01*
X75670833Y-79243821D01*
X75493674Y-79128820D01*
X75341440Y-79028398D01*
X75228828Y-78952366D01*
X75170532Y-78910532D01*
X75167235Y-78907675D01*
X75173460Y-78861700D01*
X75212541Y-78763537D01*
X75274034Y-78633756D01*
X75347500Y-78492928D01*
X75422496Y-78361622D01*
X75488581Y-78260411D01*
X75509040Y-78234289D01*
X75543576Y-78254320D01*
X75624457Y-78323213D01*
X75738699Y-78429429D01*
X75842185Y-78530339D01*
X76159228Y-78845265D01*
X76264096Y-78718549D01*
X76350550Y-78612109D01*
X76458920Y-78476094D01*
X76526015Y-78390750D01*
X76616300Y-78284233D01*
X76690928Y-78212251D01*
X76727282Y-78192029D01*
X76769015Y-78223255D01*
G37*
X76769015Y-78223255D02*
X76844441Y-78301066D01*
X76935932Y-78404709D01*
X77025859Y-78513433D01*
X77096591Y-78606484D01*
X77130499Y-78663109D01*
X77131333Y-78667661D01*
X77101655Y-78699655D01*
X77021472Y-78775474D01*
X76904059Y-78883259D01*
X76762689Y-79011152D01*
X76610640Y-79147296D01*
X76461184Y-79279832D01*
X76327599Y-79396902D01*
X76223157Y-79486648D01*
X76161135Y-79537213D01*
X76150163Y-79544097D01*
X76111543Y-79522398D01*
X76015536Y-79463186D01*
X75875794Y-79375015D01*
X75705970Y-79266436D01*
X75670833Y-79243821D01*
X75493674Y-79128820D01*
X75341440Y-79028398D01*
X75228828Y-78952366D01*
X75170532Y-78910532D01*
X75167235Y-78907675D01*
X75173460Y-78861700D01*
X75212541Y-78763537D01*
X75274034Y-78633756D01*
X75347500Y-78492928D01*
X75422496Y-78361622D01*
X75488581Y-78260411D01*
X75509040Y-78234289D01*
X75543576Y-78254320D01*
X75624457Y-78323213D01*
X75738699Y-78429429D01*
X75842185Y-78530339D01*
X76159228Y-78845265D01*
X76264096Y-78718549D01*
X76350550Y-78612109D01*
X76458920Y-78476094D01*
X76526015Y-78390750D01*
X76616300Y-78284233D01*
X76690928Y-78212251D01*
X76727282Y-78192029D01*
X76769015Y-78223255D01*
G36*
X84157342Y-64362579D02*
G01*
X84544426Y-64401118D01*
X84883549Y-64467441D01*
X84899500Y-64471689D01*
X85437696Y-64659851D01*
X85935149Y-64919190D01*
X86386218Y-65243837D01*
X86785262Y-65627922D01*
X87126639Y-66065576D01*
X87404709Y-66550928D01*
X87613830Y-67078108D01*
X87697183Y-67382766D01*
X87738155Y-67640278D01*
X87758757Y-67951740D01*
X87759383Y-68289019D01*
X87740431Y-68623985D01*
X87702297Y-68928508D01*
X87673362Y-69072527D01*
X87557524Y-69450996D01*
X87391005Y-69845551D01*
X87189908Y-70220241D01*
X87088090Y-70379167D01*
X86914931Y-70633167D01*
X87090659Y-70812961D01*
X87266388Y-70992755D01*
X87401854Y-70861457D01*
X87537319Y-70730159D01*
X88779576Y-71944217D01*
X89175998Y-72332181D01*
X89515757Y-72666025D01*
X89803236Y-72950301D01*
X90042817Y-73189555D01*
X90238882Y-73388339D01*
X90395814Y-73551200D01*
X90517996Y-73682689D01*
X90609809Y-73787353D01*
X90675636Y-73869743D01*
X90719860Y-73934408D01*
X90746863Y-73985896D01*
X90747215Y-73986723D01*
X90799648Y-74206734D01*
X90778217Y-74420739D01*
X90693507Y-74616667D01*
X90556104Y-74782446D01*
X90376593Y-74906004D01*
X90165559Y-74975271D01*
X89933587Y-74978174D01*
X89885310Y-74969665D01*
X89746101Y-74923705D01*
X89631310Y-74865034D01*
X89567305Y-74815414D01*
X89459334Y-74720582D01*
X89305416Y-74578633D01*
X89103566Y-74387664D01*
X88851802Y-74145771D01*
X88548141Y-73851050D01*
X88190599Y-73501599D01*
X87777195Y-73095512D01*
X87374494Y-72698561D01*
X86462821Y-71798717D01*
X86581226Y-71680313D01*
X86699631Y-71561908D01*
X86514586Y-71380300D01*
X86329541Y-71198693D01*
X86020328Y-71398722D01*
X85637951Y-71613546D01*
X85213005Y-71797014D01*
X84786396Y-71931925D01*
X84706856Y-71951029D01*
X84401997Y-71999486D01*
X84046942Y-72022990D01*
X83672295Y-72021870D01*
X83308664Y-71996455D01*
X82986656Y-71947074D01*
X82919387Y-71931796D01*
X82355641Y-71752594D01*
X81838513Y-71504508D01*
X81371935Y-71191170D01*
X80959839Y-70816213D01*
X80606154Y-70383268D01*
X80314813Y-69895968D01*
X80089747Y-69357945D01*
X80070446Y-69299667D01*
X80021369Y-69136432D01*
X79986783Y-68986154D01*
X79963466Y-68825487D01*
X79948198Y-68631089D01*
X79937760Y-68379614D01*
X79936131Y-68326000D01*
X79931523Y-68007430D01*
X80690952Y-68007430D01*
X80694383Y-68226353D01*
X80698394Y-68324931D01*
X80748071Y-68790645D01*
X80856967Y-69211497D01*
X81031218Y-69601048D01*
X81276958Y-69972858D01*
X81600322Y-70340489D01*
X81618667Y-70359032D01*
X81957986Y-70658859D01*
X82323364Y-70897061D01*
X82729679Y-71081200D01*
X83191814Y-71218841D01*
X83396667Y-71262773D01*
X83527589Y-71274856D01*
X83717623Y-71275944D01*
X83942146Y-71267562D01*
X84176533Y-71251240D01*
X84396160Y-71228503D01*
X84576405Y-71200878D01*
X84645500Y-71185328D01*
X84796422Y-71135964D01*
X84990916Y-71059746D01*
X85197676Y-70969336D01*
X85301667Y-70919926D01*
X85493855Y-70820338D01*
X85650629Y-70723650D01*
X85796621Y-70611595D01*
X85956463Y-70465906D01*
X86084833Y-70339112D01*
X86423101Y-69951699D01*
X86680167Y-69548970D01*
X86859109Y-69123687D01*
X86963005Y-68668612D01*
X86995000Y-68199000D01*
X86954819Y-67687428D01*
X86836623Y-67204135D01*
X86643928Y-66754583D01*
X86380252Y-66344231D01*
X86049113Y-65978541D01*
X85654029Y-65662974D01*
X85198518Y-65402989D01*
X85191815Y-65399811D01*
X84875127Y-65266172D01*
X84574444Y-65177673D01*
X84258952Y-65127704D01*
X83897832Y-65109656D01*
X83837355Y-65109292D01*
X83391735Y-65132121D01*
X82993493Y-65205456D01*
X82618378Y-65334658D01*
X82438424Y-65418594D01*
X81981427Y-65692707D01*
X81589007Y-66020868D01*
X81262648Y-66401245D01*
X81003834Y-66832007D01*
X80814049Y-67311323D01*
X80766252Y-67482087D01*
X80724429Y-67665824D01*
X80700148Y-67830763D01*
X80690952Y-68007430D01*
X79931523Y-68007430D01*
X79931425Y-68000668D01*
X79939205Y-67741532D01*
X79960338Y-67530923D01*
X79980914Y-67415134D01*
X80136389Y-66878042D01*
X80365273Y-66376016D01*
X80661438Y-65915103D01*
X81018756Y-65501348D01*
X81431098Y-65140796D01*
X81892337Y-64839492D01*
X82396344Y-64603482D01*
X82936992Y-64438812D01*
X83015242Y-64421798D01*
X83362058Y-64372107D01*
X83752988Y-64352638D01*
X84157342Y-64362579D01*
G37*
X84157342Y-64362579D02*
X84544426Y-64401118D01*
X84883549Y-64467441D01*
X84899500Y-64471689D01*
X85437696Y-64659851D01*
X85935149Y-64919190D01*
X86386218Y-65243837D01*
X86785262Y-65627922D01*
X87126639Y-66065576D01*
X87404709Y-66550928D01*
X87613830Y-67078108D01*
X87697183Y-67382766D01*
X87738155Y-67640278D01*
X87758757Y-67951740D01*
X87759383Y-68289019D01*
X87740431Y-68623985D01*
X87702297Y-68928508D01*
X87673362Y-69072527D01*
X87557524Y-69450996D01*
X87391005Y-69845551D01*
X87189908Y-70220241D01*
X87088090Y-70379167D01*
X86914931Y-70633167D01*
X87090659Y-70812961D01*
X87266388Y-70992755D01*
X87401854Y-70861457D01*
X87537319Y-70730159D01*
X88779576Y-71944217D01*
X89175998Y-72332181D01*
X89515757Y-72666025D01*
X89803236Y-72950301D01*
X90042817Y-73189555D01*
X90238882Y-73388339D01*
X90395814Y-73551200D01*
X90517996Y-73682689D01*
X90609809Y-73787353D01*
X90675636Y-73869743D01*
X90719860Y-73934408D01*
X90746863Y-73985896D01*
X90747215Y-73986723D01*
X90799648Y-74206734D01*
X90778217Y-74420739D01*
X90693507Y-74616667D01*
X90556104Y-74782446D01*
X90376593Y-74906004D01*
X90165559Y-74975271D01*
X89933587Y-74978174D01*
X89885310Y-74969665D01*
X89746101Y-74923705D01*
X89631310Y-74865034D01*
X89567305Y-74815414D01*
X89459334Y-74720582D01*
X89305416Y-74578633D01*
X89103566Y-74387664D01*
X88851802Y-74145771D01*
X88548141Y-73851050D01*
X88190599Y-73501599D01*
X87777195Y-73095512D01*
X87374494Y-72698561D01*
X86462821Y-71798717D01*
X86581226Y-71680313D01*
X86699631Y-71561908D01*
X86514586Y-71380300D01*
X86329541Y-71198693D01*
X86020328Y-71398722D01*
X85637951Y-71613546D01*
X85213005Y-71797014D01*
X84786396Y-71931925D01*
X84706856Y-71951029D01*
X84401997Y-71999486D01*
X84046942Y-72022990D01*
X83672295Y-72021870D01*
X83308664Y-71996455D01*
X82986656Y-71947074D01*
X82919387Y-71931796D01*
X82355641Y-71752594D01*
X81838513Y-71504508D01*
X81371935Y-71191170D01*
X80959839Y-70816213D01*
X80606154Y-70383268D01*
X80314813Y-69895968D01*
X80089747Y-69357945D01*
X80070446Y-69299667D01*
X80021369Y-69136432D01*
X79986783Y-68986154D01*
X79963466Y-68825487D01*
X79948198Y-68631089D01*
X79937760Y-68379614D01*
X79936131Y-68326000D01*
X79931523Y-68007430D01*
X80690952Y-68007430D01*
X80694383Y-68226353D01*
X80698394Y-68324931D01*
X80748071Y-68790645D01*
X80856967Y-69211497D01*
X81031218Y-69601048D01*
X81276958Y-69972858D01*
X81600322Y-70340489D01*
X81618667Y-70359032D01*
X81957986Y-70658859D01*
X82323364Y-70897061D01*
X82729679Y-71081200D01*
X83191814Y-71218841D01*
X83396667Y-71262773D01*
X83527589Y-71274856D01*
X83717623Y-71275944D01*
X83942146Y-71267562D01*
X84176533Y-71251240D01*
X84396160Y-71228503D01*
X84576405Y-71200878D01*
X84645500Y-71185328D01*
X84796422Y-71135964D01*
X84990916Y-71059746D01*
X85197676Y-70969336D01*
X85301667Y-70919926D01*
X85493855Y-70820338D01*
X85650629Y-70723650D01*
X85796621Y-70611595D01*
X85956463Y-70465906D01*
X86084833Y-70339112D01*
X86423101Y-69951699D01*
X86680167Y-69548970D01*
X86859109Y-69123687D01*
X86963005Y-68668612D01*
X86995000Y-68199000D01*
X86954819Y-67687428D01*
X86836623Y-67204135D01*
X86643928Y-66754583D01*
X86380252Y-66344231D01*
X86049113Y-65978541D01*
X85654029Y-65662974D01*
X85198518Y-65402989D01*
X85191815Y-65399811D01*
X84875127Y-65266172D01*
X84574444Y-65177673D01*
X84258952Y-65127704D01*
X83897832Y-65109656D01*
X83837355Y-65109292D01*
X83391735Y-65132121D01*
X82993493Y-65205456D01*
X82618378Y-65334658D01*
X82438424Y-65418594D01*
X81981427Y-65692707D01*
X81589007Y-66020868D01*
X81262648Y-66401245D01*
X81003834Y-66832007D01*
X80814049Y-67311323D01*
X80766252Y-67482087D01*
X80724429Y-67665824D01*
X80700148Y-67830763D01*
X80690952Y-68007430D01*
X79931523Y-68007430D01*
X79931425Y-68000668D01*
X79939205Y-67741532D01*
X79960338Y-67530923D01*
X79980914Y-67415134D01*
X80136389Y-66878042D01*
X80365273Y-66376016D01*
X80661438Y-65915103D01*
X81018756Y-65501348D01*
X81431098Y-65140796D01*
X81892337Y-64839492D01*
X82396344Y-64603482D01*
X82936992Y-64438812D01*
X83015242Y-64421798D01*
X83362058Y-64372107D01*
X83752988Y-64352638D01*
X84157342Y-64362579D01*
G36*
X76890506Y-73154346D02*
G01*
X77017452Y-73227239D01*
X77018087Y-73227641D01*
X77179958Y-73309614D01*
X77375254Y-73379922D01*
X77491967Y-73409331D01*
X77764896Y-73463580D01*
X77740657Y-73635873D01*
X77699866Y-73851437D01*
X77638928Y-74013432D01*
X77543359Y-74152764D01*
X77454043Y-74247554D01*
X77248524Y-74396165D01*
X77008287Y-74484813D01*
X76755670Y-74509783D01*
X76513012Y-74467362D01*
X76406207Y-74421746D01*
X76198477Y-74269612D01*
X76036747Y-74066454D01*
X75934281Y-73833384D01*
X75903667Y-73621879D01*
X75907239Y-73528265D01*
X75929664Y-73469824D01*
X75988499Y-73433372D01*
X76101306Y-73405727D01*
X76219197Y-73384995D01*
X76417343Y-73326716D01*
X76630596Y-73224261D01*
X76751984Y-73146824D01*
X76808650Y-73129556D01*
X76890506Y-73154346D01*
G37*
X76890506Y-73154346D02*
X77017452Y-73227239D01*
X77018087Y-73227641D01*
X77179958Y-73309614D01*
X77375254Y-73379922D01*
X77491967Y-73409331D01*
X77764896Y-73463580D01*
X77740657Y-73635873D01*
X77699866Y-73851437D01*
X77638928Y-74013432D01*
X77543359Y-74152764D01*
X77454043Y-74247554D01*
X77248524Y-74396165D01*
X77008287Y-74484813D01*
X76755670Y-74509783D01*
X76513012Y-74467362D01*
X76406207Y-74421746D01*
X76198477Y-74269612D01*
X76036747Y-74066454D01*
X75934281Y-73833384D01*
X75903667Y-73621879D01*
X75907239Y-73528265D01*
X75929664Y-73469824D01*
X75988499Y-73433372D01*
X76101306Y-73405727D01*
X76219197Y-73384995D01*
X76417343Y-73326716D01*
X76630596Y-73224261D01*
X76751984Y-73146824D01*
X76808650Y-73129556D01*
X76890506Y-73154346D01*
G36*
X76285483Y-71695369D02*
G01*
X76540349Y-71818500D01*
X76514437Y-72088074D01*
X76511113Y-72352287D01*
X76557708Y-72623964D01*
X76563381Y-72646258D01*
X76603365Y-72827141D01*
X76603943Y-72947988D01*
X76555169Y-73028138D01*
X76447096Y-73086931D01*
X76314244Y-73130700D01*
X76071475Y-73182868D01*
X75862358Y-73179444D01*
X75697803Y-73136373D01*
X75519846Y-73042853D01*
X75347634Y-72903754D01*
X75211924Y-72746076D01*
X75168965Y-72672110D01*
X75133662Y-72555865D01*
X75110004Y-72397679D01*
X75099386Y-72226306D01*
X75103200Y-72070498D01*
X75122841Y-71959008D01*
X75133313Y-71936400D01*
X75190381Y-71899758D01*
X75302531Y-71860089D01*
X75397248Y-71836560D01*
X75576394Y-71785809D01*
X75761122Y-71713661D01*
X75829558Y-71680196D01*
X76030616Y-71572238D01*
X76285483Y-71695369D01*
G37*
X76285483Y-71695369D02*
X76540349Y-71818500D01*
X76514437Y-72088074D01*
X76511113Y-72352287D01*
X76557708Y-72623964D01*
X76563381Y-72646258D01*
X76603365Y-72827141D01*
X76603943Y-72947988D01*
X76555169Y-73028138D01*
X76447096Y-73086931D01*
X76314244Y-73130700D01*
X76071475Y-73182868D01*
X75862358Y-73179444D01*
X75697803Y-73136373D01*
X75519846Y-73042853D01*
X75347634Y-72903754D01*
X75211924Y-72746076D01*
X75168965Y-72672110D01*
X75133662Y-72555865D01*
X75110004Y-72397679D01*
X75099386Y-72226306D01*
X75103200Y-72070498D01*
X75122841Y-71959008D01*
X75133313Y-71936400D01*
X75190381Y-71899758D01*
X75302531Y-71860089D01*
X75397248Y-71836560D01*
X75576394Y-71785809D01*
X75761122Y-71713661D01*
X75829558Y-71680196D01*
X76030616Y-71572238D01*
X76285483Y-71695369D01*
G36*
X77820933Y-71684907D02*
G01*
X77987381Y-71756729D01*
X78164569Y-71815063D01*
X78246274Y-71834369D01*
X78398308Y-71869915D01*
X78487046Y-71918858D01*
X78533612Y-72001049D01*
X78557930Y-72127260D01*
X78555579Y-72384964D01*
X78485748Y-72631781D01*
X78356605Y-72841257D01*
X78327626Y-72873023D01*
X78145721Y-73032578D01*
X77960365Y-73128280D01*
X77738952Y-73175768D01*
X77685385Y-73181031D01*
X77524398Y-73185370D01*
X77392268Y-73160174D01*
X77242493Y-73095960D01*
X77225000Y-73087152D01*
X77008098Y-72939785D01*
X76854680Y-72745417D01*
X76756182Y-72492606D01*
X76744860Y-72445577D01*
X76717135Y-72273528D01*
X76724868Y-72133978D01*
X76744929Y-72052678D01*
X76787821Y-71942042D01*
X76850115Y-71881993D01*
X76963071Y-71843625D01*
X76973900Y-71840951D01*
X77116514Y-71795783D01*
X77284630Y-71728289D01*
X77376433Y-71685436D01*
X77600366Y-71573525D01*
X77820933Y-71684907D01*
G37*
X77820933Y-71684907D02*
X77987381Y-71756729D01*
X78164569Y-71815063D01*
X78246274Y-71834369D01*
X78398308Y-71869915D01*
X78487046Y-71918858D01*
X78533612Y-72001049D01*
X78557930Y-72127260D01*
X78555579Y-72384964D01*
X78485748Y-72631781D01*
X78356605Y-72841257D01*
X78327626Y-72873023D01*
X78145721Y-73032578D01*
X77960365Y-73128280D01*
X77738952Y-73175768D01*
X77685385Y-73181031D01*
X77524398Y-73185370D01*
X77392268Y-73160174D01*
X77242493Y-73095960D01*
X77225000Y-73087152D01*
X77008098Y-72939785D01*
X76854680Y-72745417D01*
X76756182Y-72492606D01*
X76744860Y-72445577D01*
X76717135Y-72273528D01*
X76724868Y-72133978D01*
X76744929Y-72052678D01*
X76787821Y-71942042D01*
X76850115Y-71881993D01*
X76963071Y-71843625D01*
X76973900Y-71840951D01*
X77116514Y-71795783D01*
X77284630Y-71728289D01*
X77376433Y-71685436D01*
X77600366Y-71573525D01*
X77820933Y-71684907D01*
G36*
X75030445Y-69837378D02*
G01*
X75139461Y-69912905D01*
X75176677Y-69947601D01*
X75314782Y-70064850D01*
X75471728Y-70175389D01*
X75518690Y-70203566D01*
X75705214Y-70308781D01*
X75695891Y-70628063D01*
X75697942Y-70836355D01*
X75721829Y-70996213D01*
X75772777Y-71142225D01*
X75773951Y-71144887D01*
X75824119Y-71264886D01*
X75855722Y-71353143D01*
X75861333Y-71378521D01*
X75823994Y-71426176D01*
X75727540Y-71483089D01*
X75595315Y-71539312D01*
X75450666Y-71584899D01*
X75318688Y-71609734D01*
X75140547Y-71607796D01*
X74974813Y-71574661D01*
X74961664Y-71570022D01*
X74720581Y-71440980D01*
X74534992Y-71262489D01*
X74407526Y-71048374D01*
X74340812Y-70812461D01*
X74337478Y-70568579D01*
X74400154Y-70330552D01*
X74531467Y-70112208D01*
X74659949Y-69983156D01*
X74810697Y-69871127D01*
X74927526Y-69822993D01*
X75030445Y-69837378D01*
G37*
X75030445Y-69837378D02*
X75139461Y-69912905D01*
X75176677Y-69947601D01*
X75314782Y-70064850D01*
X75471728Y-70175389D01*
X75518690Y-70203566D01*
X75705214Y-70308781D01*
X75695891Y-70628063D01*
X75697942Y-70836355D01*
X75721829Y-70996213D01*
X75772777Y-71142225D01*
X75773951Y-71144887D01*
X75824119Y-71264886D01*
X75855722Y-71353143D01*
X75861333Y-71378521D01*
X75823994Y-71426176D01*
X75727540Y-71483089D01*
X75595315Y-71539312D01*
X75450666Y-71584899D01*
X75318688Y-71609734D01*
X75140547Y-71607796D01*
X74974813Y-71574661D01*
X74961664Y-71570022D01*
X74720581Y-71440980D01*
X74534992Y-71262489D01*
X74407526Y-71048374D01*
X74340812Y-70812461D01*
X74337478Y-70568579D01*
X74400154Y-70330552D01*
X74531467Y-70112208D01*
X74659949Y-69983156D01*
X74810697Y-69871127D01*
X74927526Y-69822993D01*
X75030445Y-69837378D01*
G36*
X77072243Y-70149947D02*
G01*
X77235950Y-70222253D01*
X77399588Y-70278685D01*
X77507192Y-70303413D01*
X77622192Y-70326406D01*
X77696697Y-70355337D01*
X77707039Y-70364805D01*
X77731903Y-70458422D01*
X77737009Y-70605348D01*
X77724715Y-70777166D01*
X77697384Y-70945459D01*
X77657376Y-71081810D01*
X77645273Y-71108357D01*
X77489501Y-71328118D01*
X77283551Y-71491434D01*
X77043570Y-71591187D01*
X76785704Y-71620258D01*
X76565491Y-71584372D01*
X76344090Y-71478910D01*
X76157897Y-71315242D01*
X76016007Y-71110375D01*
X75927517Y-70881315D01*
X75901523Y-70645066D01*
X75944952Y-70424256D01*
X76002062Y-70340392D01*
X76102538Y-70315713D01*
X76109189Y-70315667D01*
X76206629Y-70296692D01*
X76348863Y-70246687D01*
X76506832Y-70176026D01*
X76522986Y-70167913D01*
X76813833Y-70020160D01*
X77072243Y-70149947D01*
G37*
X77072243Y-70149947D02*
X77235950Y-70222253D01*
X77399588Y-70278685D01*
X77507192Y-70303413D01*
X77622192Y-70326406D01*
X77696697Y-70355337D01*
X77707039Y-70364805D01*
X77731903Y-70458422D01*
X77737009Y-70605348D01*
X77724715Y-70777166D01*
X77697384Y-70945459D01*
X77657376Y-71081810D01*
X77645273Y-71108357D01*
X77489501Y-71328118D01*
X77283551Y-71491434D01*
X77043570Y-71591187D01*
X76785704Y-71620258D01*
X76565491Y-71584372D01*
X76344090Y-71478910D01*
X76157897Y-71315242D01*
X76016007Y-71110375D01*
X75927517Y-70881315D01*
X75901523Y-70645066D01*
X75944952Y-70424256D01*
X76002062Y-70340392D01*
X76102538Y-70315713D01*
X76109189Y-70315667D01*
X76206629Y-70296692D01*
X76348863Y-70246687D01*
X76506832Y-70176026D01*
X76522986Y-70167913D01*
X76813833Y-70020160D01*
X77072243Y-70149947D01*
G36*
X78752873Y-69839037D02*
G01*
X78890818Y-69912817D01*
X78893905Y-69914625D01*
X79087471Y-70073214D01*
X79222395Y-70277061D01*
X79298108Y-70509811D01*
X79314041Y-70755111D01*
X79269627Y-70996607D01*
X79164295Y-71217945D01*
X78997478Y-71402771D01*
X78946977Y-71440749D01*
X78701725Y-71566714D01*
X78444045Y-71619940D01*
X78191181Y-71598435D01*
X78041500Y-71545329D01*
X77896621Y-71474110D01*
X77818088Y-71418414D01*
X77796564Y-71355810D01*
X77822713Y-71263867D01*
X77875337Y-71146135D01*
X77937658Y-70993297D01*
X77968544Y-70859029D01*
X77975208Y-70702561D01*
X77971647Y-70601923D01*
X77956833Y-70300436D01*
X78197307Y-70159720D01*
X78337542Y-70068925D01*
X78457789Y-69975879D01*
X78520899Y-69913335D01*
X78590731Y-69839375D01*
X78660449Y-69814583D01*
X78752873Y-69839037D01*
G37*
X78752873Y-69839037D02*
X78890818Y-69912817D01*
X78893905Y-69914625D01*
X79087471Y-70073214D01*
X79222395Y-70277061D01*
X79298108Y-70509811D01*
X79314041Y-70755111D01*
X79269627Y-70996607D01*
X79164295Y-71217945D01*
X78997478Y-71402771D01*
X78946977Y-71440749D01*
X78701725Y-71566714D01*
X78444045Y-71619940D01*
X78191181Y-71598435D01*
X78041500Y-71545329D01*
X77896621Y-71474110D01*
X77818088Y-71418414D01*
X77796564Y-71355810D01*
X77822713Y-71263867D01*
X77875337Y-71146135D01*
X77937658Y-70993297D01*
X77968544Y-70859029D01*
X77975208Y-70702561D01*
X77971647Y-70601923D01*
X77956833Y-70300436D01*
X78197307Y-70159720D01*
X78337542Y-70068925D01*
X78457789Y-69975879D01*
X78520899Y-69913335D01*
X78590731Y-69839375D01*
X78660449Y-69814583D01*
X78752873Y-69839037D01*
G36*
X76170761Y-68260000D02*
G01*
X76339159Y-68303854D01*
X76486947Y-68364897D01*
X76586377Y-68433275D01*
X76602712Y-68453883D01*
X76608513Y-68517749D01*
X76594358Y-68638803D01*
X76563290Y-68792749D01*
X76556982Y-68818695D01*
X76517345Y-68992883D01*
X76501516Y-69120971D01*
X76508120Y-69237695D01*
X76534980Y-69374321D01*
X76582445Y-69583857D01*
X76609032Y-69727039D01*
X76612334Y-69820136D01*
X76589946Y-69879420D01*
X76539463Y-69921163D01*
X76458478Y-69961636D01*
X76447383Y-69966813D01*
X76193402Y-70053194D01*
X75942300Y-70080087D01*
X75786640Y-70061899D01*
X75549378Y-69965545D01*
X75351544Y-69803811D01*
X75204001Y-69591018D01*
X75117610Y-69341489D01*
X75099333Y-69155663D01*
X75110866Y-68951660D01*
X75154114Y-68794758D01*
X75242051Y-68649493D01*
X75318384Y-68556891D01*
X75529639Y-68377353D01*
X75779160Y-68271566D01*
X76009500Y-68243193D01*
X76170761Y-68260000D01*
G37*
X76170761Y-68260000D02*
X76339159Y-68303854D01*
X76486947Y-68364897D01*
X76586377Y-68433275D01*
X76602712Y-68453883D01*
X76608513Y-68517749D01*
X76594358Y-68638803D01*
X76563290Y-68792749D01*
X76556982Y-68818695D01*
X76517345Y-68992883D01*
X76501516Y-69120971D01*
X76508120Y-69237695D01*
X76534980Y-69374321D01*
X76582445Y-69583857D01*
X76609032Y-69727039D01*
X76612334Y-69820136D01*
X76589946Y-69879420D01*
X76539463Y-69921163D01*
X76458478Y-69961636D01*
X76447383Y-69966813D01*
X76193402Y-70053194D01*
X75942300Y-70080087D01*
X75786640Y-70061899D01*
X75549378Y-69965545D01*
X75351544Y-69803811D01*
X75204001Y-69591018D01*
X75117610Y-69341489D01*
X75099333Y-69155663D01*
X75110866Y-68951660D01*
X75154114Y-68794758D01*
X75242051Y-68649493D01*
X75318384Y-68556891D01*
X75529639Y-68377353D01*
X75779160Y-68271566D01*
X76009500Y-68243193D01*
X76170761Y-68260000D01*
G36*
X78012920Y-68318781D02*
G01*
X78243584Y-68466430D01*
X78298009Y-68517041D01*
X78454581Y-68725768D01*
X78543371Y-68959835D01*
X78566574Y-69203791D01*
X78526387Y-69442181D01*
X78425007Y-69659555D01*
X78264629Y-69840461D01*
X78094473Y-69948947D01*
X77820971Y-70051407D01*
X77583103Y-70081688D01*
X77448833Y-70064305D01*
X77195335Y-69964198D01*
X76987711Y-69805501D01*
X76834496Y-69601542D01*
X76744224Y-69365651D01*
X76725429Y-69111159D01*
X76748187Y-68969950D01*
X76845115Y-68708768D01*
X76994786Y-68509112D01*
X77205073Y-68360707D01*
X77221469Y-68352370D01*
X77491478Y-68260162D01*
X77758757Y-68249496D01*
X78012920Y-68318781D01*
G37*
X78012920Y-68318781D02*
X78243584Y-68466430D01*
X78298009Y-68517041D01*
X78454581Y-68725768D01*
X78543371Y-68959835D01*
X78566574Y-69203791D01*
X78526387Y-69442181D01*
X78425007Y-69659555D01*
X78264629Y-69840461D01*
X78094473Y-69948947D01*
X77820971Y-70051407D01*
X77583103Y-70081688D01*
X77448833Y-70064305D01*
X77195335Y-69964198D01*
X76987711Y-69805501D01*
X76834496Y-69601542D01*
X76744224Y-69365651D01*
X76725429Y-69111159D01*
X76748187Y-68969950D01*
X76845115Y-68708768D01*
X76994786Y-68509112D01*
X77205073Y-68360707D01*
X77221469Y-68352370D01*
X77491478Y-68260162D01*
X77758757Y-68249496D01*
X78012920Y-68318781D01*
%TD*%
D11*
%TO.C,Board2*%
X84840555Y-68137198D03*
%TD*%
%TO.C,J2*%
G36*
G01*
X72351900Y-73520300D02*
X73952100Y-73520300D01*
G75*
G02*
X74053700Y-73621900I0J-101600D01*
G01*
X74053700Y-75222100D01*
G75*
G02*
X73952100Y-75323700I-101600J0D01*
G01*
X72351900Y-75323700D01*
G75*
G02*
X72250300Y-75222100I0J101600D01*
G01*
X72250300Y-73621900D01*
G75*
G02*
X72351900Y-73520300I101600J0D01*
G01*
G37*
D12*
X73152000Y-76962000D03*
X73152000Y-79502000D03*
X73152000Y-82042000D03*
%TD*%
D13*
%TO.C,J3*%
X66040000Y-74168000D03*
%TD*%
D14*
%TO.C,D2*%
X79338000Y-77800000D03*
X79338000Y-74600000D03*
X84238000Y-77800000D03*
X84238000Y-74600000D03*
%TD*%
M02*
