%TF.GenerationSoftware,KiCad,Pcbnew,5.1.10-88a1d61d58~90~ubuntu20.04.1*%
%TF.CreationDate,2021-10-08T11:48:54+02:00*%
%TF.ProjectId,UROS_CO2-brkout,55524f53-5f43-44f3-922d-62726b6f7574,rev?*%
%TF.SameCoordinates,Original*%
%TF.FileFunction,Copper,L1,Top*%
%TF.FilePolarity,Positive*%
%FSLAX46Y46*%
G04 Gerber Fmt 4.6, Leading zero omitted, Abs format (unit mm)*
G04 Created by KiCad (PCBNEW 5.1.10-88a1d61d58~90~ubuntu20.04.1) date 2021-10-08 11:48:54*
%MOMM*%
%LPD*%
G01*
G04 APERTURE LIST*
%TA.AperFunction,EtchedComponent*%
%ADD10C,0.010000*%
%TD*%
%TA.AperFunction,EtchedComponent*%
%ADD11C,0.100000*%
%TD*%
%TA.AperFunction,ComponentPad*%
%ADD12C,0.883477*%
%TD*%
%TA.AperFunction,ComponentPad*%
%ADD13R,1.600200X1.600200*%
%TD*%
%TA.AperFunction,ComponentPad*%
%ADD14C,1.600200*%
%TD*%
%TA.AperFunction,SMDPad,CuDef*%
%ADD15R,0.800000X1.500000*%
%TD*%
%TA.AperFunction,SMDPad,CuDef*%
%ADD16R,1.500000X0.800000*%
%TD*%
%TA.AperFunction,SMDPad,CuDef*%
%ADD17R,0.800000X0.800000*%
%TD*%
%TA.AperFunction,SMDPad,CuDef*%
%ADD18R,1.800000X1.200000*%
%TD*%
%TA.AperFunction,SMDPad,CuDef*%
%ADD19R,1.550000X0.600000*%
%TD*%
%TA.AperFunction,ComponentPad*%
%ADD20R,1.700000X1.700000*%
%TD*%
%TA.AperFunction,ViaPad*%
%ADD21C,0.800000*%
%TD*%
%TA.AperFunction,Conductor*%
%ADD22C,0.400000*%
%TD*%
%TA.AperFunction,Conductor*%
%ADD23C,0.250000*%
%TD*%
%TA.AperFunction,Conductor*%
%ADD24C,0.500000*%
%TD*%
G04 APERTURE END LIST*
D10*
%TO.C,Board2*%
G36*
X82631202Y-56057292D02*
G01*
X82769313Y-56058856D01*
X83016788Y-56064661D01*
X83194933Y-56072685D01*
X83319084Y-56084980D01*
X83404575Y-56103604D01*
X83466743Y-56130610D01*
X83507530Y-56157782D01*
X83569413Y-56206803D01*
X83622931Y-56259213D01*
X83670820Y-56323261D01*
X83715816Y-56407198D01*
X83760653Y-56519276D01*
X83808069Y-56667744D01*
X83860798Y-56860852D01*
X83921576Y-57106852D01*
X83993138Y-57413993D01*
X84078220Y-57790527D01*
X84138770Y-58061586D01*
X84258841Y-58600001D01*
X84362139Y-59062010D01*
X84450265Y-59453858D01*
X84524821Y-59781788D01*
X84587409Y-60052043D01*
X84639631Y-60270867D01*
X84683087Y-60444503D01*
X84719381Y-60579195D01*
X84750112Y-60681186D01*
X84776884Y-60756721D01*
X84801298Y-60812042D01*
X84824955Y-60853392D01*
X84849457Y-60887016D01*
X84869882Y-60911540D01*
X84912842Y-60952632D01*
X84978543Y-60998319D01*
X85074701Y-61052149D01*
X85209033Y-61117667D01*
X85389256Y-61198421D01*
X85623086Y-61297957D01*
X85918241Y-61419822D01*
X86282437Y-61567562D01*
X86402333Y-61615859D01*
X86802235Y-61776038D01*
X87132334Y-61905951D01*
X87401003Y-62007842D01*
X87616615Y-62083955D01*
X87787544Y-62136536D01*
X87922161Y-62167830D01*
X88028840Y-62180081D01*
X88115955Y-62175533D01*
X88191877Y-62156432D01*
X88264980Y-62125023D01*
X88277685Y-62118643D01*
X88339954Y-62083230D01*
X88466800Y-62008024D01*
X88650687Y-61897592D01*
X88884077Y-61756503D01*
X89159434Y-61589326D01*
X89469221Y-61400628D01*
X89805901Y-61194977D01*
X90161936Y-60976943D01*
X90212333Y-60946035D01*
X90570685Y-60727246D01*
X90911261Y-60521265D01*
X91226473Y-60332544D01*
X91508731Y-60165539D01*
X91750445Y-60024703D01*
X91944026Y-59914491D01*
X92081885Y-59839358D01*
X92156431Y-59803756D01*
X92161374Y-59802182D01*
X92307589Y-59782450D01*
X92464252Y-59788053D01*
X92478874Y-59790298D01*
X92522105Y-59801314D01*
X92570944Y-59823434D01*
X92630878Y-59861724D01*
X92707398Y-59921256D01*
X92805994Y-60007099D01*
X92932156Y-60124321D01*
X93091373Y-60277992D01*
X93289136Y-60473183D01*
X93530933Y-60714961D01*
X93822256Y-61008397D01*
X94078857Y-61267757D01*
X94444614Y-61639717D01*
X94764649Y-61969191D01*
X95036438Y-62253478D01*
X95257457Y-62489878D01*
X95425182Y-62675688D01*
X95537089Y-62808209D01*
X95590653Y-62884740D01*
X95591344Y-62886167D01*
X95661116Y-63094128D01*
X95658725Y-63288283D01*
X95611643Y-63438697D01*
X95575975Y-63503703D01*
X95498286Y-63631341D01*
X95383574Y-63813835D01*
X95236836Y-64043404D01*
X95063069Y-64312271D01*
X94867271Y-64612657D01*
X94654438Y-64936784D01*
X94467458Y-65219733D01*
X94244502Y-65556714D01*
X94034349Y-65875425D01*
X93841978Y-66168236D01*
X93672369Y-66427516D01*
X93530504Y-66645634D01*
X93421364Y-66814960D01*
X93349928Y-66927863D01*
X93322648Y-66973626D01*
X93290366Y-67043082D01*
X93269571Y-67112933D01*
X93262830Y-67191033D01*
X93272713Y-67285237D01*
X93301788Y-67403399D01*
X93352623Y-67553372D01*
X93427787Y-67743012D01*
X93529849Y-67980172D01*
X93661377Y-68272706D01*
X93824939Y-68628470D01*
X93956737Y-68912592D01*
X94113148Y-69247266D01*
X94260916Y-69559888D01*
X94395737Y-69841615D01*
X94513305Y-70083601D01*
X94609317Y-70277003D01*
X94679467Y-70412977D01*
X94719451Y-70482680D01*
X94723537Y-70487987D01*
X94759524Y-70522071D01*
X94807872Y-70554582D01*
X94875459Y-70587320D01*
X94969167Y-70622086D01*
X95095876Y-70660679D01*
X95262466Y-70704900D01*
X95475816Y-70756549D01*
X95742808Y-70817428D01*
X96070321Y-70889336D01*
X96465236Y-70974073D01*
X96934433Y-71073440D01*
X97070333Y-71102082D01*
X97467058Y-71186401D01*
X97842171Y-71267594D01*
X98186730Y-71343623D01*
X98491793Y-71412446D01*
X98748417Y-71472025D01*
X98947660Y-71520318D01*
X99080581Y-71555286D01*
X99134917Y-71573092D01*
X99256314Y-71654670D01*
X99362561Y-71763706D01*
X99367750Y-71770802D01*
X99462167Y-71903167D01*
X99462167Y-76058070D01*
X99349528Y-76228252D01*
X99249570Y-76347665D01*
X99133781Y-76443347D01*
X99095528Y-76464962D01*
X99025629Y-76486777D01*
X98881659Y-76522814D01*
X98672651Y-76571101D01*
X98407639Y-76629669D01*
X98095655Y-76696549D01*
X97745733Y-76769771D01*
X97366906Y-76847366D01*
X97043706Y-76912342D01*
X96648440Y-76992032D01*
X96275089Y-77069020D01*
X95932627Y-77141330D01*
X95630031Y-77206991D01*
X95376278Y-77264028D01*
X95180344Y-77310468D01*
X95051206Y-77344338D01*
X95001521Y-77361311D01*
X94887705Y-77440886D01*
X94800363Y-77535398D01*
X94770113Y-77596186D01*
X94712621Y-77725211D01*
X94632138Y-77912116D01*
X94532915Y-78146544D01*
X94419202Y-78418141D01*
X94295249Y-78716550D01*
X94165308Y-79031415D01*
X94033627Y-79352380D01*
X93904458Y-79669089D01*
X93782050Y-79971186D01*
X93670655Y-80248315D01*
X93574523Y-80490120D01*
X93497904Y-80686245D01*
X93445049Y-80826333D01*
X93421785Y-80894285D01*
X93400266Y-81041511D01*
X93407531Y-81183891D01*
X93438702Y-81256557D01*
X93516088Y-81394675D01*
X93637261Y-81594399D01*
X93799791Y-81851884D01*
X94001247Y-82163287D01*
X94239200Y-82524761D01*
X94511220Y-82932463D01*
X94534142Y-82966606D01*
X94822447Y-83397726D01*
X95064091Y-83763277D01*
X95261305Y-84066817D01*
X95416315Y-84311901D01*
X95531349Y-84502088D01*
X95608637Y-84640934D01*
X95650405Y-84731997D01*
X95658936Y-84762307D01*
X95669535Y-84843257D01*
X95670752Y-84918990D01*
X95657967Y-84995251D01*
X95626562Y-85077784D01*
X95571917Y-85172332D01*
X95489413Y-85284639D01*
X95374432Y-85420450D01*
X95222353Y-85585508D01*
X95028559Y-85785557D01*
X94788429Y-86026341D01*
X94497345Y-86313605D01*
X94150687Y-86653092D01*
X94093427Y-86709052D01*
X93742309Y-87051702D01*
X93445580Y-87339514D01*
X93197331Y-87577082D01*
X92991650Y-87769001D01*
X92822626Y-87919867D01*
X92684349Y-88034275D01*
X92570908Y-88116818D01*
X92476392Y-88172091D01*
X92394890Y-88204691D01*
X92320491Y-88219210D01*
X92247285Y-88220245D01*
X92169361Y-88212389D01*
X92160949Y-88211274D01*
X92089715Y-88187696D01*
X91966464Y-88128203D01*
X91788199Y-88031053D01*
X91551917Y-87894505D01*
X91254621Y-87716819D01*
X90893309Y-87496254D01*
X90464982Y-87231069D01*
X90370807Y-87172397D01*
X90030608Y-86960553D01*
X89708767Y-86760709D01*
X89413180Y-86577729D01*
X89151743Y-86416474D01*
X88932353Y-86281807D01*
X88762906Y-86178590D01*
X88651298Y-86111686D01*
X88609858Y-86088035D01*
X88488762Y-86039133D01*
X88363042Y-86022089D01*
X88218324Y-86039689D01*
X88040232Y-86094714D01*
X87814390Y-86189948D01*
X87628273Y-86278089D01*
X87412526Y-86381692D01*
X87254436Y-86452365D01*
X87136271Y-86495717D01*
X87040298Y-86517354D01*
X86948786Y-86522884D01*
X86865231Y-86519370D01*
X86722458Y-86501961D01*
X86602205Y-86463632D01*
X86492392Y-86394085D01*
X86380940Y-86283025D01*
X86255770Y-86120152D01*
X86104802Y-85895171D01*
X86070471Y-85841848D01*
X85947131Y-85651532D01*
X85831597Y-85477086D01*
X85735718Y-85336148D01*
X85671344Y-85246359D01*
X85664837Y-85238014D01*
X85569897Y-85118948D01*
X85171198Y-85231674D01*
X84078863Y-85497064D01*
X82976526Y-85678381D01*
X81864185Y-85775625D01*
X80741841Y-85788796D01*
X79609493Y-85717894D01*
X78467138Y-85562919D01*
X77314776Y-85323871D01*
X77237167Y-85304838D01*
X77045614Y-85255379D01*
X76905133Y-85221923D01*
X76801557Y-85212101D01*
X76720719Y-85233542D01*
X76648452Y-85293873D01*
X76570590Y-85400726D01*
X76472964Y-85561727D01*
X76341409Y-85784508D01*
X76339021Y-85788500D01*
X76193678Y-86027190D01*
X76079154Y-86203524D01*
X75985919Y-86329582D01*
X75904446Y-86417444D01*
X75825207Y-86479189D01*
X75768185Y-86512189D01*
X75640600Y-86560899D01*
X75498966Y-86575658D01*
X75330661Y-86554155D01*
X75123063Y-86494084D01*
X74863550Y-86393135D01*
X74680639Y-86313317D01*
X74413857Y-86195799D01*
X74209527Y-86112515D01*
X74054200Y-86060185D01*
X73934428Y-86035529D01*
X73836759Y-86035267D01*
X73747745Y-86056120D01*
X73700319Y-86074260D01*
X73634505Y-86109967D01*
X73506045Y-86187040D01*
X73323052Y-86300353D01*
X73093640Y-86444780D01*
X72825921Y-86615195D01*
X72528009Y-86806470D01*
X72208018Y-87013481D01*
X72013281Y-87140185D01*
X71686066Y-87352913D01*
X71377879Y-87552069D01*
X71096553Y-87732681D01*
X70849918Y-87889774D01*
X70645806Y-88018373D01*
X70492048Y-88113507D01*
X70396477Y-88170200D01*
X70370108Y-88183777D01*
X70173255Y-88219169D01*
X69959026Y-88193462D01*
X69859351Y-88159035D01*
X69800033Y-88116770D01*
X69688635Y-88021591D01*
X69532616Y-87880778D01*
X69339434Y-87701614D01*
X69116547Y-87491382D01*
X68871413Y-87257362D01*
X68611492Y-87006837D01*
X68344241Y-86747089D01*
X68077118Y-86485400D01*
X67817582Y-86229052D01*
X67573090Y-85985327D01*
X67351103Y-85761507D01*
X67159076Y-85564874D01*
X67004470Y-85402709D01*
X66894742Y-85282296D01*
X66837350Y-85210916D01*
X66833750Y-85204949D01*
X66783627Y-85059125D01*
X66761953Y-84879111D01*
X66770197Y-84702521D01*
X66808929Y-84568633D01*
X66842615Y-84514611D01*
X66918594Y-84398305D01*
X67031658Y-84227518D01*
X67176600Y-84010053D01*
X67348213Y-83753712D01*
X67541288Y-83466300D01*
X67750618Y-83155618D01*
X67864929Y-82986327D01*
X68081577Y-82665024D01*
X68285332Y-82361519D01*
X68470864Y-82083845D01*
X68632846Y-81840034D01*
X68765952Y-81638119D01*
X68864853Y-81486131D01*
X68924223Y-81392103D01*
X68937499Y-81369180D01*
X68968721Y-81302052D01*
X68989569Y-81233597D01*
X68997857Y-81156227D01*
X68991396Y-81062351D01*
X68967999Y-80944379D01*
X68925476Y-80794724D01*
X68861640Y-80605794D01*
X68774303Y-80370000D01*
X68661276Y-80079754D01*
X68520373Y-79727466D01*
X68349403Y-79305545D01*
X68325826Y-79247573D01*
X68179691Y-78890642D01*
X68040922Y-78556089D01*
X67913223Y-78252528D01*
X67800298Y-77988573D01*
X67705853Y-77772839D01*
X67633593Y-77613940D01*
X67587221Y-77520491D01*
X67574509Y-77500557D01*
X67482885Y-77421975D01*
X67373600Y-77352961D01*
X67307225Y-77331003D01*
X67166704Y-77293887D01*
X66960801Y-77243633D01*
X66698275Y-77182258D01*
X66387889Y-77111779D01*
X66038403Y-77034215D01*
X65658580Y-76951584D01*
X65278000Y-76870307D01*
X64739833Y-76755194D01*
X64281042Y-76654463D01*
X63902303Y-76568274D01*
X63604293Y-76496790D01*
X63387688Y-76440170D01*
X63253164Y-76398576D01*
X63206282Y-76377146D01*
X63104907Y-76285855D01*
X63015782Y-76183696D01*
X62995873Y-76154891D01*
X62979247Y-76121536D01*
X62965607Y-76076232D01*
X62954659Y-76011583D01*
X62946106Y-75920191D01*
X62939654Y-75794658D01*
X62935007Y-75627586D01*
X62931869Y-75411578D01*
X62929945Y-75139237D01*
X62928939Y-74803164D01*
X62928556Y-74395963D01*
X62928500Y-73998667D01*
X62928583Y-73526922D01*
X62929031Y-73132438D01*
X62930144Y-72807809D01*
X62932221Y-72545630D01*
X62935564Y-72338493D01*
X62940471Y-72178994D01*
X62942644Y-72140721D01*
X63330667Y-72140721D01*
X63330667Y-73996337D01*
X63330877Y-74443702D01*
X63331705Y-74814106D01*
X63333445Y-75115255D01*
X63336392Y-75354854D01*
X63340840Y-75540610D01*
X63347086Y-75680227D01*
X63355422Y-75781412D01*
X63366144Y-75851870D01*
X63379548Y-75899306D01*
X63395927Y-75931427D01*
X63405173Y-75943965D01*
X63432466Y-75967659D01*
X63480849Y-75992866D01*
X63557180Y-76021295D01*
X63668320Y-76054657D01*
X63821130Y-76094661D01*
X64022470Y-76143020D01*
X64279201Y-76201442D01*
X64598183Y-76271639D01*
X64986275Y-76355320D01*
X65450340Y-76454197D01*
X65459414Y-76456123D01*
X65860762Y-76542055D01*
X66239871Y-76624679D01*
X66588047Y-76701998D01*
X66896593Y-76772012D01*
X67156814Y-76832725D01*
X67360017Y-76882138D01*
X67497506Y-76918254D01*
X67559999Y-76938764D01*
X67806836Y-77109881D01*
X67996709Y-77333342D01*
X68047539Y-77422598D01*
X68085059Y-77504473D01*
X68150387Y-77655128D01*
X68239471Y-77864897D01*
X68348262Y-78124116D01*
X68472709Y-78423120D01*
X68608760Y-78752244D01*
X68752366Y-79101823D01*
X68794854Y-79205667D01*
X68956493Y-79601598D01*
X69088817Y-79927738D01*
X69194749Y-80192583D01*
X69277214Y-80404629D01*
X69339135Y-80572372D01*
X69383436Y-80704310D01*
X69413041Y-80808939D01*
X69430874Y-80894755D01*
X69439859Y-80970255D01*
X69442919Y-81043935D01*
X69443131Y-81089500D01*
X69427655Y-81326976D01*
X69380547Y-81501046D01*
X69364843Y-81534000D01*
X69334404Y-81586876D01*
X69280505Y-81673379D01*
X69200579Y-81797357D01*
X69092059Y-81962659D01*
X68952378Y-82173133D01*
X68778968Y-82432626D01*
X68569262Y-82744987D01*
X68320692Y-83114063D01*
X68030693Y-83543703D01*
X67696695Y-84037756D01*
X67535034Y-84276686D01*
X67410376Y-84466683D01*
X67305122Y-84638154D01*
X67227849Y-84776255D01*
X67187135Y-84866144D01*
X67183000Y-84885855D01*
X67209942Y-84936448D01*
X67291583Y-85036962D01*
X67429147Y-85188681D01*
X67623854Y-85392885D01*
X67876929Y-85650858D01*
X68189593Y-85963881D01*
X68563070Y-86333237D01*
X68564017Y-86334169D01*
X68849607Y-86614455D01*
X69119078Y-86877348D01*
X69365971Y-87116661D01*
X69583827Y-87326204D01*
X69766187Y-87499788D01*
X69906593Y-87631225D01*
X69998584Y-87714324D01*
X70033307Y-87742027D01*
X70154598Y-87768070D01*
X70212321Y-87756054D01*
X70266077Y-87726175D01*
X70382859Y-87654781D01*
X70554912Y-87546817D01*
X70774480Y-87407228D01*
X71033808Y-87240960D01*
X71325141Y-87052956D01*
X71640724Y-86848162D01*
X71843948Y-86715719D01*
X72173955Y-86501453D01*
X72487578Y-86300021D01*
X72776569Y-86116564D01*
X73032678Y-85956220D01*
X73247656Y-85824131D01*
X73413255Y-85725436D01*
X73521226Y-85665274D01*
X73554167Y-85650071D01*
X73726949Y-85606242D01*
X73909745Y-85598115D01*
X74116012Y-85628195D01*
X74359209Y-85698987D01*
X74652796Y-85812995D01*
X74819491Y-85885559D01*
X75029961Y-85977446D01*
X75217596Y-86055317D01*
X75366843Y-86113024D01*
X75462150Y-86144417D01*
X75484087Y-86148333D01*
X75531378Y-86136051D01*
X75586708Y-86093459D01*
X75656625Y-86011940D01*
X75747675Y-85882877D01*
X75866404Y-85697653D01*
X76019359Y-85447651D01*
X76030815Y-85428667D01*
X76194451Y-85169486D01*
X76332608Y-84980201D01*
X76453069Y-84852850D01*
X76563616Y-84779467D01*
X76672031Y-84752090D01*
X76692609Y-84751432D01*
X76780740Y-84761175D01*
X76932208Y-84788010D01*
X77128277Y-84828231D01*
X77350209Y-84878134D01*
X77433443Y-84897905D01*
X78296659Y-85084636D01*
X79125292Y-85217791D01*
X79947724Y-85300394D01*
X80792341Y-85335466D01*
X81503303Y-85331329D01*
X82210103Y-85301583D01*
X82861998Y-85245888D01*
X83485887Y-85160119D01*
X84108670Y-85040151D01*
X84757247Y-84881859D01*
X85152927Y-84771708D01*
X85371410Y-84710894D01*
X85560205Y-84662838D01*
X85704973Y-84630835D01*
X85791374Y-84618177D01*
X85809094Y-84621000D01*
X85838010Y-84665006D01*
X85905927Y-84768548D01*
X86005446Y-84920344D01*
X86129171Y-85109109D01*
X86269704Y-85323559D01*
X86293452Y-85359803D01*
X86480886Y-85639772D01*
X86633321Y-85854420D01*
X86748872Y-86001257D01*
X86825650Y-86077794D01*
X86845787Y-86088353D01*
X86928248Y-86079395D01*
X87076738Y-86030663D01*
X87283998Y-85944785D01*
X87441501Y-85872782D01*
X87651226Y-85778459D01*
X87853424Y-85695205D01*
X88025728Y-85631755D01*
X88145774Y-85596846D01*
X88150189Y-85595971D01*
X88244097Y-85580177D01*
X88332623Y-85572819D01*
X88422736Y-85577234D01*
X88521408Y-85596762D01*
X88635611Y-85634741D01*
X88772315Y-85694509D01*
X88938491Y-85779404D01*
X89141112Y-85892766D01*
X89387147Y-86037933D01*
X89683569Y-86218243D01*
X90037348Y-86437036D01*
X90455455Y-86697648D01*
X90471359Y-86707580D01*
X90837225Y-86934770D01*
X91176052Y-87142622D01*
X91481248Y-87327248D01*
X91746220Y-87484759D01*
X91964377Y-87611268D01*
X92129125Y-87702888D01*
X92233874Y-87755729D01*
X92268654Y-87767583D01*
X92310774Y-87750942D01*
X92385187Y-87698719D01*
X92495670Y-87607463D01*
X92646001Y-87473724D01*
X92839956Y-87294053D01*
X93081313Y-87064998D01*
X93373850Y-86783111D01*
X93721342Y-86444940D01*
X93788159Y-86379645D01*
X94128985Y-86045632D01*
X94413201Y-85765193D01*
X94645434Y-85533438D01*
X94830314Y-85345476D01*
X94972467Y-85196416D01*
X95076523Y-85081365D01*
X95147110Y-84995435D01*
X95188856Y-84933733D01*
X95206389Y-84891368D01*
X95207667Y-84879549D01*
X95185877Y-84816073D01*
X95119893Y-84692383D01*
X95008793Y-84507014D01*
X94851656Y-84258502D01*
X94647559Y-83945383D01*
X94395581Y-83566191D01*
X94165993Y-83224779D01*
X93944835Y-82896098D01*
X93736080Y-82583613D01*
X93545051Y-82295454D01*
X93377069Y-82039747D01*
X93237457Y-81824622D01*
X93131536Y-81658207D01*
X93064629Y-81548629D01*
X93045089Y-81512833D01*
X92985016Y-81311244D01*
X92964930Y-81074791D01*
X92966423Y-81005634D01*
X92973260Y-80934765D01*
X92988240Y-80854201D01*
X93014161Y-80755962D01*
X93053822Y-80632065D01*
X93110023Y-80474531D01*
X93185561Y-80275377D01*
X93283236Y-80026621D01*
X93405847Y-79720284D01*
X93556192Y-79348382D01*
X93660182Y-79092159D01*
X93809631Y-78727079D01*
X93953116Y-78381974D01*
X94086782Y-78065730D01*
X94206775Y-77787235D01*
X94309239Y-77555374D01*
X94390320Y-77379035D01*
X94446163Y-77267105D01*
X94465949Y-77234562D01*
X94521742Y-77164735D01*
X94579534Y-77103851D01*
X94646680Y-77049656D01*
X94730532Y-76999899D01*
X94838443Y-76952326D01*
X94977766Y-76904684D01*
X95155853Y-76854722D01*
X95380058Y-76800185D01*
X95657733Y-76738822D01*
X95996231Y-76668380D01*
X96402905Y-76586606D01*
X96885107Y-76491247D01*
X96904676Y-76487392D01*
X97415541Y-76385870D01*
X97846333Y-76298228D01*
X98200371Y-76223721D01*
X98480975Y-76161600D01*
X98691465Y-76111120D01*
X98835161Y-76071532D01*
X98915382Y-76042089D01*
X98932693Y-76030974D01*
X98952634Y-76002862D01*
X98969047Y-75956467D01*
X98982537Y-75882972D01*
X98993708Y-75773563D01*
X99003166Y-75619426D01*
X99011517Y-75411746D01*
X99019365Y-75141707D01*
X99027315Y-74800496D01*
X99031778Y-74587734D01*
X99042245Y-74065836D01*
X99050504Y-73621943D01*
X99056410Y-73249421D01*
X99059817Y-72941633D01*
X99060581Y-72691944D01*
X99058555Y-72493718D01*
X99053594Y-72340320D01*
X99045555Y-72225114D01*
X99034290Y-72141464D01*
X99019655Y-72082734D01*
X99001505Y-72042289D01*
X98979695Y-72013494D01*
X98975333Y-72009000D01*
X98902068Y-71947057D01*
X98855291Y-71924333D01*
X98808009Y-71915814D01*
X98686065Y-71891387D01*
X98497612Y-71852749D01*
X98250804Y-71801597D01*
X97953793Y-71739627D01*
X97614735Y-71668535D01*
X97241783Y-71590018D01*
X96843089Y-71505772D01*
X96814096Y-71499634D01*
X96324159Y-71395538D01*
X95909940Y-71306263D01*
X95564234Y-71229546D01*
X95279834Y-71163123D01*
X95049534Y-71104734D01*
X94866128Y-71052113D01*
X94722408Y-71002999D01*
X94611170Y-70955129D01*
X94525205Y-70906239D01*
X94457309Y-70854068D01*
X94400275Y-70796351D01*
X94346896Y-70730826D01*
X94340923Y-70723025D01*
X94291284Y-70641967D01*
X94213171Y-70494487D01*
X94111490Y-70291316D01*
X93991144Y-70043182D01*
X93857041Y-69760815D01*
X93714084Y-69454943D01*
X93567179Y-69136296D01*
X93421231Y-68815604D01*
X93281145Y-68503596D01*
X93151826Y-68211001D01*
X93038180Y-67948548D01*
X92945110Y-67726966D01*
X92877524Y-67556985D01*
X92840325Y-67449335D01*
X92835831Y-67430836D01*
X92819507Y-67336224D01*
X92810845Y-67248502D01*
X92813252Y-67160966D01*
X92830133Y-67066909D01*
X92864894Y-66959624D01*
X92920941Y-66832407D01*
X93001679Y-66678550D01*
X93110515Y-66491349D01*
X93250854Y-66264097D01*
X93426102Y-65990087D01*
X93639665Y-65662615D01*
X93894948Y-65274974D01*
X94049671Y-65040805D01*
X94322082Y-64627783D01*
X94550392Y-64279303D01*
X94737998Y-63989814D01*
X94888293Y-63753767D01*
X95004672Y-63565612D01*
X95090530Y-63419800D01*
X95149261Y-63310780D01*
X95184261Y-63233003D01*
X95198922Y-63180920D01*
X95199519Y-63160952D01*
X95183261Y-63117408D01*
X95138761Y-63049503D01*
X95061782Y-62952565D01*
X94948090Y-62821921D01*
X94793449Y-62652898D01*
X94593623Y-62440825D01*
X94344377Y-62181028D01*
X94041475Y-61868834D01*
X93855558Y-61678303D01*
X93577504Y-61394549D01*
X93314948Y-61128069D01*
X93074342Y-60885308D01*
X92862139Y-60672708D01*
X92684791Y-60496716D01*
X92548752Y-60363776D01*
X92460473Y-60280331D01*
X92429647Y-60254209D01*
X92338449Y-60214646D01*
X92248380Y-60237312D01*
X92236589Y-60243310D01*
X92181765Y-60275139D01*
X92062162Y-60346732D01*
X91885179Y-60453595D01*
X91658216Y-60591232D01*
X91388670Y-60755150D01*
X91083942Y-60940855D01*
X90751429Y-61143851D01*
X90398532Y-61359645D01*
X90360500Y-61382921D01*
X90003832Y-61600958D01*
X89665042Y-61807544D01*
X89351794Y-61998039D01*
X89071755Y-62167806D01*
X88832591Y-62312208D01*
X88641968Y-62426605D01*
X88507552Y-62506362D01*
X88437009Y-62546838D01*
X88434333Y-62548252D01*
X88256513Y-62605740D01*
X88018623Y-62628621D01*
X88011000Y-62628732D01*
X87931448Y-62627924D01*
X87852905Y-62621312D01*
X87765750Y-62605736D01*
X87660366Y-62578037D01*
X87527132Y-62535054D01*
X87356429Y-62473625D01*
X87138638Y-62390592D01*
X86864139Y-62282793D01*
X86523313Y-62147067D01*
X86423500Y-62107155D01*
X86097471Y-61976018D01*
X85786124Y-61849459D01*
X85500955Y-61732249D01*
X85253459Y-61629163D01*
X85055131Y-61544973D01*
X84917467Y-61484452D01*
X84870497Y-61462350D01*
X84625553Y-61301301D01*
X84444576Y-61089535D01*
X84352426Y-60910830D01*
X84330749Y-60840018D01*
X84292947Y-60695278D01*
X84241096Y-60485371D01*
X84177272Y-60219055D01*
X84103551Y-59905090D01*
X84022008Y-59552237D01*
X83934719Y-59169254D01*
X83843760Y-58764901D01*
X83841349Y-58754108D01*
X83751532Y-58352603D01*
X83666801Y-57974832D01*
X83589041Y-57629139D01*
X83520139Y-57323862D01*
X83461982Y-57067343D01*
X83416457Y-56867923D01*
X83385449Y-56733943D01*
X83370846Y-56673742D01*
X83370522Y-56672622D01*
X83355710Y-56629064D01*
X83335019Y-56592696D01*
X83301382Y-56563001D01*
X83247731Y-56539462D01*
X83167001Y-56521561D01*
X83052124Y-56508783D01*
X82896034Y-56500609D01*
X82691664Y-56496523D01*
X82431947Y-56496006D01*
X82109818Y-56498543D01*
X81718208Y-56503616D01*
X81250052Y-56510708D01*
X81174167Y-56511892D01*
X80769753Y-56518854D01*
X80389886Y-56526630D01*
X80043234Y-56534955D01*
X79738468Y-56543563D01*
X79484258Y-56552188D01*
X79289272Y-56560564D01*
X79162183Y-56568426D01*
X79112464Y-56575069D01*
X79089730Y-56586703D01*
X79068850Y-56604447D01*
X79048125Y-56634930D01*
X79025858Y-56684783D01*
X79000353Y-56760638D01*
X78969911Y-56869124D01*
X78932835Y-57016873D01*
X78887428Y-57210516D01*
X78831993Y-57456682D01*
X78764831Y-57762003D01*
X78684246Y-58133110D01*
X78588540Y-58576632D01*
X78527366Y-58860689D01*
X78439616Y-59263908D01*
X78354666Y-59645998D01*
X78274612Y-59998108D01*
X78201546Y-60311392D01*
X78137564Y-60576998D01*
X78084759Y-60786078D01*
X78045226Y-60929783D01*
X78021448Y-60998522D01*
X77895521Y-61180749D01*
X77722659Y-61351951D01*
X77537400Y-61478068D01*
X77532834Y-61480386D01*
X77463756Y-61511221D01*
X77326285Y-61569274D01*
X77130651Y-61650345D01*
X76887083Y-61750232D01*
X76605810Y-61864735D01*
X76297062Y-61989654D01*
X76072334Y-62080134D01*
X75670556Y-62240506D01*
X75337814Y-62370203D01*
X75065196Y-62471605D01*
X74843791Y-62547090D01*
X74664688Y-62599040D01*
X74518975Y-62629833D01*
X74397741Y-62641849D01*
X74292075Y-62637469D01*
X74193063Y-62619071D01*
X74125667Y-62599980D01*
X74053098Y-62566116D01*
X73916702Y-62491367D01*
X73724088Y-62380292D01*
X73482866Y-62237450D01*
X73200646Y-62067399D01*
X72885037Y-61874696D01*
X72543651Y-61663901D01*
X72184097Y-61439573D01*
X72093667Y-61382793D01*
X71734480Y-61157776D01*
X71394746Y-60946471D01*
X71081605Y-60753216D01*
X70802199Y-60582346D01*
X70563671Y-60438197D01*
X70373162Y-60325107D01*
X70237814Y-60247410D01*
X70164768Y-60209444D01*
X70156262Y-60206485D01*
X70120589Y-60210779D01*
X70067270Y-60238270D01*
X69990480Y-60294110D01*
X69884391Y-60383453D01*
X69743178Y-60511453D01*
X69561016Y-60683263D01*
X69332077Y-60904036D01*
X69050535Y-61178926D01*
X68992096Y-61236245D01*
X68615294Y-61606048D01*
X68294449Y-61921183D01*
X68025120Y-62186319D01*
X67802868Y-62406124D01*
X67623254Y-62585269D01*
X67481837Y-62728421D01*
X67374179Y-62840249D01*
X67295839Y-62925422D01*
X67242379Y-62988609D01*
X67209358Y-63034479D01*
X67192337Y-63067700D01*
X67186877Y-63092941D01*
X67188538Y-63114871D01*
X67191402Y-63129919D01*
X67218384Y-63184045D01*
X67288317Y-63300664D01*
X67396389Y-63472364D01*
X67537785Y-63691730D01*
X67707693Y-63951351D01*
X67901298Y-64243812D01*
X68113788Y-64561701D01*
X68312131Y-64855930D01*
X68539243Y-65192255D01*
X68753723Y-65511259D01*
X68950462Y-65805246D01*
X69124354Y-66066521D01*
X69270290Y-66287388D01*
X69383164Y-66460153D01*
X69457867Y-66577119D01*
X69487500Y-66626846D01*
X69563528Y-66852296D01*
X69586763Y-67109417D01*
X69554935Y-67361941D01*
X69537300Y-67422548D01*
X69498849Y-67528630D01*
X69434253Y-67695814D01*
X69347931Y-67913431D01*
X69244304Y-68170811D01*
X69127789Y-68457283D01*
X69002806Y-68762178D01*
X68873774Y-69074824D01*
X68745113Y-69384551D01*
X68621242Y-69680690D01*
X68506580Y-69952570D01*
X68405546Y-70189520D01*
X68322559Y-70380871D01*
X68262039Y-70515952D01*
X68228405Y-70584092D01*
X68226929Y-70586453D01*
X68152290Y-70670860D01*
X68037368Y-70770849D01*
X67963299Y-70825640D01*
X67912814Y-70857353D01*
X67851814Y-70888235D01*
X67773078Y-70920220D01*
X67669385Y-70955239D01*
X67533515Y-70995225D01*
X67358248Y-71042110D01*
X67136363Y-71097828D01*
X66860639Y-71164310D01*
X66523856Y-71243489D01*
X66118795Y-71337297D01*
X65644899Y-71446140D01*
X65165214Y-71556339D01*
X64761382Y-71649924D01*
X64426620Y-71728702D01*
X64154143Y-71794477D01*
X63937165Y-71849056D01*
X63768903Y-71894245D01*
X63642571Y-71931848D01*
X63551385Y-71963672D01*
X63488560Y-71991523D01*
X63447311Y-72017205D01*
X63425917Y-72036713D01*
X63330667Y-72140721D01*
X62942644Y-72140721D01*
X62947243Y-72059727D01*
X62956178Y-71973285D01*
X62967577Y-71912263D01*
X62981740Y-71869255D01*
X62998967Y-71836856D01*
X63017059Y-71811021D01*
X63061138Y-71754760D01*
X63108860Y-71704890D01*
X63167262Y-71659184D01*
X63243381Y-71615415D01*
X63344254Y-71571357D01*
X63476918Y-71524785D01*
X63648411Y-71473470D01*
X63865769Y-71415188D01*
X64136031Y-71347712D01*
X64466232Y-71268815D01*
X64863411Y-71176272D01*
X65334605Y-71067855D01*
X65448962Y-71041637D01*
X65953193Y-70924996D01*
X66401842Y-70818996D01*
X66790642Y-70724717D01*
X67115326Y-70643237D01*
X67371628Y-70575637D01*
X67555280Y-70522996D01*
X67662015Y-70486394D01*
X67681732Y-70476785D01*
X67725987Y-70448440D01*
X67765874Y-70416784D01*
X67804961Y-70374469D01*
X67846814Y-70314143D01*
X67894999Y-70228458D01*
X67953083Y-70110063D01*
X68024632Y-69951608D01*
X68113214Y-69745745D01*
X68222395Y-69485122D01*
X68355740Y-69162389D01*
X68516818Y-68770198D01*
X68554812Y-68677568D01*
X68717852Y-68278191D01*
X68850064Y-67948357D01*
X68953706Y-67679677D01*
X69031038Y-67463761D01*
X69084319Y-67292218D01*
X69115809Y-67156659D01*
X69127767Y-67048694D01*
X69122452Y-66959933D01*
X69102125Y-66881986D01*
X69069044Y-66806464D01*
X69062282Y-66793199D01*
X69025062Y-66731838D01*
X68945336Y-66608061D01*
X68828167Y-66429487D01*
X68678618Y-66203739D01*
X68501755Y-65938438D01*
X68302641Y-65641206D01*
X68086340Y-65319663D01*
X67889483Y-65028094D01*
X67631665Y-64646612D01*
X67417326Y-64328374D01*
X67242386Y-64066579D01*
X67102764Y-63854426D01*
X66994379Y-63685114D01*
X66913150Y-63551840D01*
X66854997Y-63447802D01*
X66815840Y-63366201D01*
X66791596Y-63300233D01*
X66778187Y-63243097D01*
X66771530Y-63187992D01*
X66769618Y-63161543D01*
X66772517Y-62970804D01*
X66813932Y-62825372D01*
X66831167Y-62791865D01*
X66876375Y-62735166D01*
X66976031Y-62625962D01*
X67123812Y-62470700D01*
X67313399Y-62275830D01*
X67538468Y-62047800D01*
X67792700Y-61793059D01*
X68069772Y-61518054D01*
X68353586Y-61238814D01*
X68697307Y-60902197D01*
X68986554Y-60620105D01*
X69227430Y-60387909D01*
X69426037Y-60200982D01*
X69588477Y-60054695D01*
X69720850Y-59944419D01*
X69829260Y-59865526D01*
X69919808Y-59813388D01*
X69998596Y-59783377D01*
X70071726Y-59770864D01*
X70145299Y-59771221D01*
X70225418Y-59779819D01*
X70269331Y-59785694D01*
X70334566Y-59806863D01*
X70445913Y-59860130D01*
X70606922Y-59947584D01*
X70821142Y-60071314D01*
X71092124Y-60233408D01*
X71423417Y-60435955D01*
X71818573Y-60681043D01*
X72245733Y-60948508D01*
X72602657Y-61172604D01*
X72939964Y-61384041D01*
X73250454Y-61578330D01*
X73526926Y-61750980D01*
X73762179Y-61897502D01*
X73949012Y-62013406D01*
X74080224Y-62094202D01*
X74148614Y-62135400D01*
X74154633Y-62138766D01*
X74224734Y-62169346D01*
X74301987Y-62186283D01*
X74394682Y-62187299D01*
X74511102Y-62170115D01*
X74659535Y-62132454D01*
X74848268Y-62072034D01*
X75085586Y-61986579D01*
X75379776Y-61873809D01*
X75739124Y-61731446D01*
X75963565Y-61641308D01*
X76288737Y-61508683D01*
X76594230Y-61380987D01*
X76869714Y-61262774D01*
X77104863Y-61158597D01*
X77289346Y-61073009D01*
X77412837Y-61010562D01*
X77458304Y-60982392D01*
X77560225Y-60882916D01*
X77634449Y-60778609D01*
X77645297Y-60755126D01*
X77662639Y-60692279D01*
X77695811Y-60555104D01*
X77742908Y-60352060D01*
X77802026Y-60091607D01*
X77871262Y-59782205D01*
X77948712Y-59432315D01*
X78032472Y-59050396D01*
X78120638Y-58644908D01*
X78132181Y-58591565D01*
X78221212Y-58183674D01*
X78306882Y-57798368D01*
X78387200Y-57444099D01*
X78460177Y-57129320D01*
X78523825Y-56862484D01*
X78576155Y-56652041D01*
X78615176Y-56506446D01*
X78638900Y-56434150D01*
X78640725Y-56430630D01*
X78718375Y-56335259D01*
X78829257Y-56236976D01*
X78857264Y-56216731D01*
X79008824Y-56112833D01*
X80578329Y-56080022D01*
X80967149Y-56072594D01*
X81357182Y-56066430D01*
X81733516Y-56061674D01*
X82081239Y-56058469D01*
X82385438Y-56056961D01*
X82631202Y-56057292D01*
G37*
X82631202Y-56057292D02*
X82769313Y-56058856D01*
X83016788Y-56064661D01*
X83194933Y-56072685D01*
X83319084Y-56084980D01*
X83404575Y-56103604D01*
X83466743Y-56130610D01*
X83507530Y-56157782D01*
X83569413Y-56206803D01*
X83622931Y-56259213D01*
X83670820Y-56323261D01*
X83715816Y-56407198D01*
X83760653Y-56519276D01*
X83808069Y-56667744D01*
X83860798Y-56860852D01*
X83921576Y-57106852D01*
X83993138Y-57413993D01*
X84078220Y-57790527D01*
X84138770Y-58061586D01*
X84258841Y-58600001D01*
X84362139Y-59062010D01*
X84450265Y-59453858D01*
X84524821Y-59781788D01*
X84587409Y-60052043D01*
X84639631Y-60270867D01*
X84683087Y-60444503D01*
X84719381Y-60579195D01*
X84750112Y-60681186D01*
X84776884Y-60756721D01*
X84801298Y-60812042D01*
X84824955Y-60853392D01*
X84849457Y-60887016D01*
X84869882Y-60911540D01*
X84912842Y-60952632D01*
X84978543Y-60998319D01*
X85074701Y-61052149D01*
X85209033Y-61117667D01*
X85389256Y-61198421D01*
X85623086Y-61297957D01*
X85918241Y-61419822D01*
X86282437Y-61567562D01*
X86402333Y-61615859D01*
X86802235Y-61776038D01*
X87132334Y-61905951D01*
X87401003Y-62007842D01*
X87616615Y-62083955D01*
X87787544Y-62136536D01*
X87922161Y-62167830D01*
X88028840Y-62180081D01*
X88115955Y-62175533D01*
X88191877Y-62156432D01*
X88264980Y-62125023D01*
X88277685Y-62118643D01*
X88339954Y-62083230D01*
X88466800Y-62008024D01*
X88650687Y-61897592D01*
X88884077Y-61756503D01*
X89159434Y-61589326D01*
X89469221Y-61400628D01*
X89805901Y-61194977D01*
X90161936Y-60976943D01*
X90212333Y-60946035D01*
X90570685Y-60727246D01*
X90911261Y-60521265D01*
X91226473Y-60332544D01*
X91508731Y-60165539D01*
X91750445Y-60024703D01*
X91944026Y-59914491D01*
X92081885Y-59839358D01*
X92156431Y-59803756D01*
X92161374Y-59802182D01*
X92307589Y-59782450D01*
X92464252Y-59788053D01*
X92478874Y-59790298D01*
X92522105Y-59801314D01*
X92570944Y-59823434D01*
X92630878Y-59861724D01*
X92707398Y-59921256D01*
X92805994Y-60007099D01*
X92932156Y-60124321D01*
X93091373Y-60277992D01*
X93289136Y-60473183D01*
X93530933Y-60714961D01*
X93822256Y-61008397D01*
X94078857Y-61267757D01*
X94444614Y-61639717D01*
X94764649Y-61969191D01*
X95036438Y-62253478D01*
X95257457Y-62489878D01*
X95425182Y-62675688D01*
X95537089Y-62808209D01*
X95590653Y-62884740D01*
X95591344Y-62886167D01*
X95661116Y-63094128D01*
X95658725Y-63288283D01*
X95611643Y-63438697D01*
X95575975Y-63503703D01*
X95498286Y-63631341D01*
X95383574Y-63813835D01*
X95236836Y-64043404D01*
X95063069Y-64312271D01*
X94867271Y-64612657D01*
X94654438Y-64936784D01*
X94467458Y-65219733D01*
X94244502Y-65556714D01*
X94034349Y-65875425D01*
X93841978Y-66168236D01*
X93672369Y-66427516D01*
X93530504Y-66645634D01*
X93421364Y-66814960D01*
X93349928Y-66927863D01*
X93322648Y-66973626D01*
X93290366Y-67043082D01*
X93269571Y-67112933D01*
X93262830Y-67191033D01*
X93272713Y-67285237D01*
X93301788Y-67403399D01*
X93352623Y-67553372D01*
X93427787Y-67743012D01*
X93529849Y-67980172D01*
X93661377Y-68272706D01*
X93824939Y-68628470D01*
X93956737Y-68912592D01*
X94113148Y-69247266D01*
X94260916Y-69559888D01*
X94395737Y-69841615D01*
X94513305Y-70083601D01*
X94609317Y-70277003D01*
X94679467Y-70412977D01*
X94719451Y-70482680D01*
X94723537Y-70487987D01*
X94759524Y-70522071D01*
X94807872Y-70554582D01*
X94875459Y-70587320D01*
X94969167Y-70622086D01*
X95095876Y-70660679D01*
X95262466Y-70704900D01*
X95475816Y-70756549D01*
X95742808Y-70817428D01*
X96070321Y-70889336D01*
X96465236Y-70974073D01*
X96934433Y-71073440D01*
X97070333Y-71102082D01*
X97467058Y-71186401D01*
X97842171Y-71267594D01*
X98186730Y-71343623D01*
X98491793Y-71412446D01*
X98748417Y-71472025D01*
X98947660Y-71520318D01*
X99080581Y-71555286D01*
X99134917Y-71573092D01*
X99256314Y-71654670D01*
X99362561Y-71763706D01*
X99367750Y-71770802D01*
X99462167Y-71903167D01*
X99462167Y-76058070D01*
X99349528Y-76228252D01*
X99249570Y-76347665D01*
X99133781Y-76443347D01*
X99095528Y-76464962D01*
X99025629Y-76486777D01*
X98881659Y-76522814D01*
X98672651Y-76571101D01*
X98407639Y-76629669D01*
X98095655Y-76696549D01*
X97745733Y-76769771D01*
X97366906Y-76847366D01*
X97043706Y-76912342D01*
X96648440Y-76992032D01*
X96275089Y-77069020D01*
X95932627Y-77141330D01*
X95630031Y-77206991D01*
X95376278Y-77264028D01*
X95180344Y-77310468D01*
X95051206Y-77344338D01*
X95001521Y-77361311D01*
X94887705Y-77440886D01*
X94800363Y-77535398D01*
X94770113Y-77596186D01*
X94712621Y-77725211D01*
X94632138Y-77912116D01*
X94532915Y-78146544D01*
X94419202Y-78418141D01*
X94295249Y-78716550D01*
X94165308Y-79031415D01*
X94033627Y-79352380D01*
X93904458Y-79669089D01*
X93782050Y-79971186D01*
X93670655Y-80248315D01*
X93574523Y-80490120D01*
X93497904Y-80686245D01*
X93445049Y-80826333D01*
X93421785Y-80894285D01*
X93400266Y-81041511D01*
X93407531Y-81183891D01*
X93438702Y-81256557D01*
X93516088Y-81394675D01*
X93637261Y-81594399D01*
X93799791Y-81851884D01*
X94001247Y-82163287D01*
X94239200Y-82524761D01*
X94511220Y-82932463D01*
X94534142Y-82966606D01*
X94822447Y-83397726D01*
X95064091Y-83763277D01*
X95261305Y-84066817D01*
X95416315Y-84311901D01*
X95531349Y-84502088D01*
X95608637Y-84640934D01*
X95650405Y-84731997D01*
X95658936Y-84762307D01*
X95669535Y-84843257D01*
X95670752Y-84918990D01*
X95657967Y-84995251D01*
X95626562Y-85077784D01*
X95571917Y-85172332D01*
X95489413Y-85284639D01*
X95374432Y-85420450D01*
X95222353Y-85585508D01*
X95028559Y-85785557D01*
X94788429Y-86026341D01*
X94497345Y-86313605D01*
X94150687Y-86653092D01*
X94093427Y-86709052D01*
X93742309Y-87051702D01*
X93445580Y-87339514D01*
X93197331Y-87577082D01*
X92991650Y-87769001D01*
X92822626Y-87919867D01*
X92684349Y-88034275D01*
X92570908Y-88116818D01*
X92476392Y-88172091D01*
X92394890Y-88204691D01*
X92320491Y-88219210D01*
X92247285Y-88220245D01*
X92169361Y-88212389D01*
X92160949Y-88211274D01*
X92089715Y-88187696D01*
X91966464Y-88128203D01*
X91788199Y-88031053D01*
X91551917Y-87894505D01*
X91254621Y-87716819D01*
X90893309Y-87496254D01*
X90464982Y-87231069D01*
X90370807Y-87172397D01*
X90030608Y-86960553D01*
X89708767Y-86760709D01*
X89413180Y-86577729D01*
X89151743Y-86416474D01*
X88932353Y-86281807D01*
X88762906Y-86178590D01*
X88651298Y-86111686D01*
X88609858Y-86088035D01*
X88488762Y-86039133D01*
X88363042Y-86022089D01*
X88218324Y-86039689D01*
X88040232Y-86094714D01*
X87814390Y-86189948D01*
X87628273Y-86278089D01*
X87412526Y-86381692D01*
X87254436Y-86452365D01*
X87136271Y-86495717D01*
X87040298Y-86517354D01*
X86948786Y-86522884D01*
X86865231Y-86519370D01*
X86722458Y-86501961D01*
X86602205Y-86463632D01*
X86492392Y-86394085D01*
X86380940Y-86283025D01*
X86255770Y-86120152D01*
X86104802Y-85895171D01*
X86070471Y-85841848D01*
X85947131Y-85651532D01*
X85831597Y-85477086D01*
X85735718Y-85336148D01*
X85671344Y-85246359D01*
X85664837Y-85238014D01*
X85569897Y-85118948D01*
X85171198Y-85231674D01*
X84078863Y-85497064D01*
X82976526Y-85678381D01*
X81864185Y-85775625D01*
X80741841Y-85788796D01*
X79609493Y-85717894D01*
X78467138Y-85562919D01*
X77314776Y-85323871D01*
X77237167Y-85304838D01*
X77045614Y-85255379D01*
X76905133Y-85221923D01*
X76801557Y-85212101D01*
X76720719Y-85233542D01*
X76648452Y-85293873D01*
X76570590Y-85400726D01*
X76472964Y-85561727D01*
X76341409Y-85784508D01*
X76339021Y-85788500D01*
X76193678Y-86027190D01*
X76079154Y-86203524D01*
X75985919Y-86329582D01*
X75904446Y-86417444D01*
X75825207Y-86479189D01*
X75768185Y-86512189D01*
X75640600Y-86560899D01*
X75498966Y-86575658D01*
X75330661Y-86554155D01*
X75123063Y-86494084D01*
X74863550Y-86393135D01*
X74680639Y-86313317D01*
X74413857Y-86195799D01*
X74209527Y-86112515D01*
X74054200Y-86060185D01*
X73934428Y-86035529D01*
X73836759Y-86035267D01*
X73747745Y-86056120D01*
X73700319Y-86074260D01*
X73634505Y-86109967D01*
X73506045Y-86187040D01*
X73323052Y-86300353D01*
X73093640Y-86444780D01*
X72825921Y-86615195D01*
X72528009Y-86806470D01*
X72208018Y-87013481D01*
X72013281Y-87140185D01*
X71686066Y-87352913D01*
X71377879Y-87552069D01*
X71096553Y-87732681D01*
X70849918Y-87889774D01*
X70645806Y-88018373D01*
X70492048Y-88113507D01*
X70396477Y-88170200D01*
X70370108Y-88183777D01*
X70173255Y-88219169D01*
X69959026Y-88193462D01*
X69859351Y-88159035D01*
X69800033Y-88116770D01*
X69688635Y-88021591D01*
X69532616Y-87880778D01*
X69339434Y-87701614D01*
X69116547Y-87491382D01*
X68871413Y-87257362D01*
X68611492Y-87006837D01*
X68344241Y-86747089D01*
X68077118Y-86485400D01*
X67817582Y-86229052D01*
X67573090Y-85985327D01*
X67351103Y-85761507D01*
X67159076Y-85564874D01*
X67004470Y-85402709D01*
X66894742Y-85282296D01*
X66837350Y-85210916D01*
X66833750Y-85204949D01*
X66783627Y-85059125D01*
X66761953Y-84879111D01*
X66770197Y-84702521D01*
X66808929Y-84568633D01*
X66842615Y-84514611D01*
X66918594Y-84398305D01*
X67031658Y-84227518D01*
X67176600Y-84010053D01*
X67348213Y-83753712D01*
X67541288Y-83466300D01*
X67750618Y-83155618D01*
X67864929Y-82986327D01*
X68081577Y-82665024D01*
X68285332Y-82361519D01*
X68470864Y-82083845D01*
X68632846Y-81840034D01*
X68765952Y-81638119D01*
X68864853Y-81486131D01*
X68924223Y-81392103D01*
X68937499Y-81369180D01*
X68968721Y-81302052D01*
X68989569Y-81233597D01*
X68997857Y-81156227D01*
X68991396Y-81062351D01*
X68967999Y-80944379D01*
X68925476Y-80794724D01*
X68861640Y-80605794D01*
X68774303Y-80370000D01*
X68661276Y-80079754D01*
X68520373Y-79727466D01*
X68349403Y-79305545D01*
X68325826Y-79247573D01*
X68179691Y-78890642D01*
X68040922Y-78556089D01*
X67913223Y-78252528D01*
X67800298Y-77988573D01*
X67705853Y-77772839D01*
X67633593Y-77613940D01*
X67587221Y-77520491D01*
X67574509Y-77500557D01*
X67482885Y-77421975D01*
X67373600Y-77352961D01*
X67307225Y-77331003D01*
X67166704Y-77293887D01*
X66960801Y-77243633D01*
X66698275Y-77182258D01*
X66387889Y-77111779D01*
X66038403Y-77034215D01*
X65658580Y-76951584D01*
X65278000Y-76870307D01*
X64739833Y-76755194D01*
X64281042Y-76654463D01*
X63902303Y-76568274D01*
X63604293Y-76496790D01*
X63387688Y-76440170D01*
X63253164Y-76398576D01*
X63206282Y-76377146D01*
X63104907Y-76285855D01*
X63015782Y-76183696D01*
X62995873Y-76154891D01*
X62979247Y-76121536D01*
X62965607Y-76076232D01*
X62954659Y-76011583D01*
X62946106Y-75920191D01*
X62939654Y-75794658D01*
X62935007Y-75627586D01*
X62931869Y-75411578D01*
X62929945Y-75139237D01*
X62928939Y-74803164D01*
X62928556Y-74395963D01*
X62928500Y-73998667D01*
X62928583Y-73526922D01*
X62929031Y-73132438D01*
X62930144Y-72807809D01*
X62932221Y-72545630D01*
X62935564Y-72338493D01*
X62940471Y-72178994D01*
X62942644Y-72140721D01*
X63330667Y-72140721D01*
X63330667Y-73996337D01*
X63330877Y-74443702D01*
X63331705Y-74814106D01*
X63333445Y-75115255D01*
X63336392Y-75354854D01*
X63340840Y-75540610D01*
X63347086Y-75680227D01*
X63355422Y-75781412D01*
X63366144Y-75851870D01*
X63379548Y-75899306D01*
X63395927Y-75931427D01*
X63405173Y-75943965D01*
X63432466Y-75967659D01*
X63480849Y-75992866D01*
X63557180Y-76021295D01*
X63668320Y-76054657D01*
X63821130Y-76094661D01*
X64022470Y-76143020D01*
X64279201Y-76201442D01*
X64598183Y-76271639D01*
X64986275Y-76355320D01*
X65450340Y-76454197D01*
X65459414Y-76456123D01*
X65860762Y-76542055D01*
X66239871Y-76624679D01*
X66588047Y-76701998D01*
X66896593Y-76772012D01*
X67156814Y-76832725D01*
X67360017Y-76882138D01*
X67497506Y-76918254D01*
X67559999Y-76938764D01*
X67806836Y-77109881D01*
X67996709Y-77333342D01*
X68047539Y-77422598D01*
X68085059Y-77504473D01*
X68150387Y-77655128D01*
X68239471Y-77864897D01*
X68348262Y-78124116D01*
X68472709Y-78423120D01*
X68608760Y-78752244D01*
X68752366Y-79101823D01*
X68794854Y-79205667D01*
X68956493Y-79601598D01*
X69088817Y-79927738D01*
X69194749Y-80192583D01*
X69277214Y-80404629D01*
X69339135Y-80572372D01*
X69383436Y-80704310D01*
X69413041Y-80808939D01*
X69430874Y-80894755D01*
X69439859Y-80970255D01*
X69442919Y-81043935D01*
X69443131Y-81089500D01*
X69427655Y-81326976D01*
X69380547Y-81501046D01*
X69364843Y-81534000D01*
X69334404Y-81586876D01*
X69280505Y-81673379D01*
X69200579Y-81797357D01*
X69092059Y-81962659D01*
X68952378Y-82173133D01*
X68778968Y-82432626D01*
X68569262Y-82744987D01*
X68320692Y-83114063D01*
X68030693Y-83543703D01*
X67696695Y-84037756D01*
X67535034Y-84276686D01*
X67410376Y-84466683D01*
X67305122Y-84638154D01*
X67227849Y-84776255D01*
X67187135Y-84866144D01*
X67183000Y-84885855D01*
X67209942Y-84936448D01*
X67291583Y-85036962D01*
X67429147Y-85188681D01*
X67623854Y-85392885D01*
X67876929Y-85650858D01*
X68189593Y-85963881D01*
X68563070Y-86333237D01*
X68564017Y-86334169D01*
X68849607Y-86614455D01*
X69119078Y-86877348D01*
X69365971Y-87116661D01*
X69583827Y-87326204D01*
X69766187Y-87499788D01*
X69906593Y-87631225D01*
X69998584Y-87714324D01*
X70033307Y-87742027D01*
X70154598Y-87768070D01*
X70212321Y-87756054D01*
X70266077Y-87726175D01*
X70382859Y-87654781D01*
X70554912Y-87546817D01*
X70774480Y-87407228D01*
X71033808Y-87240960D01*
X71325141Y-87052956D01*
X71640724Y-86848162D01*
X71843948Y-86715719D01*
X72173955Y-86501453D01*
X72487578Y-86300021D01*
X72776569Y-86116564D01*
X73032678Y-85956220D01*
X73247656Y-85824131D01*
X73413255Y-85725436D01*
X73521226Y-85665274D01*
X73554167Y-85650071D01*
X73726949Y-85606242D01*
X73909745Y-85598115D01*
X74116012Y-85628195D01*
X74359209Y-85698987D01*
X74652796Y-85812995D01*
X74819491Y-85885559D01*
X75029961Y-85977446D01*
X75217596Y-86055317D01*
X75366843Y-86113024D01*
X75462150Y-86144417D01*
X75484087Y-86148333D01*
X75531378Y-86136051D01*
X75586708Y-86093459D01*
X75656625Y-86011940D01*
X75747675Y-85882877D01*
X75866404Y-85697653D01*
X76019359Y-85447651D01*
X76030815Y-85428667D01*
X76194451Y-85169486D01*
X76332608Y-84980201D01*
X76453069Y-84852850D01*
X76563616Y-84779467D01*
X76672031Y-84752090D01*
X76692609Y-84751432D01*
X76780740Y-84761175D01*
X76932208Y-84788010D01*
X77128277Y-84828231D01*
X77350209Y-84878134D01*
X77433443Y-84897905D01*
X78296659Y-85084636D01*
X79125292Y-85217791D01*
X79947724Y-85300394D01*
X80792341Y-85335466D01*
X81503303Y-85331329D01*
X82210103Y-85301583D01*
X82861998Y-85245888D01*
X83485887Y-85160119D01*
X84108670Y-85040151D01*
X84757247Y-84881859D01*
X85152927Y-84771708D01*
X85371410Y-84710894D01*
X85560205Y-84662838D01*
X85704973Y-84630835D01*
X85791374Y-84618177D01*
X85809094Y-84621000D01*
X85838010Y-84665006D01*
X85905927Y-84768548D01*
X86005446Y-84920344D01*
X86129171Y-85109109D01*
X86269704Y-85323559D01*
X86293452Y-85359803D01*
X86480886Y-85639772D01*
X86633321Y-85854420D01*
X86748872Y-86001257D01*
X86825650Y-86077794D01*
X86845787Y-86088353D01*
X86928248Y-86079395D01*
X87076738Y-86030663D01*
X87283998Y-85944785D01*
X87441501Y-85872782D01*
X87651226Y-85778459D01*
X87853424Y-85695205D01*
X88025728Y-85631755D01*
X88145774Y-85596846D01*
X88150189Y-85595971D01*
X88244097Y-85580177D01*
X88332623Y-85572819D01*
X88422736Y-85577234D01*
X88521408Y-85596762D01*
X88635611Y-85634741D01*
X88772315Y-85694509D01*
X88938491Y-85779404D01*
X89141112Y-85892766D01*
X89387147Y-86037933D01*
X89683569Y-86218243D01*
X90037348Y-86437036D01*
X90455455Y-86697648D01*
X90471359Y-86707580D01*
X90837225Y-86934770D01*
X91176052Y-87142622D01*
X91481248Y-87327248D01*
X91746220Y-87484759D01*
X91964377Y-87611268D01*
X92129125Y-87702888D01*
X92233874Y-87755729D01*
X92268654Y-87767583D01*
X92310774Y-87750942D01*
X92385187Y-87698719D01*
X92495670Y-87607463D01*
X92646001Y-87473724D01*
X92839956Y-87294053D01*
X93081313Y-87064998D01*
X93373850Y-86783111D01*
X93721342Y-86444940D01*
X93788159Y-86379645D01*
X94128985Y-86045632D01*
X94413201Y-85765193D01*
X94645434Y-85533438D01*
X94830314Y-85345476D01*
X94972467Y-85196416D01*
X95076523Y-85081365D01*
X95147110Y-84995435D01*
X95188856Y-84933733D01*
X95206389Y-84891368D01*
X95207667Y-84879549D01*
X95185877Y-84816073D01*
X95119893Y-84692383D01*
X95008793Y-84507014D01*
X94851656Y-84258502D01*
X94647559Y-83945383D01*
X94395581Y-83566191D01*
X94165993Y-83224779D01*
X93944835Y-82896098D01*
X93736080Y-82583613D01*
X93545051Y-82295454D01*
X93377069Y-82039747D01*
X93237457Y-81824622D01*
X93131536Y-81658207D01*
X93064629Y-81548629D01*
X93045089Y-81512833D01*
X92985016Y-81311244D01*
X92964930Y-81074791D01*
X92966423Y-81005634D01*
X92973260Y-80934765D01*
X92988240Y-80854201D01*
X93014161Y-80755962D01*
X93053822Y-80632065D01*
X93110023Y-80474531D01*
X93185561Y-80275377D01*
X93283236Y-80026621D01*
X93405847Y-79720284D01*
X93556192Y-79348382D01*
X93660182Y-79092159D01*
X93809631Y-78727079D01*
X93953116Y-78381974D01*
X94086782Y-78065730D01*
X94206775Y-77787235D01*
X94309239Y-77555374D01*
X94390320Y-77379035D01*
X94446163Y-77267105D01*
X94465949Y-77234562D01*
X94521742Y-77164735D01*
X94579534Y-77103851D01*
X94646680Y-77049656D01*
X94730532Y-76999899D01*
X94838443Y-76952326D01*
X94977766Y-76904684D01*
X95155853Y-76854722D01*
X95380058Y-76800185D01*
X95657733Y-76738822D01*
X95996231Y-76668380D01*
X96402905Y-76586606D01*
X96885107Y-76491247D01*
X96904676Y-76487392D01*
X97415541Y-76385870D01*
X97846333Y-76298228D01*
X98200371Y-76223721D01*
X98480975Y-76161600D01*
X98691465Y-76111120D01*
X98835161Y-76071532D01*
X98915382Y-76042089D01*
X98932693Y-76030974D01*
X98952634Y-76002862D01*
X98969047Y-75956467D01*
X98982537Y-75882972D01*
X98993708Y-75773563D01*
X99003166Y-75619426D01*
X99011517Y-75411746D01*
X99019365Y-75141707D01*
X99027315Y-74800496D01*
X99031778Y-74587734D01*
X99042245Y-74065836D01*
X99050504Y-73621943D01*
X99056410Y-73249421D01*
X99059817Y-72941633D01*
X99060581Y-72691944D01*
X99058555Y-72493718D01*
X99053594Y-72340320D01*
X99045555Y-72225114D01*
X99034290Y-72141464D01*
X99019655Y-72082734D01*
X99001505Y-72042289D01*
X98979695Y-72013494D01*
X98975333Y-72009000D01*
X98902068Y-71947057D01*
X98855291Y-71924333D01*
X98808009Y-71915814D01*
X98686065Y-71891387D01*
X98497612Y-71852749D01*
X98250804Y-71801597D01*
X97953793Y-71739627D01*
X97614735Y-71668535D01*
X97241783Y-71590018D01*
X96843089Y-71505772D01*
X96814096Y-71499634D01*
X96324159Y-71395538D01*
X95909940Y-71306263D01*
X95564234Y-71229546D01*
X95279834Y-71163123D01*
X95049534Y-71104734D01*
X94866128Y-71052113D01*
X94722408Y-71002999D01*
X94611170Y-70955129D01*
X94525205Y-70906239D01*
X94457309Y-70854068D01*
X94400275Y-70796351D01*
X94346896Y-70730826D01*
X94340923Y-70723025D01*
X94291284Y-70641967D01*
X94213171Y-70494487D01*
X94111490Y-70291316D01*
X93991144Y-70043182D01*
X93857041Y-69760815D01*
X93714084Y-69454943D01*
X93567179Y-69136296D01*
X93421231Y-68815604D01*
X93281145Y-68503596D01*
X93151826Y-68211001D01*
X93038180Y-67948548D01*
X92945110Y-67726966D01*
X92877524Y-67556985D01*
X92840325Y-67449335D01*
X92835831Y-67430836D01*
X92819507Y-67336224D01*
X92810845Y-67248502D01*
X92813252Y-67160966D01*
X92830133Y-67066909D01*
X92864894Y-66959624D01*
X92920941Y-66832407D01*
X93001679Y-66678550D01*
X93110515Y-66491349D01*
X93250854Y-66264097D01*
X93426102Y-65990087D01*
X93639665Y-65662615D01*
X93894948Y-65274974D01*
X94049671Y-65040805D01*
X94322082Y-64627783D01*
X94550392Y-64279303D01*
X94737998Y-63989814D01*
X94888293Y-63753767D01*
X95004672Y-63565612D01*
X95090530Y-63419800D01*
X95149261Y-63310780D01*
X95184261Y-63233003D01*
X95198922Y-63180920D01*
X95199519Y-63160952D01*
X95183261Y-63117408D01*
X95138761Y-63049503D01*
X95061782Y-62952565D01*
X94948090Y-62821921D01*
X94793449Y-62652898D01*
X94593623Y-62440825D01*
X94344377Y-62181028D01*
X94041475Y-61868834D01*
X93855558Y-61678303D01*
X93577504Y-61394549D01*
X93314948Y-61128069D01*
X93074342Y-60885308D01*
X92862139Y-60672708D01*
X92684791Y-60496716D01*
X92548752Y-60363776D01*
X92460473Y-60280331D01*
X92429647Y-60254209D01*
X92338449Y-60214646D01*
X92248380Y-60237312D01*
X92236589Y-60243310D01*
X92181765Y-60275139D01*
X92062162Y-60346732D01*
X91885179Y-60453595D01*
X91658216Y-60591232D01*
X91388670Y-60755150D01*
X91083942Y-60940855D01*
X90751429Y-61143851D01*
X90398532Y-61359645D01*
X90360500Y-61382921D01*
X90003832Y-61600958D01*
X89665042Y-61807544D01*
X89351794Y-61998039D01*
X89071755Y-62167806D01*
X88832591Y-62312208D01*
X88641968Y-62426605D01*
X88507552Y-62506362D01*
X88437009Y-62546838D01*
X88434333Y-62548252D01*
X88256513Y-62605740D01*
X88018623Y-62628621D01*
X88011000Y-62628732D01*
X87931448Y-62627924D01*
X87852905Y-62621312D01*
X87765750Y-62605736D01*
X87660366Y-62578037D01*
X87527132Y-62535054D01*
X87356429Y-62473625D01*
X87138638Y-62390592D01*
X86864139Y-62282793D01*
X86523313Y-62147067D01*
X86423500Y-62107155D01*
X86097471Y-61976018D01*
X85786124Y-61849459D01*
X85500955Y-61732249D01*
X85253459Y-61629163D01*
X85055131Y-61544973D01*
X84917467Y-61484452D01*
X84870497Y-61462350D01*
X84625553Y-61301301D01*
X84444576Y-61089535D01*
X84352426Y-60910830D01*
X84330749Y-60840018D01*
X84292947Y-60695278D01*
X84241096Y-60485371D01*
X84177272Y-60219055D01*
X84103551Y-59905090D01*
X84022008Y-59552237D01*
X83934719Y-59169254D01*
X83843760Y-58764901D01*
X83841349Y-58754108D01*
X83751532Y-58352603D01*
X83666801Y-57974832D01*
X83589041Y-57629139D01*
X83520139Y-57323862D01*
X83461982Y-57067343D01*
X83416457Y-56867923D01*
X83385449Y-56733943D01*
X83370846Y-56673742D01*
X83370522Y-56672622D01*
X83355710Y-56629064D01*
X83335019Y-56592696D01*
X83301382Y-56563001D01*
X83247731Y-56539462D01*
X83167001Y-56521561D01*
X83052124Y-56508783D01*
X82896034Y-56500609D01*
X82691664Y-56496523D01*
X82431947Y-56496006D01*
X82109818Y-56498543D01*
X81718208Y-56503616D01*
X81250052Y-56510708D01*
X81174167Y-56511892D01*
X80769753Y-56518854D01*
X80389886Y-56526630D01*
X80043234Y-56534955D01*
X79738468Y-56543563D01*
X79484258Y-56552188D01*
X79289272Y-56560564D01*
X79162183Y-56568426D01*
X79112464Y-56575069D01*
X79089730Y-56586703D01*
X79068850Y-56604447D01*
X79048125Y-56634930D01*
X79025858Y-56684783D01*
X79000353Y-56760638D01*
X78969911Y-56869124D01*
X78932835Y-57016873D01*
X78887428Y-57210516D01*
X78831993Y-57456682D01*
X78764831Y-57762003D01*
X78684246Y-58133110D01*
X78588540Y-58576632D01*
X78527366Y-58860689D01*
X78439616Y-59263908D01*
X78354666Y-59645998D01*
X78274612Y-59998108D01*
X78201546Y-60311392D01*
X78137564Y-60576998D01*
X78084759Y-60786078D01*
X78045226Y-60929783D01*
X78021448Y-60998522D01*
X77895521Y-61180749D01*
X77722659Y-61351951D01*
X77537400Y-61478068D01*
X77532834Y-61480386D01*
X77463756Y-61511221D01*
X77326285Y-61569274D01*
X77130651Y-61650345D01*
X76887083Y-61750232D01*
X76605810Y-61864735D01*
X76297062Y-61989654D01*
X76072334Y-62080134D01*
X75670556Y-62240506D01*
X75337814Y-62370203D01*
X75065196Y-62471605D01*
X74843791Y-62547090D01*
X74664688Y-62599040D01*
X74518975Y-62629833D01*
X74397741Y-62641849D01*
X74292075Y-62637469D01*
X74193063Y-62619071D01*
X74125667Y-62599980D01*
X74053098Y-62566116D01*
X73916702Y-62491367D01*
X73724088Y-62380292D01*
X73482866Y-62237450D01*
X73200646Y-62067399D01*
X72885037Y-61874696D01*
X72543651Y-61663901D01*
X72184097Y-61439573D01*
X72093667Y-61382793D01*
X71734480Y-61157776D01*
X71394746Y-60946471D01*
X71081605Y-60753216D01*
X70802199Y-60582346D01*
X70563671Y-60438197D01*
X70373162Y-60325107D01*
X70237814Y-60247410D01*
X70164768Y-60209444D01*
X70156262Y-60206485D01*
X70120589Y-60210779D01*
X70067270Y-60238270D01*
X69990480Y-60294110D01*
X69884391Y-60383453D01*
X69743178Y-60511453D01*
X69561016Y-60683263D01*
X69332077Y-60904036D01*
X69050535Y-61178926D01*
X68992096Y-61236245D01*
X68615294Y-61606048D01*
X68294449Y-61921183D01*
X68025120Y-62186319D01*
X67802868Y-62406124D01*
X67623254Y-62585269D01*
X67481837Y-62728421D01*
X67374179Y-62840249D01*
X67295839Y-62925422D01*
X67242379Y-62988609D01*
X67209358Y-63034479D01*
X67192337Y-63067700D01*
X67186877Y-63092941D01*
X67188538Y-63114871D01*
X67191402Y-63129919D01*
X67218384Y-63184045D01*
X67288317Y-63300664D01*
X67396389Y-63472364D01*
X67537785Y-63691730D01*
X67707693Y-63951351D01*
X67901298Y-64243812D01*
X68113788Y-64561701D01*
X68312131Y-64855930D01*
X68539243Y-65192255D01*
X68753723Y-65511259D01*
X68950462Y-65805246D01*
X69124354Y-66066521D01*
X69270290Y-66287388D01*
X69383164Y-66460153D01*
X69457867Y-66577119D01*
X69487500Y-66626846D01*
X69563528Y-66852296D01*
X69586763Y-67109417D01*
X69554935Y-67361941D01*
X69537300Y-67422548D01*
X69498849Y-67528630D01*
X69434253Y-67695814D01*
X69347931Y-67913431D01*
X69244304Y-68170811D01*
X69127789Y-68457283D01*
X69002806Y-68762178D01*
X68873774Y-69074824D01*
X68745113Y-69384551D01*
X68621242Y-69680690D01*
X68506580Y-69952570D01*
X68405546Y-70189520D01*
X68322559Y-70380871D01*
X68262039Y-70515952D01*
X68228405Y-70584092D01*
X68226929Y-70586453D01*
X68152290Y-70670860D01*
X68037368Y-70770849D01*
X67963299Y-70825640D01*
X67912814Y-70857353D01*
X67851814Y-70888235D01*
X67773078Y-70920220D01*
X67669385Y-70955239D01*
X67533515Y-70995225D01*
X67358248Y-71042110D01*
X67136363Y-71097828D01*
X66860639Y-71164310D01*
X66523856Y-71243489D01*
X66118795Y-71337297D01*
X65644899Y-71446140D01*
X65165214Y-71556339D01*
X64761382Y-71649924D01*
X64426620Y-71728702D01*
X64154143Y-71794477D01*
X63937165Y-71849056D01*
X63768903Y-71894245D01*
X63642571Y-71931848D01*
X63551385Y-71963672D01*
X63488560Y-71991523D01*
X63447311Y-72017205D01*
X63425917Y-72036713D01*
X63330667Y-72140721D01*
X62942644Y-72140721D01*
X62947243Y-72059727D01*
X62956178Y-71973285D01*
X62967577Y-71912263D01*
X62981740Y-71869255D01*
X62998967Y-71836856D01*
X63017059Y-71811021D01*
X63061138Y-71754760D01*
X63108860Y-71704890D01*
X63167262Y-71659184D01*
X63243381Y-71615415D01*
X63344254Y-71571357D01*
X63476918Y-71524785D01*
X63648411Y-71473470D01*
X63865769Y-71415188D01*
X64136031Y-71347712D01*
X64466232Y-71268815D01*
X64863411Y-71176272D01*
X65334605Y-71067855D01*
X65448962Y-71041637D01*
X65953193Y-70924996D01*
X66401842Y-70818996D01*
X66790642Y-70724717D01*
X67115326Y-70643237D01*
X67371628Y-70575637D01*
X67555280Y-70522996D01*
X67662015Y-70486394D01*
X67681732Y-70476785D01*
X67725987Y-70448440D01*
X67765874Y-70416784D01*
X67804961Y-70374469D01*
X67846814Y-70314143D01*
X67894999Y-70228458D01*
X67953083Y-70110063D01*
X68024632Y-69951608D01*
X68113214Y-69745745D01*
X68222395Y-69485122D01*
X68355740Y-69162389D01*
X68516818Y-68770198D01*
X68554812Y-68677568D01*
X68717852Y-68278191D01*
X68850064Y-67948357D01*
X68953706Y-67679677D01*
X69031038Y-67463761D01*
X69084319Y-67292218D01*
X69115809Y-67156659D01*
X69127767Y-67048694D01*
X69122452Y-66959933D01*
X69102125Y-66881986D01*
X69069044Y-66806464D01*
X69062282Y-66793199D01*
X69025062Y-66731838D01*
X68945336Y-66608061D01*
X68828167Y-66429487D01*
X68678618Y-66203739D01*
X68501755Y-65938438D01*
X68302641Y-65641206D01*
X68086340Y-65319663D01*
X67889483Y-65028094D01*
X67631665Y-64646612D01*
X67417326Y-64328374D01*
X67242386Y-64066579D01*
X67102764Y-63854426D01*
X66994379Y-63685114D01*
X66913150Y-63551840D01*
X66854997Y-63447802D01*
X66815840Y-63366201D01*
X66791596Y-63300233D01*
X66778187Y-63243097D01*
X66771530Y-63187992D01*
X66769618Y-63161543D01*
X66772517Y-62970804D01*
X66813932Y-62825372D01*
X66831167Y-62791865D01*
X66876375Y-62735166D01*
X66976031Y-62625962D01*
X67123812Y-62470700D01*
X67313399Y-62275830D01*
X67538468Y-62047800D01*
X67792700Y-61793059D01*
X68069772Y-61518054D01*
X68353586Y-61238814D01*
X68697307Y-60902197D01*
X68986554Y-60620105D01*
X69227430Y-60387909D01*
X69426037Y-60200982D01*
X69588477Y-60054695D01*
X69720850Y-59944419D01*
X69829260Y-59865526D01*
X69919808Y-59813388D01*
X69998596Y-59783377D01*
X70071726Y-59770864D01*
X70145299Y-59771221D01*
X70225418Y-59779819D01*
X70269331Y-59785694D01*
X70334566Y-59806863D01*
X70445913Y-59860130D01*
X70606922Y-59947584D01*
X70821142Y-60071314D01*
X71092124Y-60233408D01*
X71423417Y-60435955D01*
X71818573Y-60681043D01*
X72245733Y-60948508D01*
X72602657Y-61172604D01*
X72939964Y-61384041D01*
X73250454Y-61578330D01*
X73526926Y-61750980D01*
X73762179Y-61897502D01*
X73949012Y-62013406D01*
X74080224Y-62094202D01*
X74148614Y-62135400D01*
X74154633Y-62138766D01*
X74224734Y-62169346D01*
X74301987Y-62186283D01*
X74394682Y-62187299D01*
X74511102Y-62170115D01*
X74659535Y-62132454D01*
X74848268Y-62072034D01*
X75085586Y-61986579D01*
X75379776Y-61873809D01*
X75739124Y-61731446D01*
X75963565Y-61641308D01*
X76288737Y-61508683D01*
X76594230Y-61380987D01*
X76869714Y-61262774D01*
X77104863Y-61158597D01*
X77289346Y-61073009D01*
X77412837Y-61010562D01*
X77458304Y-60982392D01*
X77560225Y-60882916D01*
X77634449Y-60778609D01*
X77645297Y-60755126D01*
X77662639Y-60692279D01*
X77695811Y-60555104D01*
X77742908Y-60352060D01*
X77802026Y-60091607D01*
X77871262Y-59782205D01*
X77948712Y-59432315D01*
X78032472Y-59050396D01*
X78120638Y-58644908D01*
X78132181Y-58591565D01*
X78221212Y-58183674D01*
X78306882Y-57798368D01*
X78387200Y-57444099D01*
X78460177Y-57129320D01*
X78523825Y-56862484D01*
X78576155Y-56652041D01*
X78615176Y-56506446D01*
X78638900Y-56434150D01*
X78640725Y-56430630D01*
X78718375Y-56335259D01*
X78829257Y-56236976D01*
X78857264Y-56216731D01*
X79008824Y-56112833D01*
X80578329Y-56080022D01*
X80967149Y-56072594D01*
X81357182Y-56066430D01*
X81733516Y-56061674D01*
X82081239Y-56058469D01*
X82385438Y-56056961D01*
X82631202Y-56057292D01*
G36*
X76581000Y-80094667D02*
G01*
X75819000Y-80094667D01*
X75819000Y-79375000D01*
X76581000Y-79375000D01*
X76581000Y-80094667D01*
G37*
X76581000Y-80094667D02*
X75819000Y-80094667D01*
X75819000Y-79375000D01*
X76581000Y-79375000D01*
X76581000Y-80094667D01*
G36*
X76581000Y-79121000D02*
G01*
X75819000Y-79121000D01*
X75819000Y-78359000D01*
X76581000Y-78359000D01*
X76581000Y-79121000D01*
G37*
X76581000Y-79121000D02*
X75819000Y-79121000D01*
X75819000Y-78359000D01*
X76581000Y-78359000D01*
X76581000Y-79121000D01*
G36*
X76581000Y-78147333D02*
G01*
X75819000Y-78147333D01*
X75819000Y-77385333D01*
X76581000Y-77385333D01*
X76581000Y-78147333D01*
G37*
X76581000Y-78147333D02*
X75819000Y-78147333D01*
X75819000Y-77385333D01*
X76581000Y-77385333D01*
X76581000Y-78147333D01*
G36*
X76581000Y-77131333D02*
G01*
X75819000Y-77131333D01*
X75819000Y-76369333D01*
X76581000Y-76369333D01*
X76581000Y-77131333D01*
G37*
X76581000Y-77131333D02*
X75819000Y-77131333D01*
X75819000Y-76369333D01*
X76581000Y-76369333D01*
X76581000Y-77131333D01*
G36*
X92450147Y-74248361D02*
G01*
X92477525Y-74313423D01*
X92451513Y-74388051D01*
X92401700Y-74440507D01*
X92296215Y-74526982D01*
X92150478Y-74635512D01*
X91979908Y-74754132D01*
X91978217Y-74755270D01*
X91760023Y-74901844D01*
X91603616Y-75012587D01*
X91502110Y-75101187D01*
X91448616Y-75181331D01*
X91436247Y-75266709D01*
X91458115Y-75371007D01*
X91507333Y-75507914D01*
X91547254Y-75611740D01*
X91642166Y-75851709D01*
X91718290Y-76020579D01*
X91781374Y-76128283D01*
X91837164Y-76184754D01*
X91887634Y-76200000D01*
X91952238Y-76184112D01*
X92074421Y-76141299D01*
X92234310Y-76078836D01*
X92350167Y-76030667D01*
X92622408Y-75925831D01*
X92833755Y-75870647D01*
X92991458Y-75864516D01*
X93102767Y-75906843D01*
X93156533Y-75964328D01*
X93195330Y-76084701D01*
X93151455Y-76196383D01*
X93026792Y-76294987D01*
X93010746Y-76303551D01*
X92875759Y-76369351D01*
X92696036Y-76451293D01*
X92486424Y-76543223D01*
X92261773Y-76638987D01*
X92036930Y-76732433D01*
X91826744Y-76817407D01*
X91646064Y-76887755D01*
X91509737Y-76937323D01*
X91432612Y-76959959D01*
X91425022Y-76960713D01*
X91312981Y-76939220D01*
X91259785Y-76916109D01*
X91171761Y-76826260D01*
X91087285Y-76670213D01*
X91014875Y-76466287D01*
X90976119Y-76305833D01*
X90937176Y-76148473D01*
X90876714Y-75947776D01*
X90805522Y-75738663D01*
X90778011Y-75664546D01*
X90688376Y-75421163D01*
X90633616Y-75232456D01*
X90619990Y-75085102D01*
X90653762Y-74965777D01*
X90741193Y-74861156D01*
X90888545Y-74757915D01*
X91102079Y-74642731D01*
X91305335Y-74542481D01*
X91564209Y-74419235D01*
X91764500Y-74331152D01*
X91921741Y-74272470D01*
X92051467Y-74237421D01*
X92169210Y-74220244D01*
X92174979Y-74219757D01*
X92350402Y-74217811D01*
X92450147Y-74248361D01*
G37*
X92450147Y-74248361D02*
X92477525Y-74313423D01*
X92451513Y-74388051D01*
X92401700Y-74440507D01*
X92296215Y-74526982D01*
X92150478Y-74635512D01*
X91979908Y-74754132D01*
X91978217Y-74755270D01*
X91760023Y-74901844D01*
X91603616Y-75012587D01*
X91502110Y-75101187D01*
X91448616Y-75181331D01*
X91436247Y-75266709D01*
X91458115Y-75371007D01*
X91507333Y-75507914D01*
X91547254Y-75611740D01*
X91642166Y-75851709D01*
X91718290Y-76020579D01*
X91781374Y-76128283D01*
X91837164Y-76184754D01*
X91887634Y-76200000D01*
X91952238Y-76184112D01*
X92074421Y-76141299D01*
X92234310Y-76078836D01*
X92350167Y-76030667D01*
X92622408Y-75925831D01*
X92833755Y-75870647D01*
X92991458Y-75864516D01*
X93102767Y-75906843D01*
X93156533Y-75964328D01*
X93195330Y-76084701D01*
X93151455Y-76196383D01*
X93026792Y-76294987D01*
X93010746Y-76303551D01*
X92875759Y-76369351D01*
X92696036Y-76451293D01*
X92486424Y-76543223D01*
X92261773Y-76638987D01*
X92036930Y-76732433D01*
X91826744Y-76817407D01*
X91646064Y-76887755D01*
X91509737Y-76937323D01*
X91432612Y-76959959D01*
X91425022Y-76960713D01*
X91312981Y-76939220D01*
X91259785Y-76916109D01*
X91171761Y-76826260D01*
X91087285Y-76670213D01*
X91014875Y-76466287D01*
X90976119Y-76305833D01*
X90937176Y-76148473D01*
X90876714Y-75947776D01*
X90805522Y-75738663D01*
X90778011Y-75664546D01*
X90688376Y-75421163D01*
X90633616Y-75232456D01*
X90619990Y-75085102D01*
X90653762Y-74965777D01*
X90741193Y-74861156D01*
X90888545Y-74757915D01*
X91102079Y-74642731D01*
X91305335Y-74542481D01*
X91564209Y-74419235D01*
X91764500Y-74331152D01*
X91921741Y-74272470D01*
X92051467Y-74237421D01*
X92169210Y-74220244D01*
X92174979Y-74219757D01*
X92350402Y-74217811D01*
X92450147Y-74248361D01*
G36*
X94804512Y-73053237D02*
G01*
X94817625Y-73060849D01*
X94848780Y-73109491D01*
X94903368Y-73223779D01*
X94975914Y-73389783D01*
X95060939Y-73593572D01*
X95152967Y-73821215D01*
X95246520Y-74058782D01*
X95336122Y-74292340D01*
X95416295Y-74507960D01*
X95481563Y-74691709D01*
X95526448Y-74829659D01*
X95545473Y-74907877D01*
X95545760Y-74912855D01*
X95516098Y-75011371D01*
X95472250Y-75068551D01*
X95400506Y-75116570D01*
X95267469Y-75190308D01*
X95086957Y-75283308D01*
X94872788Y-75389113D01*
X94638778Y-75501264D01*
X94398745Y-75613305D01*
X94166507Y-75718776D01*
X93955880Y-75811221D01*
X93780683Y-75884182D01*
X93654732Y-75931200D01*
X93594795Y-75946000D01*
X93489623Y-75920990D01*
X93415647Y-75832635D01*
X93411094Y-75824016D01*
X93340699Y-75671777D01*
X93258433Y-75468257D01*
X93169590Y-75229535D01*
X93079462Y-74971687D01*
X92993342Y-74710790D01*
X92916522Y-74462920D01*
X92854296Y-74244155D01*
X92811956Y-74070572D01*
X92808606Y-74048645D01*
X93459503Y-74048645D01*
X93466826Y-74129013D01*
X93499646Y-74250420D01*
X93561443Y-74427620D01*
X93601602Y-74534676D01*
X93690364Y-74768322D01*
X93756382Y-74934352D01*
X93808523Y-75043693D01*
X93855658Y-75107272D01*
X93906653Y-75136018D01*
X93970377Y-75140858D01*
X94055698Y-75132718D01*
X94084436Y-75129625D01*
X94256065Y-75095122D01*
X94442054Y-75033231D01*
X94526510Y-74995437D01*
X94649398Y-74925925D01*
X94738017Y-74862318D01*
X94767248Y-74828796D01*
X94759965Y-74771365D01*
X94725468Y-74651283D01*
X94668848Y-74484157D01*
X94595195Y-74285599D01*
X94564175Y-74206101D01*
X94469333Y-73972276D01*
X94396249Y-73807960D01*
X94339252Y-73702562D01*
X94292668Y-73645491D01*
X94253706Y-73626501D01*
X94164771Y-73638511D01*
X94029152Y-73683674D01*
X93870378Y-73750880D01*
X93711977Y-73829019D01*
X93577478Y-73906982D01*
X93490409Y-73973660D01*
X93474196Y-73994563D01*
X93459503Y-74048645D01*
X92808606Y-74048645D01*
X92794795Y-73958247D01*
X92794667Y-73951595D01*
X92806663Y-73880107D01*
X92848210Y-73811447D01*
X92927647Y-73740410D01*
X93053310Y-73661794D01*
X93233538Y-73570394D01*
X93476669Y-73461007D01*
X93791041Y-73328430D01*
X93797457Y-73325778D01*
X94096905Y-73204682D01*
X94330123Y-73117385D01*
X94507302Y-73061238D01*
X94638632Y-73033595D01*
X94734305Y-73031810D01*
X94804512Y-73053237D01*
G37*
X94804512Y-73053237D02*
X94817625Y-73060849D01*
X94848780Y-73109491D01*
X94903368Y-73223779D01*
X94975914Y-73389783D01*
X95060939Y-73593572D01*
X95152967Y-73821215D01*
X95246520Y-74058782D01*
X95336122Y-74292340D01*
X95416295Y-74507960D01*
X95481563Y-74691709D01*
X95526448Y-74829659D01*
X95545473Y-74907877D01*
X95545760Y-74912855D01*
X95516098Y-75011371D01*
X95472250Y-75068551D01*
X95400506Y-75116570D01*
X95267469Y-75190308D01*
X95086957Y-75283308D01*
X94872788Y-75389113D01*
X94638778Y-75501264D01*
X94398745Y-75613305D01*
X94166507Y-75718776D01*
X93955880Y-75811221D01*
X93780683Y-75884182D01*
X93654732Y-75931200D01*
X93594795Y-75946000D01*
X93489623Y-75920990D01*
X93415647Y-75832635D01*
X93411094Y-75824016D01*
X93340699Y-75671777D01*
X93258433Y-75468257D01*
X93169590Y-75229535D01*
X93079462Y-74971687D01*
X92993342Y-74710790D01*
X92916522Y-74462920D01*
X92854296Y-74244155D01*
X92811956Y-74070572D01*
X92808606Y-74048645D01*
X93459503Y-74048645D01*
X93466826Y-74129013D01*
X93499646Y-74250420D01*
X93561443Y-74427620D01*
X93601602Y-74534676D01*
X93690364Y-74768322D01*
X93756382Y-74934352D01*
X93808523Y-75043693D01*
X93855658Y-75107272D01*
X93906653Y-75136018D01*
X93970377Y-75140858D01*
X94055698Y-75132718D01*
X94084436Y-75129625D01*
X94256065Y-75095122D01*
X94442054Y-75033231D01*
X94526510Y-74995437D01*
X94649398Y-74925925D01*
X94738017Y-74862318D01*
X94767248Y-74828796D01*
X94759965Y-74771365D01*
X94725468Y-74651283D01*
X94668848Y-74484157D01*
X94595195Y-74285599D01*
X94564175Y-74206101D01*
X94469333Y-73972276D01*
X94396249Y-73807960D01*
X94339252Y-73702562D01*
X94292668Y-73645491D01*
X94253706Y-73626501D01*
X94164771Y-73638511D01*
X94029152Y-73683674D01*
X93870378Y-73750880D01*
X93711977Y-73829019D01*
X93577478Y-73906982D01*
X93490409Y-73973660D01*
X93474196Y-73994563D01*
X93459503Y-74048645D01*
X92808606Y-74048645D01*
X92794795Y-73958247D01*
X92794667Y-73951595D01*
X92806663Y-73880107D01*
X92848210Y-73811447D01*
X92927647Y-73740410D01*
X93053310Y-73661794D01*
X93233538Y-73570394D01*
X93476669Y-73461007D01*
X93791041Y-73328430D01*
X93797457Y-73325778D01*
X94096905Y-73204682D01*
X94330123Y-73117385D01*
X94507302Y-73061238D01*
X94638632Y-73033595D01*
X94734305Y-73031810D01*
X94804512Y-73053237D01*
G36*
X97327012Y-72979393D02*
G01*
X97347521Y-72999438D01*
X97403864Y-73049207D01*
X97475908Y-73034095D01*
X97493823Y-73024916D01*
X97567218Y-72992560D01*
X97596300Y-72989820D01*
X97615883Y-73033173D01*
X97657719Y-73134733D01*
X97713314Y-73273821D01*
X97721900Y-73295587D01*
X97788449Y-73484770D01*
X97811624Y-73609867D01*
X97791448Y-73679495D01*
X97727940Y-73702269D01*
X97722893Y-73702333D01*
X97672776Y-73726595D01*
X97672440Y-73803351D01*
X97674313Y-73846779D01*
X97654094Y-73887000D01*
X97600370Y-73931950D01*
X97501726Y-73989566D01*
X97346749Y-74067784D01*
X97170177Y-74152601D01*
X96961302Y-74253053D01*
X96817950Y-74326187D01*
X96728739Y-74380093D01*
X96682285Y-74422859D01*
X96667204Y-74462578D01*
X96671964Y-74506667D01*
X96701336Y-74599738D01*
X96726873Y-74644927D01*
X96773694Y-74638456D01*
X96882907Y-74599761D01*
X97041085Y-74534304D01*
X97234803Y-74447543D01*
X97377519Y-74380344D01*
X97587136Y-74280399D01*
X97769144Y-74194790D01*
X97910275Y-74129665D01*
X97997264Y-74091169D01*
X98018609Y-74083333D01*
X98043399Y-74119314D01*
X98076034Y-74205536D01*
X98106783Y-74309417D01*
X98125913Y-74398377D01*
X98124866Y-74439052D01*
X98082896Y-74461876D01*
X97977005Y-74515184D01*
X97819651Y-74592933D01*
X97623296Y-74689077D01*
X97400397Y-74797571D01*
X97163414Y-74912370D01*
X96924808Y-75027429D01*
X96697036Y-75136704D01*
X96492558Y-75234149D01*
X96323835Y-75313718D01*
X96279024Y-75334606D01*
X95974549Y-75475971D01*
X95817885Y-75071643D01*
X95747178Y-74882933D01*
X95707410Y-74757573D01*
X95695451Y-74681402D01*
X95708167Y-74640263D01*
X95720194Y-74629973D01*
X95789810Y-74596444D01*
X95810917Y-74591981D01*
X95834609Y-74555096D01*
X95842667Y-74483019D01*
X95849923Y-74435206D01*
X95879702Y-74390642D01*
X95944019Y-74341042D01*
X96054888Y-74278124D01*
X96224324Y-74193604D01*
X96349226Y-74133769D01*
X96570434Y-74025621D01*
X96722045Y-73941851D01*
X96812558Y-73874133D01*
X96850469Y-73814141D01*
X96844278Y-73753550D01*
X96804910Y-73687332D01*
X96779482Y-73662465D01*
X96741831Y-73654064D01*
X96680174Y-73666074D01*
X96582730Y-73702440D01*
X96437719Y-73767106D01*
X96233359Y-73864016D01*
X96133636Y-73912074D01*
X95924559Y-74012479D01*
X95743203Y-74098472D01*
X95602787Y-74163873D01*
X95516529Y-74202504D01*
X95495669Y-74210333D01*
X95470504Y-74174562D01*
X95436031Y-74088808D01*
X95402728Y-73985411D01*
X95381072Y-73896710D01*
X95380738Y-73855593D01*
X95422110Y-73833625D01*
X95529274Y-73780091D01*
X95691729Y-73700143D01*
X95898975Y-73598929D01*
X96140510Y-73481600D01*
X96345574Y-73382395D01*
X96639627Y-73240900D01*
X96866978Y-73133273D01*
X97036877Y-73055979D01*
X97158577Y-73005480D01*
X97241332Y-72978240D01*
X97294393Y-72970724D01*
X97327012Y-72979393D01*
G37*
X97327012Y-72979393D02*
X97347521Y-72999438D01*
X97403864Y-73049207D01*
X97475908Y-73034095D01*
X97493823Y-73024916D01*
X97567218Y-72992560D01*
X97596300Y-72989820D01*
X97615883Y-73033173D01*
X97657719Y-73134733D01*
X97713314Y-73273821D01*
X97721900Y-73295587D01*
X97788449Y-73484770D01*
X97811624Y-73609867D01*
X97791448Y-73679495D01*
X97727940Y-73702269D01*
X97722893Y-73702333D01*
X97672776Y-73726595D01*
X97672440Y-73803351D01*
X97674313Y-73846779D01*
X97654094Y-73887000D01*
X97600370Y-73931950D01*
X97501726Y-73989566D01*
X97346749Y-74067784D01*
X97170177Y-74152601D01*
X96961302Y-74253053D01*
X96817950Y-74326187D01*
X96728739Y-74380093D01*
X96682285Y-74422859D01*
X96667204Y-74462578D01*
X96671964Y-74506667D01*
X96701336Y-74599738D01*
X96726873Y-74644927D01*
X96773694Y-74638456D01*
X96882907Y-74599761D01*
X97041085Y-74534304D01*
X97234803Y-74447543D01*
X97377519Y-74380344D01*
X97587136Y-74280399D01*
X97769144Y-74194790D01*
X97910275Y-74129665D01*
X97997264Y-74091169D01*
X98018609Y-74083333D01*
X98043399Y-74119314D01*
X98076034Y-74205536D01*
X98106783Y-74309417D01*
X98125913Y-74398377D01*
X98124866Y-74439052D01*
X98082896Y-74461876D01*
X97977005Y-74515184D01*
X97819651Y-74592933D01*
X97623296Y-74689077D01*
X97400397Y-74797571D01*
X97163414Y-74912370D01*
X96924808Y-75027429D01*
X96697036Y-75136704D01*
X96492558Y-75234149D01*
X96323835Y-75313718D01*
X96279024Y-75334606D01*
X95974549Y-75475971D01*
X95817885Y-75071643D01*
X95747178Y-74882933D01*
X95707410Y-74757573D01*
X95695451Y-74681402D01*
X95708167Y-74640263D01*
X95720194Y-74629973D01*
X95789810Y-74596444D01*
X95810917Y-74591981D01*
X95834609Y-74555096D01*
X95842667Y-74483019D01*
X95849923Y-74435206D01*
X95879702Y-74390642D01*
X95944019Y-74341042D01*
X96054888Y-74278124D01*
X96224324Y-74193604D01*
X96349226Y-74133769D01*
X96570434Y-74025621D01*
X96722045Y-73941851D01*
X96812558Y-73874133D01*
X96850469Y-73814141D01*
X96844278Y-73753550D01*
X96804910Y-73687332D01*
X96779482Y-73662465D01*
X96741831Y-73654064D01*
X96680174Y-73666074D01*
X96582730Y-73702440D01*
X96437719Y-73767106D01*
X96233359Y-73864016D01*
X96133636Y-73912074D01*
X95924559Y-74012479D01*
X95743203Y-74098472D01*
X95602787Y-74163873D01*
X95516529Y-74202504D01*
X95495669Y-74210333D01*
X95470504Y-74174562D01*
X95436031Y-74088808D01*
X95402728Y-73985411D01*
X95381072Y-73896710D01*
X95380738Y-73855593D01*
X95422110Y-73833625D01*
X95529274Y-73780091D01*
X95691729Y-73700143D01*
X95898975Y-73598929D01*
X96140510Y-73481600D01*
X96345574Y-73382395D01*
X96639627Y-73240900D01*
X96866978Y-73133273D01*
X97036877Y-73055979D01*
X97158577Y-73005480D01*
X97241332Y-72978240D01*
X97294393Y-72970724D01*
X97327012Y-72979393D01*
G36*
X78380750Y-71739965D02*
G01*
X78578263Y-71844042D01*
X78728660Y-71998006D01*
X78824673Y-72188003D01*
X78859036Y-72400178D01*
X78824481Y-72620676D01*
X78728386Y-72814884D01*
X78576172Y-72969885D01*
X78381309Y-73069982D01*
X78166353Y-73109949D01*
X77953864Y-73084563D01*
X77819250Y-73025464D01*
X77724575Y-72962144D01*
X77690268Y-72907682D01*
X77711214Y-72833827D01*
X77767079Y-72737261D01*
X77825917Y-72649365D01*
X77870409Y-72624221D01*
X77927483Y-72650659D01*
X77945673Y-72663177D01*
X78082756Y-72716657D01*
X78228180Y-72708366D01*
X78359083Y-72648489D01*
X78452603Y-72547208D01*
X78486000Y-72422510D01*
X78448580Y-72281680D01*
X78352497Y-72157366D01*
X78246515Y-72091138D01*
X78126847Y-72075330D01*
X78008769Y-72124685D01*
X77885555Y-72244410D01*
X77750477Y-72439714D01*
X77711588Y-72505235D01*
X77562442Y-72744773D01*
X77427616Y-72914601D01*
X77293762Y-73025024D01*
X77147529Y-73086350D01*
X76975569Y-73108885D01*
X76928710Y-73109667D01*
X76727235Y-73084457D01*
X76577684Y-73013409D01*
X76389145Y-72845113D01*
X76278181Y-72644779D01*
X76242333Y-72411167D01*
X76279090Y-72174863D01*
X76390998Y-71974952D01*
X76577684Y-71808924D01*
X76758168Y-71732607D01*
X76969063Y-71711338D01*
X77175979Y-71745673D01*
X77290982Y-71797416D01*
X77429464Y-71881849D01*
X77341392Y-72054484D01*
X77285101Y-72158236D01*
X77243858Y-72198453D01*
X77195354Y-72187577D01*
X77151483Y-72160393D01*
X76995817Y-72099880D01*
X76841685Y-72111659D01*
X76715379Y-72191645D01*
X76637248Y-72325721D01*
X76628467Y-72467526D01*
X76680272Y-72595986D01*
X76783898Y-72690027D01*
X76930581Y-72728574D01*
X76938719Y-72728667D01*
X77035896Y-72713422D01*
X77126734Y-72660733D01*
X77221278Y-72560165D01*
X77329570Y-72401283D01*
X77446141Y-72201503D01*
X77606954Y-71962420D01*
X77780327Y-71802796D01*
X77973239Y-71717610D01*
X78143388Y-71699630D01*
X78380750Y-71739965D01*
G37*
X78380750Y-71739965D02*
X78578263Y-71844042D01*
X78728660Y-71998006D01*
X78824673Y-72188003D01*
X78859036Y-72400178D01*
X78824481Y-72620676D01*
X78728386Y-72814884D01*
X78576172Y-72969885D01*
X78381309Y-73069982D01*
X78166353Y-73109949D01*
X77953864Y-73084563D01*
X77819250Y-73025464D01*
X77724575Y-72962144D01*
X77690268Y-72907682D01*
X77711214Y-72833827D01*
X77767079Y-72737261D01*
X77825917Y-72649365D01*
X77870409Y-72624221D01*
X77927483Y-72650659D01*
X77945673Y-72663177D01*
X78082756Y-72716657D01*
X78228180Y-72708366D01*
X78359083Y-72648489D01*
X78452603Y-72547208D01*
X78486000Y-72422510D01*
X78448580Y-72281680D01*
X78352497Y-72157366D01*
X78246515Y-72091138D01*
X78126847Y-72075330D01*
X78008769Y-72124685D01*
X77885555Y-72244410D01*
X77750477Y-72439714D01*
X77711588Y-72505235D01*
X77562442Y-72744773D01*
X77427616Y-72914601D01*
X77293762Y-73025024D01*
X77147529Y-73086350D01*
X76975569Y-73108885D01*
X76928710Y-73109667D01*
X76727235Y-73084457D01*
X76577684Y-73013409D01*
X76389145Y-72845113D01*
X76278181Y-72644779D01*
X76242333Y-72411167D01*
X76279090Y-72174863D01*
X76390998Y-71974952D01*
X76577684Y-71808924D01*
X76758168Y-71732607D01*
X76969063Y-71711338D01*
X77175979Y-71745673D01*
X77290982Y-71797416D01*
X77429464Y-71881849D01*
X77341392Y-72054484D01*
X77285101Y-72158236D01*
X77243858Y-72198453D01*
X77195354Y-72187577D01*
X77151483Y-72160393D01*
X76995817Y-72099880D01*
X76841685Y-72111659D01*
X76715379Y-72191645D01*
X76637248Y-72325721D01*
X76628467Y-72467526D01*
X76680272Y-72595986D01*
X76783898Y-72690027D01*
X76930581Y-72728574D01*
X76938719Y-72728667D01*
X77035896Y-72713422D01*
X77126734Y-72660733D01*
X77221278Y-72560165D01*
X77329570Y-72401283D01*
X77446141Y-72201503D01*
X77606954Y-71962420D01*
X77780327Y-71802796D01*
X77973239Y-71717610D01*
X78143388Y-71699630D01*
X78380750Y-71739965D01*
G36*
X78460805Y-66774610D02*
G01*
X78880109Y-66992500D01*
X79022239Y-67394667D01*
X79081359Y-67570257D01*
X79126079Y-67719172D01*
X79150698Y-67821453D01*
X79153268Y-67853234D01*
X79112191Y-67892833D01*
X79014789Y-67951162D01*
X78884081Y-68017406D01*
X78743087Y-68080752D01*
X78614826Y-68130385D01*
X78522318Y-68155490D01*
X78507390Y-68156667D01*
X78456946Y-68123582D01*
X78381186Y-68037586D01*
X78310496Y-67938096D01*
X78230998Y-67815846D01*
X78168940Y-67720632D01*
X78142035Y-67679566D01*
X78085795Y-67658643D01*
X78028914Y-67667110D01*
X77997240Y-67682805D01*
X77985877Y-67712186D01*
X77999369Y-67767080D01*
X78042254Y-67859315D01*
X78119073Y-68000719D01*
X78234368Y-68203122D01*
X78235296Y-68204738D01*
X78341568Y-68392224D01*
X78430645Y-68554114D01*
X78494818Y-68676030D01*
X78526377Y-68743595D01*
X78528333Y-68751195D01*
X78495712Y-68787881D01*
X78409087Y-68858967D01*
X78285320Y-68952521D01*
X78141269Y-69056609D01*
X77993794Y-69159296D01*
X77859755Y-69248650D01*
X77756011Y-69312736D01*
X77699423Y-69339620D01*
X77696779Y-69339793D01*
X77647822Y-69320793D01*
X77538080Y-69270099D01*
X77382097Y-69194669D01*
X77194418Y-69101456D01*
X77121009Y-69064437D01*
X76581518Y-68791289D01*
X76345833Y-68321348D01*
X76257194Y-68141738D01*
X76185958Y-67991867D01*
X76138951Y-67886510D01*
X76123000Y-67840445D01*
X76123324Y-67839709D01*
X76175548Y-67803476D01*
X76273660Y-67742541D01*
X76396876Y-67669018D01*
X76524414Y-67595015D01*
X76635491Y-67532647D01*
X76709324Y-67494022D01*
X76727668Y-67487521D01*
X76755382Y-67525359D01*
X76820795Y-67615638D01*
X76912130Y-67742091D01*
X76959238Y-67807417D01*
X77085064Y-67968888D01*
X77187413Y-68074126D01*
X77260168Y-68118437D01*
X77297216Y-68097132D01*
X77300667Y-68069308D01*
X77277387Y-68019184D01*
X77213921Y-67915454D01*
X77119825Y-67773024D01*
X77004659Y-67606801D01*
X76998770Y-67598487D01*
X76882052Y-67429589D01*
X76785460Y-67281694D01*
X76718818Y-67170424D01*
X76691949Y-67111396D01*
X76691854Y-67110514D01*
X76722037Y-67073182D01*
X76819956Y-67018531D01*
X76989575Y-66944745D01*
X77234858Y-66850008D01*
X77364167Y-66802528D01*
X78041500Y-66556721D01*
X78460805Y-66774610D01*
G37*
X78460805Y-66774610D02*
X78880109Y-66992500D01*
X79022239Y-67394667D01*
X79081359Y-67570257D01*
X79126079Y-67719172D01*
X79150698Y-67821453D01*
X79153268Y-67853234D01*
X79112191Y-67892833D01*
X79014789Y-67951162D01*
X78884081Y-68017406D01*
X78743087Y-68080752D01*
X78614826Y-68130385D01*
X78522318Y-68155490D01*
X78507390Y-68156667D01*
X78456946Y-68123582D01*
X78381186Y-68037586D01*
X78310496Y-67938096D01*
X78230998Y-67815846D01*
X78168940Y-67720632D01*
X78142035Y-67679566D01*
X78085795Y-67658643D01*
X78028914Y-67667110D01*
X77997240Y-67682805D01*
X77985877Y-67712186D01*
X77999369Y-67767080D01*
X78042254Y-67859315D01*
X78119073Y-68000719D01*
X78234368Y-68203122D01*
X78235296Y-68204738D01*
X78341568Y-68392224D01*
X78430645Y-68554114D01*
X78494818Y-68676030D01*
X78526377Y-68743595D01*
X78528333Y-68751195D01*
X78495712Y-68787881D01*
X78409087Y-68858967D01*
X78285320Y-68952521D01*
X78141269Y-69056609D01*
X77993794Y-69159296D01*
X77859755Y-69248650D01*
X77756011Y-69312736D01*
X77699423Y-69339620D01*
X77696779Y-69339793D01*
X77647822Y-69320793D01*
X77538080Y-69270099D01*
X77382097Y-69194669D01*
X77194418Y-69101456D01*
X77121009Y-69064437D01*
X76581518Y-68791289D01*
X76345833Y-68321348D01*
X76257194Y-68141738D01*
X76185958Y-67991867D01*
X76138951Y-67886510D01*
X76123000Y-67840445D01*
X76123324Y-67839709D01*
X76175548Y-67803476D01*
X76273660Y-67742541D01*
X76396876Y-67669018D01*
X76524414Y-67595015D01*
X76635491Y-67532647D01*
X76709324Y-67494022D01*
X76727668Y-67487521D01*
X76755382Y-67525359D01*
X76820795Y-67615638D01*
X76912130Y-67742091D01*
X76959238Y-67807417D01*
X77085064Y-67968888D01*
X77187413Y-68074126D01*
X77260168Y-68118437D01*
X77297216Y-68097132D01*
X77300667Y-68069308D01*
X77277387Y-68019184D01*
X77213921Y-67915454D01*
X77119825Y-67773024D01*
X77004659Y-67606801D01*
X76998770Y-67598487D01*
X76882052Y-67429589D01*
X76785460Y-67281694D01*
X76718818Y-67170424D01*
X76691949Y-67111396D01*
X76691854Y-67110514D01*
X76722037Y-67073182D01*
X76819956Y-67018531D01*
X76989575Y-66944745D01*
X77234858Y-66850008D01*
X77364167Y-66802528D01*
X78041500Y-66556721D01*
X78460805Y-66774610D01*
G36*
X75738958Y-65465715D02*
G01*
X76188083Y-65701245D01*
X76342992Y-66283372D01*
X76398706Y-66496663D01*
X76445413Y-66682956D01*
X76479151Y-66825873D01*
X76495962Y-66909037D01*
X76497117Y-66920784D01*
X76473566Y-66969720D01*
X76410424Y-67069882D01*
X76318173Y-67206680D01*
X76207294Y-67365522D01*
X76088271Y-67531817D01*
X75971584Y-67690973D01*
X75867717Y-67828399D01*
X75787150Y-67929502D01*
X75740365Y-67979692D01*
X75734333Y-67982628D01*
X75686730Y-67972725D01*
X75575054Y-67947802D01*
X75417702Y-67912000D01*
X75289833Y-67882592D01*
X75063961Y-67830797D01*
X74824677Y-67776516D01*
X74612030Y-67728816D01*
X74544371Y-67713824D01*
X74222242Y-67642817D01*
X73671448Y-66444769D01*
X74750621Y-66444769D01*
X74839578Y-66591634D01*
X74898920Y-66675092D01*
X74969025Y-66728674D01*
X75074431Y-66764959D01*
X75239077Y-66796427D01*
X75275540Y-66765133D01*
X75323156Y-66680609D01*
X75334327Y-66655193D01*
X75379355Y-66537486D01*
X75383714Y-66464961D01*
X75340705Y-66405246D01*
X75270579Y-66347221D01*
X75149916Y-66261587D01*
X75061343Y-66234004D01*
X74976815Y-66262920D01*
X74892516Y-66326310D01*
X74750621Y-66444769D01*
X73671448Y-66444769D01*
X73569476Y-66222969D01*
X73873969Y-65791508D01*
X73996332Y-65622880D01*
X74107034Y-65478988D01*
X74194221Y-65374676D01*
X74246036Y-65324786D01*
X74247314Y-65324075D01*
X74315557Y-65307286D01*
X74448401Y-65289070D01*
X74625862Y-65271764D01*
X74803000Y-65259144D01*
X75289833Y-65230184D01*
X75738958Y-65465715D01*
G37*
X75738958Y-65465715D02*
X76188083Y-65701245D01*
X76342992Y-66283372D01*
X76398706Y-66496663D01*
X76445413Y-66682956D01*
X76479151Y-66825873D01*
X76495962Y-66909037D01*
X76497117Y-66920784D01*
X76473566Y-66969720D01*
X76410424Y-67069882D01*
X76318173Y-67206680D01*
X76207294Y-67365522D01*
X76088271Y-67531817D01*
X75971584Y-67690973D01*
X75867717Y-67828399D01*
X75787150Y-67929502D01*
X75740365Y-67979692D01*
X75734333Y-67982628D01*
X75686730Y-67972725D01*
X75575054Y-67947802D01*
X75417702Y-67912000D01*
X75289833Y-67882592D01*
X75063961Y-67830797D01*
X74824677Y-67776516D01*
X74612030Y-67728816D01*
X74544371Y-67713824D01*
X74222242Y-67642817D01*
X73671448Y-66444769D01*
X74750621Y-66444769D01*
X74839578Y-66591634D01*
X74898920Y-66675092D01*
X74969025Y-66728674D01*
X75074431Y-66764959D01*
X75239077Y-66796427D01*
X75275540Y-66765133D01*
X75323156Y-66680609D01*
X75334327Y-66655193D01*
X75379355Y-66537486D01*
X75383714Y-66464961D01*
X75340705Y-66405246D01*
X75270579Y-66347221D01*
X75149916Y-66261587D01*
X75061343Y-66234004D01*
X74976815Y-66262920D01*
X74892516Y-66326310D01*
X74750621Y-66444769D01*
X73671448Y-66444769D01*
X73569476Y-66222969D01*
X73873969Y-65791508D01*
X73996332Y-65622880D01*
X74107034Y-65478988D01*
X74194221Y-65374676D01*
X74246036Y-65324786D01*
X74247314Y-65324075D01*
X74315557Y-65307286D01*
X74448401Y-65289070D01*
X74625862Y-65271764D01*
X74803000Y-65259144D01*
X75289833Y-65230184D01*
X75738958Y-65465715D01*
G36*
X72092815Y-63833721D02*
G01*
X72200908Y-63866757D01*
X72356850Y-63920815D01*
X72545525Y-63990043D01*
X72751812Y-64068590D01*
X72960595Y-64150605D01*
X73156754Y-64230236D01*
X73325171Y-64301632D01*
X73450728Y-64358941D01*
X73518307Y-64396312D01*
X73519439Y-64397189D01*
X73561332Y-64449817D01*
X73631900Y-64557816D01*
X73719105Y-64702318D01*
X73765184Y-64782359D01*
X73960988Y-65127960D01*
X73824664Y-65488730D01*
X73759152Y-65654360D01*
X73699447Y-65791660D01*
X73654908Y-65879639D01*
X73642420Y-65897429D01*
X73578216Y-65936738D01*
X73462828Y-65986063D01*
X73374250Y-66017248D01*
X73252409Y-66059459D01*
X73171683Y-66092794D01*
X73152000Y-66106134D01*
X73168607Y-66149400D01*
X73213232Y-66251728D01*
X73278078Y-66395462D01*
X73321333Y-66489652D01*
X73394579Y-66651797D01*
X73451875Y-66785496D01*
X73485312Y-66871926D01*
X73490667Y-66892587D01*
X73486004Y-66908504D01*
X73463124Y-66917920D01*
X73408685Y-66920777D01*
X73309349Y-66917021D01*
X73151775Y-66906593D01*
X72933112Y-66890239D01*
X72775767Y-66875711D01*
X72653887Y-66859704D01*
X72589803Y-66845262D01*
X72585931Y-66842874D01*
X72559968Y-66797676D01*
X72506317Y-66691887D01*
X72433010Y-66541677D01*
X72354665Y-66377207D01*
X72261714Y-66189012D01*
X72188742Y-66059860D01*
X72140040Y-65996738D01*
X72121725Y-65997667D01*
X72097502Y-66071618D01*
X72060254Y-66195991D01*
X72030126Y-66301139D01*
X71962661Y-66541111D01*
X71573843Y-66356342D01*
X71409734Y-66275534D01*
X71277340Y-66205009D01*
X71193553Y-66154078D01*
X71172963Y-66135388D01*
X71184536Y-66088684D01*
X71222387Y-65975373D01*
X71281887Y-65807671D01*
X71358405Y-65597793D01*
X71447311Y-65357957D01*
X71505288Y-65203466D01*
X72468634Y-65203466D01*
X72487210Y-65244435D01*
X72511051Y-65264792D01*
X72560903Y-65302409D01*
X72598272Y-65312821D01*
X72654102Y-65293968D01*
X72748397Y-65248993D01*
X72843172Y-65198193D01*
X72894045Y-65159990D01*
X72896861Y-65153743D01*
X72871493Y-65109432D01*
X72808994Y-65026095D01*
X72777256Y-64987007D01*
X72658790Y-64844181D01*
X72550196Y-65028062D01*
X72488312Y-65139306D01*
X72468634Y-65203466D01*
X71505288Y-65203466D01*
X71543975Y-65100378D01*
X71643766Y-64837271D01*
X71742054Y-64580854D01*
X71834209Y-64343342D01*
X71915601Y-64136951D01*
X71981600Y-63973898D01*
X72027575Y-63866397D01*
X72047690Y-63827559D01*
X72092815Y-63833721D01*
G37*
X72092815Y-63833721D02*
X72200908Y-63866757D01*
X72356850Y-63920815D01*
X72545525Y-63990043D01*
X72751812Y-64068590D01*
X72960595Y-64150605D01*
X73156754Y-64230236D01*
X73325171Y-64301632D01*
X73450728Y-64358941D01*
X73518307Y-64396312D01*
X73519439Y-64397189D01*
X73561332Y-64449817D01*
X73631900Y-64557816D01*
X73719105Y-64702318D01*
X73765184Y-64782359D01*
X73960988Y-65127960D01*
X73824664Y-65488730D01*
X73759152Y-65654360D01*
X73699447Y-65791660D01*
X73654908Y-65879639D01*
X73642420Y-65897429D01*
X73578216Y-65936738D01*
X73462828Y-65986063D01*
X73374250Y-66017248D01*
X73252409Y-66059459D01*
X73171683Y-66092794D01*
X73152000Y-66106134D01*
X73168607Y-66149400D01*
X73213232Y-66251728D01*
X73278078Y-66395462D01*
X73321333Y-66489652D01*
X73394579Y-66651797D01*
X73451875Y-66785496D01*
X73485312Y-66871926D01*
X73490667Y-66892587D01*
X73486004Y-66908504D01*
X73463124Y-66917920D01*
X73408685Y-66920777D01*
X73309349Y-66917021D01*
X73151775Y-66906593D01*
X72933112Y-66890239D01*
X72775767Y-66875711D01*
X72653887Y-66859704D01*
X72589803Y-66845262D01*
X72585931Y-66842874D01*
X72559968Y-66797676D01*
X72506317Y-66691887D01*
X72433010Y-66541677D01*
X72354665Y-66377207D01*
X72261714Y-66189012D01*
X72188742Y-66059860D01*
X72140040Y-65996738D01*
X72121725Y-65997667D01*
X72097502Y-66071618D01*
X72060254Y-66195991D01*
X72030126Y-66301139D01*
X71962661Y-66541111D01*
X71573843Y-66356342D01*
X71409734Y-66275534D01*
X71277340Y-66205009D01*
X71193553Y-66154078D01*
X71172963Y-66135388D01*
X71184536Y-66088684D01*
X71222387Y-65975373D01*
X71281887Y-65807671D01*
X71358405Y-65597793D01*
X71447311Y-65357957D01*
X71505288Y-65203466D01*
X72468634Y-65203466D01*
X72487210Y-65244435D01*
X72511051Y-65264792D01*
X72560903Y-65302409D01*
X72598272Y-65312821D01*
X72654102Y-65293968D01*
X72748397Y-65248993D01*
X72843172Y-65198193D01*
X72894045Y-65159990D01*
X72896861Y-65153743D01*
X72871493Y-65109432D01*
X72808994Y-65026095D01*
X72777256Y-64987007D01*
X72658790Y-64844181D01*
X72550196Y-65028062D01*
X72488312Y-65139306D01*
X72468634Y-65203466D01*
X71505288Y-65203466D01*
X71543975Y-65100378D01*
X71643766Y-64837271D01*
X71742054Y-64580854D01*
X71834209Y-64343342D01*
X71915601Y-64136951D01*
X71981600Y-63973898D01*
X72027575Y-63866397D01*
X72047690Y-63827559D01*
X72092815Y-63833721D01*
G36*
X78570394Y-65595331D02*
G01*
X78594417Y-65644407D01*
X78625367Y-65753094D01*
X78655333Y-65891833D01*
X78686505Y-66035348D01*
X78717397Y-66142323D01*
X78740472Y-66188459D01*
X78793603Y-66184576D01*
X78902625Y-66155253D01*
X79044892Y-66106675D01*
X79058470Y-66101601D01*
X79198865Y-66050833D01*
X79303894Y-66016773D01*
X79352923Y-66006054D01*
X79354011Y-66006585D01*
X79363405Y-66051640D01*
X79377791Y-66157784D01*
X79393692Y-66298694D01*
X79422811Y-66578554D01*
X79046788Y-66626777D01*
X78819564Y-66654536D01*
X78662049Y-66668988D01*
X78560244Y-66669521D01*
X78500150Y-66655521D01*
X78467766Y-66626376D01*
X78455645Y-66600917D01*
X78427863Y-66531006D01*
X78376103Y-66404369D01*
X78309124Y-66242357D01*
X78268941Y-66145833D01*
X78109935Y-65764833D01*
X78323754Y-65669940D01*
X78447167Y-65620989D01*
X78538942Y-65595249D01*
X78570394Y-65595331D01*
G37*
X78570394Y-65595331D02*
X78594417Y-65644407D01*
X78625367Y-65753094D01*
X78655333Y-65891833D01*
X78686505Y-66035348D01*
X78717397Y-66142323D01*
X78740472Y-66188459D01*
X78793603Y-66184576D01*
X78902625Y-66155253D01*
X79044892Y-66106675D01*
X79058470Y-66101601D01*
X79198865Y-66050833D01*
X79303894Y-66016773D01*
X79352923Y-66006054D01*
X79354011Y-66006585D01*
X79363405Y-66051640D01*
X79377791Y-66157784D01*
X79393692Y-66298694D01*
X79422811Y-66578554D01*
X79046788Y-66626777D01*
X78819564Y-66654536D01*
X78662049Y-66668988D01*
X78560244Y-66669521D01*
X78500150Y-66655521D01*
X78467766Y-66626376D01*
X78455645Y-66600917D01*
X78427863Y-66531006D01*
X78376103Y-66404369D01*
X78309124Y-66242357D01*
X78268941Y-66145833D01*
X78109935Y-65764833D01*
X78323754Y-65669940D01*
X78447167Y-65620989D01*
X78538942Y-65595249D01*
X78570394Y-65595331D01*
G36*
X69607819Y-62507810D02*
G01*
X69707095Y-62540883D01*
X69848943Y-62597797D01*
X70017052Y-62671011D01*
X70195113Y-62752987D01*
X70366816Y-62836183D01*
X70515851Y-62913061D01*
X70625909Y-62976080D01*
X70680679Y-63017700D01*
X70683263Y-63021968D01*
X70670728Y-63073595D01*
X70623333Y-63187173D01*
X70546870Y-63350383D01*
X70447133Y-63550906D01*
X70329912Y-63776425D01*
X70317567Y-63799661D01*
X70199136Y-64024468D01*
X70097074Y-64222713D01*
X70017177Y-64382759D01*
X69965240Y-64492968D01*
X69947061Y-64541703D01*
X69947416Y-64542860D01*
X69995009Y-64546548D01*
X70099835Y-64538375D01*
X70192023Y-64526692D01*
X70419991Y-64493884D01*
X70600575Y-63986359D01*
X70673033Y-63784378D01*
X70738759Y-63604183D01*
X70790748Y-63464785D01*
X70821992Y-63385194D01*
X70822961Y-63382947D01*
X70841743Y-63345784D01*
X70867488Y-63326477D01*
X70912953Y-63328748D01*
X70990898Y-63356316D01*
X71114081Y-63412901D01*
X71295262Y-63502223D01*
X71383965Y-63546519D01*
X71573780Y-63641710D01*
X71734323Y-63722859D01*
X71851449Y-63782767D01*
X71911012Y-63814235D01*
X71915493Y-63817010D01*
X71901664Y-63856601D01*
X71855950Y-63960788D01*
X71783645Y-64118095D01*
X71690040Y-64317051D01*
X71580428Y-64546182D01*
X71551578Y-64605938D01*
X71175336Y-65383833D01*
X70728238Y-65542583D01*
X70543200Y-65606374D01*
X70384612Y-65657505D01*
X70271143Y-65690176D01*
X70224320Y-65699112D01*
X70168811Y-65680024D01*
X70052135Y-65628716D01*
X69888386Y-65551756D01*
X69691657Y-65455707D01*
X69556043Y-65387802D01*
X68944586Y-65078712D01*
X68830262Y-64665683D01*
X68715937Y-64252655D01*
X69134764Y-63400077D01*
X69256475Y-63151751D01*
X69365518Y-62928192D01*
X69456358Y-62740833D01*
X69523463Y-62601107D01*
X69561299Y-62520447D01*
X69567423Y-62506118D01*
X69607819Y-62507810D01*
G37*
X69607819Y-62507810D02*
X69707095Y-62540883D01*
X69848943Y-62597797D01*
X70017052Y-62671011D01*
X70195113Y-62752987D01*
X70366816Y-62836183D01*
X70515851Y-62913061D01*
X70625909Y-62976080D01*
X70680679Y-63017700D01*
X70683263Y-63021968D01*
X70670728Y-63073595D01*
X70623333Y-63187173D01*
X70546870Y-63350383D01*
X70447133Y-63550906D01*
X70329912Y-63776425D01*
X70317567Y-63799661D01*
X70199136Y-64024468D01*
X70097074Y-64222713D01*
X70017177Y-64382759D01*
X69965240Y-64492968D01*
X69947061Y-64541703D01*
X69947416Y-64542860D01*
X69995009Y-64546548D01*
X70099835Y-64538375D01*
X70192023Y-64526692D01*
X70419991Y-64493884D01*
X70600575Y-63986359D01*
X70673033Y-63784378D01*
X70738759Y-63604183D01*
X70790748Y-63464785D01*
X70821992Y-63385194D01*
X70822961Y-63382947D01*
X70841743Y-63345784D01*
X70867488Y-63326477D01*
X70912953Y-63328748D01*
X70990898Y-63356316D01*
X71114081Y-63412901D01*
X71295262Y-63502223D01*
X71383965Y-63546519D01*
X71573780Y-63641710D01*
X71734323Y-63722859D01*
X71851449Y-63782767D01*
X71911012Y-63814235D01*
X71915493Y-63817010D01*
X71901664Y-63856601D01*
X71855950Y-63960788D01*
X71783645Y-64118095D01*
X71690040Y-64317051D01*
X71580428Y-64546182D01*
X71551578Y-64605938D01*
X71175336Y-65383833D01*
X70728238Y-65542583D01*
X70543200Y-65606374D01*
X70384612Y-65657505D01*
X70271143Y-65690176D01*
X70224320Y-65699112D01*
X70168811Y-65680024D01*
X70052135Y-65628716D01*
X69888386Y-65551756D01*
X69691657Y-65455707D01*
X69556043Y-65387802D01*
X68944586Y-65078712D01*
X68830262Y-64665683D01*
X68715937Y-64252655D01*
X69134764Y-63400077D01*
X69256475Y-63151751D01*
X69365518Y-62928192D01*
X69456358Y-62740833D01*
X69523463Y-62601107D01*
X69561299Y-62520447D01*
X69567423Y-62506118D01*
X69607819Y-62507810D01*
D11*
%TO.C,U1*%
G36*
X81102000Y-66988000D02*
G01*
X82602000Y-66988000D01*
X82602000Y-66438000D01*
X82352000Y-66188000D01*
X81102000Y-66188000D01*
X81102000Y-66988000D01*
G37*
%TD*%
D12*
%TO.P,Board2,1*%
%TO.N,GND*%
X84840555Y-68137198D03*
%TD*%
%TO.P,D1,1*%
%TO.N,Net-(D1-Pad1)*%
%TA.AperFunction,SMDPad,CuDef*%
G36*
G01*
X72711000Y-83877999D02*
X72711000Y-84778001D01*
G75*
G02*
X72461001Y-85028000I-249999J0D01*
G01*
X71810999Y-85028000D01*
G75*
G02*
X71561000Y-84778001I0J249999D01*
G01*
X71561000Y-83877999D01*
G75*
G02*
X71810999Y-83628000I249999J0D01*
G01*
X72461001Y-83628000D01*
G75*
G02*
X72711000Y-83877999I0J-249999D01*
G01*
G37*
%TD.AperFunction*%
%TO.P,D1,2*%
%TO.N,VCC*%
%TA.AperFunction,SMDPad,CuDef*%
G36*
G01*
X70661000Y-83877999D02*
X70661000Y-84778001D01*
G75*
G02*
X70411001Y-85028000I-249999J0D01*
G01*
X69760999Y-85028000D01*
G75*
G02*
X69511000Y-84778001I0J249999D01*
G01*
X69511000Y-83877999D01*
G75*
G02*
X69760999Y-83628000I249999J0D01*
G01*
X70411001Y-83628000D01*
G75*
G02*
X70661000Y-83877999I0J-249999D01*
G01*
G37*
%TD.AperFunction*%
%TD*%
D13*
%TO.P,J2,1*%
%TO.N,GND*%
X73152000Y-74422000D03*
D14*
%TO.P,J2,2*%
%TO.N,VCC*%
X73152000Y-76962000D03*
%TO.P,J2,3*%
%TO.N,SCL*%
X73152000Y-79502000D03*
%TO.P,J2,4*%
%TO.N,SDA*%
X73152000Y-82042000D03*
%TD*%
D15*
%TO.P,U1,20*%
%TO.N,GND*%
X83352000Y-65088000D03*
%TO.P,U1,19*%
%TO.N,VCC*%
X84602000Y-65088000D03*
%TO.P,U1,18*%
%TO.N,N/C*%
X85852000Y-65088000D03*
%TO.P,U1,17*%
X87102000Y-65088000D03*
%TO.P,U1,16*%
X88352000Y-65088000D03*
D16*
%TO.P,U1,15*%
X89852000Y-66588000D03*
%TO.P,U1,14*%
X89852000Y-67838000D03*
%TO.P,U1,13*%
X89852000Y-69088000D03*
%TO.P,U1,12*%
X89852000Y-70338000D03*
%TO.P,U1,11*%
X89852000Y-71588000D03*
D15*
%TO.P,U1,10*%
%TO.N,SDA*%
X88352000Y-73088000D03*
%TO.P,U1,9*%
%TO.N,SCL*%
X87102000Y-73088000D03*
%TO.P,U1,8*%
%TO.N,N/C*%
X85852000Y-73088000D03*
%TO.P,U1,7*%
%TO.N,VCC*%
X84602000Y-73088000D03*
%TO.P,U1,6*%
%TO.N,GND*%
X83352000Y-73088000D03*
D16*
%TO.P,U1,5*%
%TO.N,N/C*%
X81852000Y-71588000D03*
%TO.P,U1,4*%
X81852000Y-70338000D03*
%TO.P,U1,3*%
X81852000Y-69088000D03*
%TO.P,U1,2*%
X81852000Y-67838000D03*
D17*
%TO.P,U1,1*%
X81852000Y-66588000D03*
%TO.P,U1,21*%
%TO.N,GND*%
%TA.AperFunction,SMDPad,CuDef*%
G36*
G01*
X83452000Y-71368000D02*
X83452000Y-66808000D01*
G75*
G02*
X83572000Y-66688000I120000J0D01*
G01*
X88132000Y-66688000D01*
G75*
G02*
X88252000Y-66808000I0J-120000D01*
G01*
X88252000Y-71368000D01*
G75*
G02*
X88132000Y-71488000I-120000J0D01*
G01*
X83572000Y-71488000D01*
G75*
G02*
X83452000Y-71368000I0J120000D01*
G01*
G37*
%TD.AperFunction*%
%TD*%
D18*
%TO.P,CONN1,MT2*%
%TO.N,N/C*%
X71258000Y-81032000D03*
%TO.P,CONN1,MT1*%
X71258000Y-75432000D03*
D19*
%TO.P,CONN1,4*%
%TO.N,SDA*%
X75158000Y-79732000D03*
%TO.P,CONN1,1*%
%TO.N,GND*%
X75158000Y-76732000D03*
%TO.P,CONN1,3*%
%TO.N,SCL*%
X75158000Y-78732000D03*
%TO.P,CONN1,2*%
%TO.N,VCC*%
X75158000Y-77732000D03*
%TD*%
%TO.P,R1,1*%
%TO.N,SCL*%
%TA.AperFunction,SMDPad,CuDef*%
G36*
G01*
X84953001Y-80432000D02*
X83702999Y-80432000D01*
G75*
G02*
X83453000Y-80182001I0J249999D01*
G01*
X83453000Y-79381999D01*
G75*
G02*
X83702999Y-79132000I249999J0D01*
G01*
X84953001Y-79132000D01*
G75*
G02*
X85203000Y-79381999I0J-249999D01*
G01*
X85203000Y-80182001D01*
G75*
G02*
X84953001Y-80432000I-249999J0D01*
G01*
G37*
%TD.AperFunction*%
%TO.P,R1,2*%
%TO.N,VCC*%
%TA.AperFunction,SMDPad,CuDef*%
G36*
G01*
X84953001Y-77332000D02*
X83702999Y-77332000D01*
G75*
G02*
X83453000Y-77082001I0J249999D01*
G01*
X83453000Y-76281999D01*
G75*
G02*
X83702999Y-76032000I249999J0D01*
G01*
X84953001Y-76032000D01*
G75*
G02*
X85203000Y-76281999I0J-249999D01*
G01*
X85203000Y-77082001D01*
G75*
G02*
X84953001Y-77332000I-249999J0D01*
G01*
G37*
%TD.AperFunction*%
%TD*%
%TO.P,R2,2*%
%TO.N,VCC*%
%TA.AperFunction,SMDPad,CuDef*%
G36*
G01*
X88001001Y-77332000D02*
X86750999Y-77332000D01*
G75*
G02*
X86501000Y-77082001I0J249999D01*
G01*
X86501000Y-76281999D01*
G75*
G02*
X86750999Y-76032000I249999J0D01*
G01*
X88001001Y-76032000D01*
G75*
G02*
X88251000Y-76281999I0J-249999D01*
G01*
X88251000Y-77082001D01*
G75*
G02*
X88001001Y-77332000I-249999J0D01*
G01*
G37*
%TD.AperFunction*%
%TO.P,R2,1*%
%TO.N,SDA*%
%TA.AperFunction,SMDPad,CuDef*%
G36*
G01*
X88001001Y-80432000D02*
X86750999Y-80432000D01*
G75*
G02*
X86501000Y-80182001I0J249999D01*
G01*
X86501000Y-79381999D01*
G75*
G02*
X86750999Y-79132000I249999J0D01*
G01*
X88001001Y-79132000D01*
G75*
G02*
X88251000Y-79381999I0J-249999D01*
G01*
X88251000Y-80182001D01*
G75*
G02*
X88001001Y-80432000I-249999J0D01*
G01*
G37*
%TD.AperFunction*%
%TD*%
%TO.P,R3,1*%
%TO.N,Net-(D1-Pad1)*%
%TA.AperFunction,SMDPad,CuDef*%
G36*
G01*
X89214000Y-84953001D02*
X89214000Y-83702999D01*
G75*
G02*
X89463999Y-83453000I249999J0D01*
G01*
X90264001Y-83453000D01*
G75*
G02*
X90514000Y-83702999I0J-249999D01*
G01*
X90514000Y-84953001D01*
G75*
G02*
X90264001Y-85203000I-249999J0D01*
G01*
X89463999Y-85203000D01*
G75*
G02*
X89214000Y-84953001I0J249999D01*
G01*
G37*
%TD.AperFunction*%
%TO.P,R3,2*%
%TO.N,GND*%
%TA.AperFunction,SMDPad,CuDef*%
G36*
G01*
X92314000Y-84953001D02*
X92314000Y-83702999D01*
G75*
G02*
X92563999Y-83453000I249999J0D01*
G01*
X93364001Y-83453000D01*
G75*
G02*
X93614000Y-83702999I0J-249999D01*
G01*
X93614000Y-84953001D01*
G75*
G02*
X93364001Y-85203000I-249999J0D01*
G01*
X92563999Y-85203000D01*
G75*
G02*
X92314000Y-84953001I0J249999D01*
G01*
G37*
%TD.AperFunction*%
%TD*%
D20*
%TO.P,J3,1*%
%TO.N,NEO_IN*%
X66040000Y-74168000D03*
%TD*%
D21*
%TO.N,GND*%
X91948000Y-82296000D03*
%TD*%
D22*
%TO.N,VCC*%
X83820000Y-75692000D02*
X84602000Y-74910000D01*
X84602000Y-74910000D02*
X84602000Y-73088000D01*
X73922000Y-77732000D02*
X73152000Y-76962000D01*
X75158000Y-77732000D02*
X73922000Y-77732000D01*
X83820000Y-76174000D02*
X84328000Y-76682000D01*
X83820000Y-75692000D02*
X83820000Y-76174000D01*
X84328000Y-76682000D02*
X87376000Y-76682000D01*
X84602000Y-64282000D02*
X84602000Y-65088000D01*
X79756000Y-64008000D02*
X80264000Y-63500000D01*
X79756000Y-70104000D02*
X79756000Y-64008000D01*
X79248000Y-70612000D02*
X79756000Y-70104000D01*
X83820000Y-63500000D02*
X84602000Y-64282000D01*
X70612000Y-70612000D02*
X79248000Y-70612000D01*
X80264000Y-63500000D02*
X83820000Y-63500000D01*
X68580000Y-72644000D02*
X70612000Y-70612000D01*
X68580000Y-75692000D02*
X68580000Y-72644000D01*
X69850000Y-76962000D02*
X68580000Y-75692000D01*
X73152000Y-76962000D02*
X69850000Y-76962000D01*
X78224000Y-77732000D02*
X75158000Y-77732000D01*
X82296000Y-75692000D02*
X80756000Y-77232000D01*
X83820000Y-75692000D02*
X82296000Y-75692000D01*
X69850000Y-84092000D02*
X70086000Y-84328000D01*
X69850000Y-76962000D02*
X69850000Y-84092000D01*
X80256000Y-77732000D02*
X78224000Y-77732000D01*
X80756000Y-77232000D02*
X80256000Y-77732000D01*
%TO.N,SCL*%
X73922000Y-78732000D02*
X73152000Y-79502000D01*
X75158000Y-78732000D02*
X73922000Y-78732000D01*
X87102000Y-73088000D02*
X87102000Y-74402000D01*
X88900000Y-77724000D02*
X88392000Y-78232000D01*
X88392000Y-78232000D02*
X84836000Y-78232000D01*
X84328000Y-78740000D02*
X84328000Y-79782000D01*
X84836000Y-78232000D02*
X84328000Y-78740000D01*
X88900000Y-77724000D02*
X88900000Y-75692000D01*
X88900000Y-75692000D02*
X88392000Y-75184000D01*
X87102000Y-74402000D02*
X87884000Y-75184000D01*
X88392000Y-75184000D02*
X87884000Y-75184000D01*
D23*
X84320000Y-78732000D02*
X84328000Y-78740000D01*
D22*
X75158000Y-78732000D02*
X84320000Y-78732000D01*
D24*
%TO.N,GND*%
X76658000Y-75232000D02*
X75158000Y-76732000D01*
X78332000Y-75232000D02*
X76658000Y-75232000D01*
X83352000Y-65088000D02*
X83352000Y-66080000D01*
X83352000Y-66080000D02*
X85852000Y-68580000D01*
X85852000Y-68580000D02*
X85852000Y-69088000D01*
X83352000Y-73088000D02*
X83352000Y-72096000D01*
X83352000Y-72096000D02*
X85852000Y-69596000D01*
X85852000Y-69596000D02*
X85852000Y-69088000D01*
X75848000Y-74422000D02*
X76658000Y-75232000D01*
X73152000Y-74422000D02*
X75848000Y-74422000D01*
X78332000Y-75232000D02*
X80216000Y-75232000D01*
X82360000Y-73088000D02*
X83352000Y-73088000D01*
X80216000Y-75232000D02*
X82360000Y-73088000D01*
D23*
X92964000Y-84328000D02*
X92964000Y-83312000D01*
X92964000Y-83312000D02*
X91948000Y-82296000D01*
D22*
%TO.N,SDA*%
X75158000Y-79732000D02*
X75160000Y-79732000D01*
X75160000Y-79732000D02*
X76660000Y-81232000D01*
X75850000Y-82042000D02*
X76660000Y-81232000D01*
X73152000Y-82042000D02*
X75850000Y-82042000D01*
X88352000Y-73088000D02*
X88352000Y-74128000D01*
X88352000Y-74128000D02*
X89916000Y-75692000D01*
X89916000Y-75692000D02*
X89916000Y-78740000D01*
X88874000Y-79782000D02*
X87376000Y-79782000D01*
X89916000Y-78740000D02*
X88874000Y-79782000D01*
X76660000Y-81232000D02*
X87328000Y-81232000D01*
D23*
X87328000Y-79830000D02*
X87376000Y-79782000D01*
D22*
X87328000Y-81232000D02*
X87328000Y-79830000D01*
D23*
%TO.N,Net-(D1-Pad1)*%
X72136000Y-84328000D02*
X89864000Y-84328000D01*
%TD*%
M02*
